<svg width="95" height="31" viewBox="0 0 95 31" fill="none" xmlns="http://www.w3.org/2000/svg">
<g clip-path="url(#clip0_1505_2568)">
<path d="M7.22221 4.35498C7.8858 4.35114 8.54544 4.46214 9.17449 4.68351C9.77514 4.90229 10.3241 5.25357 10.7842 5.71364C11.2648 6.20406 11.6445 6.79247 11.8998 7.44259C12.1991 8.22693 12.3593 9.06193 12.3726 9.90658C12.3726 10.146 12.3938 10.4773 12.3938 10.8838C12.3938 11.2903 12.3938 11.6188 12.3726 11.861C12.3621 12.706 12.2019 13.5415 11.8998 14.325C11.6424 14.9731 11.263 15.5602 10.7842 16.0512C10.3255 16.5099 9.77586 16.8569 9.17449 17.0674C8.54509 17.2867 7.88548 17.3957 7.22221 17.3904C6.79444 17.3981 6.36731 17.3523 5.94989 17.2539C5.64685 17.1863 5.35321 17.0788 5.076 16.9337C4.85567 16.812 4.65345 16.6573 4.4757 16.4744C4.31783 16.3098 4.16801 16.1369 4.0268 15.9565V16.5133C4.02405 16.6857 3.95732 16.8501 3.84078 16.9718C3.72423 17.0934 3.56705 17.1627 3.4026 17.1648H0.621551C0.540277 17.1652 0.459729 17.1487 0.384507 17.1165C0.309285 17.0842 0.240864 17.0368 0.183147 16.9767C0.12543 16.9168 0.0795497 16.8455 0.0481253 16.7669C0.0167009 16.6884 0.00034807 16.6041 0 16.5189V0.665992C0.00205011 0.493615 0.0681106 0.328863 0.184159 0.206705C0.300207 0.0845473 0.457106 0.0146027 0.621551 0.0117188H3.51681C3.68151 0.0145846 3.83869 0.084437 3.95517 0.206522C4.07165 0.328605 4.13829 0.493363 4.14102 0.665992V5.81108C4.2692 5.64406 4.40761 5.48596 4.55538 5.33778C4.7443 5.15644 4.95187 4.9977 5.17428 4.86448C5.45054 4.71003 5.74289 4.58951 6.04551 4.50532C6.42906 4.40247 6.82367 4.35194 7.21956 4.35498H7.22221ZM8.25547 10.2016C8.21819 9.66713 8.03364 9.15553 7.72423 8.72887C7.53378 8.50377 7.29501 8.32934 7.02763 8.21994C6.76024 8.11055 6.47187 8.06932 6.18629 8.09965C5.88568 8.09204 5.58668 8.14791 5.30709 8.26391C5.07909 8.36914 4.87257 8.51945 4.69883 8.70659C4.54161 8.88851 4.41417 9.0964 4.32164 9.32189C4.2311 9.54539 4.16861 9.78033 4.13571 10.0207C4.06931 10.5829 4.06931 11.1514 4.13571 11.7135C4.16502 11.9547 4.22765 12.1901 4.32164 12.4123C4.415 12.6411 4.54429 12.8519 4.70413 13.0359C4.87544 13.2282 5.08244 13.3817 5.31241 13.487C5.58903 13.6077 5.8867 13.6665 6.18629 13.6596C6.47141 13.6901 6.75937 13.6496 7.02666 13.5412C7.29395 13.4328 7.53298 13.2597 7.72423 13.0359C8.0319 12.6083 8.21625 12.0972 8.25547 11.5631C8.3033 11.1162 8.3033 10.6652 8.25547 10.2184" fill="white"/>
<path d="M22.3491 4.60156C22.5135 4.60445 22.6705 4.67439 22.7864 4.79655C22.9025 4.9187 22.9686 5.08346 22.9706 5.25583V7.69752C22.9679 7.86969 22.9016 8.03403 22.7857 8.15604C22.6698 8.27806 22.5134 8.34822 22.3491 8.3518H20.2534C18.8429 8.3518 18.1284 9.09516 18.1284 10.5791V16.5177C18.1256 16.6903 18.059 16.855 17.9425 16.9772C17.8261 17.0992 17.6689 17.1691 17.5042 17.172H14.6169C14.4524 17.1691 14.2955 17.0991 14.1794 16.977C14.0635 16.8549 13.9974 16.6901 13.9954 16.5177V5.25583C13.9974 5.08346 14.0635 4.9187 14.1794 4.79655C14.2955 4.67439 14.4524 4.60445 14.6169 4.60156H17.2731C17.4378 4.60443 17.595 4.67428 17.7115 4.79636C17.8279 4.91845 17.8946 5.08321 17.8973 5.25583V5.81267C18.2689 5.44564 18.6997 5.15059 19.1696 4.94123C19.7349 4.70355 20.3404 4.58894 20.9493 4.60434L22.3491 4.60156Z" fill="white"/>
<path d="M23.3932 13.5907C23.3837 13.0859 23.4844 12.5856 23.6874 12.1277C23.8904 11.6699 24.1903 11.2666 24.5645 10.9486C25.3374 10.2581 26.6018 9.74861 28.347 9.42283L31.0377 8.94399C31.0511 8.5981 30.9445 8.25883 30.7375 7.98903C30.6012 7.85048 30.4376 7.74501 30.2581 7.68006C30.0786 7.61511 29.8877 7.59228 29.6989 7.61317C29.419 7.59875 29.1398 7.6531 28.8835 7.77188C28.7329 7.85028 28.5897 7.9435 28.4558 8.05028C28.3457 8.16288 28.2106 8.24514 28.0628 8.28973C27.9195 8.32657 27.7718 8.34157 27.6244 8.33427H24.7026C24.5632 8.34111 24.4267 8.2901 24.3228 8.19228C24.2729 8.14431 24.2351 8.08409 24.2128 8.01703C24.1905 7.94997 24.1845 7.87817 24.1953 7.80807C24.2431 7.38616 24.4012 6.9863 24.6522 6.65265C24.9632 6.21185 25.3484 5.83441 25.789 5.53899C26.9486 4.75115 28.3038 4.33865 29.6856 4.35295C30.5123 4.33702 31.3362 4.45824 32.1267 4.7121C32.7576 4.91934 33.3415 5.25946 33.8426 5.71161C34.2871 6.12983 34.6302 6.65278 34.844 7.23732C35.0644 7.86076 35.1733 8.52141 35.1654 9.18622V16.5029C35.1627 16.6749 35.0963 16.8389 34.9804 16.9604C34.8644 17.082 34.7078 17.1516 34.5438 17.1544H31.638C31.474 17.1516 31.3175 17.082 31.2015 16.9604C31.0856 16.8389 31.0191 16.6749 31.0165 16.5029V15.818C30.6475 16.3018 30.1813 16.6945 29.6511 16.9679C28.9701 17.2817 28.2296 17.4283 27.4863 17.3967C26.8896 17.405 26.2957 17.311 25.7279 17.1183C25.2512 16.9478 24.8128 16.6767 24.4397 16.3219C24.0953 15.9829 23.8237 15.5711 23.6428 15.1137C23.4696 14.6282 23.3797 14.1145 23.3772 13.5963L23.3932 13.5907ZM28.6179 14.1531C28.9408 14.1542 29.2612 14.0938 29.5635 13.9749C29.8428 13.8589 30.0995 13.69 30.3205 13.4766C30.535 13.2698 30.7076 13.0199 30.8278 12.7415C30.9503 12.4552 31.0137 12.145 31.0138 11.8312L28.8888 12.1708C28.5298 12.2278 28.1875 12.3686 27.8875 12.5829C27.7711 12.6667 27.676 12.779 27.6103 12.91C27.5447 13.0409 27.5103 13.1866 27.5102 13.3346C27.498 13.4583 27.5179 13.5831 27.568 13.6959C27.618 13.8087 27.6963 13.9051 27.7944 13.9749C28.0467 14.1082 28.3279 14.1696 28.6099 14.1531" fill="white"/>
<path d="M49.0311 16.5082C49.0291 16.6806 48.963 16.8453 48.8469 16.9675C48.7309 17.0897 48.574 17.1597 48.4096 17.1625H45.5143C45.3496 17.1597 45.1924 17.0898 45.0759 16.9677C44.9595 16.8456 44.8928 16.6808 44.8901 16.5082V10.3831C44.9199 9.78372 44.748 9.19246 44.404 8.71262C44.2139 8.49543 43.9787 8.32678 43.7168 8.21965C43.4548 8.1125 43.1728 8.06971 42.8926 8.09454C42.6115 8.06905 42.3286 8.11294 42.0666 8.22269C41.8047 8.33244 41.5708 8.50501 41.3839 8.72654C41.0486 9.21017 40.8826 9.80007 40.9137 10.3971V16.5222C40.9124 16.6952 40.8461 16.8608 40.7294 16.9831C40.6126 17.1055 40.4547 17.175 40.2895 17.1764H37.3942C37.2299 17.1736 37.0729 17.1036 36.9569 16.9815C36.8408 16.8592 36.7748 16.6946 36.7727 16.5222V5.23801C36.7734 5.0652 36.839 4.89962 36.9554 4.77715C37.0717 4.65469 37.2294 4.58521 37.3942 4.58374H40.1753C40.3391 4.58803 40.4949 4.65851 40.6103 4.78044C40.7256 4.90237 40.7916 5.06633 40.7943 5.23801V5.79485C40.9346 5.61286 41.0873 5.44166 41.2511 5.28256C41.4527 5.09636 41.6758 4.93736 41.9152 4.80925C42.2046 4.66087 42.5095 4.54784 42.8236 4.47238C43.2204 4.38089 43.6257 4.33514 44.0321 4.33595C44.7201 4.337 45.4034 4.45356 46.0562 4.68119C46.6489 4.88396 47.1883 5.22909 47.6313 5.68904C48.0871 6.17485 48.4362 6.75924 48.6539 7.40129C48.9155 8.1932 49.0414 9.02738 49.0258 9.86526V16.5082H49.0311Z" fill="white"/>
<path d="M54.7948 10.0357C54.7311 10.5971 54.7311 11.1644 54.7948 11.7257C54.8204 12.2576 55.0446 12.7578 55.419 13.1177C55.8274 13.4847 56.3533 13.6757 56.8906 13.6524C57.2883 13.6759 57.6856 13.5985 58.0488 13.4268C58.3172 13.2762 58.544 13.0557 58.7075 12.7864C58.7803 12.6616 58.8698 12.5481 58.973 12.4496C59.0847 12.3506 59.2281 12.2998 59.3742 12.3076H62.3836C62.4675 12.3068 62.5507 12.3236 62.6283 12.357C62.7058 12.3905 62.7762 12.44 62.8352 12.5024C62.8972 12.5587 62.945 12.6299 62.9747 12.71C63.0043 12.7901 63.0147 12.8765 63.0051 12.9618C62.9562 13.3524 62.8552 13.7339 62.705 14.095C62.4887 14.656 62.164 15.164 61.7514 15.5873C61.2166 16.1357 60.5852 16.5697 59.8921 16.8652C58.9422 17.2592 57.9248 17.443 56.9039 17.4053C56.0883 17.4143 55.2765 17.2856 54.5001 17.0239C53.7883 16.7845 53.126 16.4068 52.5477 15.9103C51.9919 15.4326 51.5392 14.8366 51.2196 14.1618C50.8853 13.4412 50.6998 12.6547 50.6751 11.8538C50.6618 11.6143 50.6538 11.2969 50.6538 10.8849C50.6538 10.4728 50.6538 10.1638 50.6751 9.91601C50.6902 9.13811 50.8656 8.37283 51.1892 7.67265C51.5129 6.97248 51.9773 6.35395 52.5504 5.8595C53.1293 5.36408 53.7914 4.98638 54.5027 4.74584C55.2799 4.48595 56.0909 4.35445 56.9065 4.35607C57.9274 4.31973 58.9445 4.50357 59.8948 4.89619C60.5856 5.19976 61.2162 5.63601 61.7541 6.18246C62.1699 6.60303 62.4982 7.10921 62.7184 7.6692C62.8681 8.03044 62.9692 8.41182 63.0185 8.80234C63.0257 8.88745 63.014 8.97315 62.9846 9.05281C62.9551 9.13247 62.9085 9.20395 62.8485 9.26172C62.7894 9.32422 62.7191 9.37367 62.6415 9.40714C62.5639 9.44058 62.4808 9.4574 62.3969 9.45665H59.3742C59.2279 9.46576 59.0841 9.41484 58.973 9.31462C58.871 9.21483 58.7817 9.10159 58.7075 8.97773C58.5462 8.70666 58.3187 8.48561 58.0488 8.33739C57.6854 8.16637 57.2883 8.08905 56.8906 8.11187C56.3522 8.08059 55.8236 8.2726 55.419 8.64643C55.2324 8.82366 55.0811 9.03796 54.9739 9.27691C54.8668 9.51583 54.8059 9.77473 54.7948 10.0385" fill="white"/>
<path d="M76.8651 16.5106C76.863 16.683 76.797 16.8476 76.6809 16.9698C76.5649 17.092 76.4079 17.162 76.2435 17.1648H73.3482C73.1836 17.162 73.0264 17.0921 72.9099 16.97C72.7935 16.8479 72.7268 16.6831 72.7241 16.5106V10.3854C72.7544 9.78602 72.5823 9.19457 72.238 8.71494C72.0474 8.49613 71.8117 8.32573 71.549 8.2167C71.2862 8.10767 71.0031 8.06288 70.7213 8.08572C70.4416 8.05968 70.1599 8.10307 69.8992 8.21239C69.6385 8.32171 69.4059 8.49388 69.2206 8.71494C68.8866 9.19942 68.7199 9.78846 68.7477 10.3854V16.5106C68.747 16.6833 68.6814 16.8489 68.5651 16.9713C68.4487 17.0938 68.2911 17.1634 68.1262 17.1648H65.2309C65.0662 17.162 64.909 17.0921 64.7926 16.97C64.6761 16.8479 64.6095 16.6831 64.6067 16.5106V0.665992C64.6095 0.493362 64.6761 0.328606 64.7926 0.206521C64.909 0.0844369 65.0662 0.0145846 65.2309 0.0117188H68.1262C68.2906 0.0146026 68.4475 0.0845472 68.5635 0.206705C68.6796 0.328863 68.7456 0.493616 68.7477 0.665992V5.81108C69.1448 5.35383 69.6289 4.9888 70.1687 4.73945C70.7085 4.49011 71.2921 4.36198 71.8821 4.36333C72.5688 4.35508 73.2522 4.4632 73.906 4.68351C74.4976 4.88596 75.036 5.23008 75.4786 5.68858C75.9345 6.17542 76.2835 6.76073 76.5011 7.40361C76.7643 8.19514 76.8902 9.02959 76.8731 9.86756V16.5106H76.8651Z" fill="white"/>
<path d="M85.612 4.62446L82.8735 0.604161C82.8177 0.528989 82.7167 0.40927 82.5786 0.245006C82.4914 0.158856 82.3881 0.0927956 82.2751 0.0510776C82.1621 0.00935962 82.042 -0.00709074 81.9226 0.00278603H78.504C78.3715 0.00493968 78.245 0.0610702 78.1513 0.159289C78.0576 0.257509 78.004 0.390102 78.002 0.528989C78.0021 0.626784 78.0269 0.722809 78.0737 0.807403L83.0806 8.19373L85.612 4.62446Z" fill="#FDB62F"/>
<path d="M83.5454 8.92864L78.3181 16.6157C78.2916 16.6654 78.2719 16.7189 78.2597 16.7744C78.2569 16.8096 78.2569 16.8449 78.2597 16.8801C78.2609 17.0171 78.3129 17.1482 78.4046 17.2458C78.4962 17.3435 78.6204 17.4 78.751 17.4036H82.2041C82.4241 17.4277 82.6452 17.3696 82.8283 17.2393C82.9431 17.1233 83.0456 16.9945 83.1338 16.8551L86.0316 12.5731L86.1034 5.35938L83.5454 8.92864Z" fill="#A9D59B"/>
<path d="M93.9657 0.161508C93.9209 0.111354 93.8663 0.0713968 93.8062 0.0441025C93.7462 0.0168083 93.6807 0.00275586 93.6153 0.00281207H90.1621C90.0421 -0.00711397 89.922 0.00930393 89.8081 0.0510144C89.6952 0.0927249 89.591 0.158808 89.5033 0.245032C89.3679 0.400944 89.2669 0.523446 89.2112 0.604186L86.5549 4.62449L89.0173 8.30233L94.0455 0.785156C94.0876 0.698738 94.1127 0.603829 94.1172 0.506741C94.1172 0.437867 94.1038 0.369686 94.0778 0.306455C94.0518 0.243223 94.0141 0.186299 93.9657 0.139235" fill="#748BC5"/>
<path d="M93.7372 16.6157L88.5523 9.02609L86.0846 5.35938L86.0129 12.5731L88.9348 16.8551C89.0214 16.9964 89.125 17.1255 89.2429 17.2393C89.4233 17.3759 89.6468 17.4346 89.8673 17.4036H93.307C93.4387 17.4008 93.5642 17.3447 93.6574 17.2472C93.7497 17.1496 93.8035 17.018 93.8062 16.8801C93.8053 16.8445 93.8008 16.8091 93.7927 16.7744C93.782 16.7195 93.7649 16.6662 93.7425 16.6157" fill="#F16778"/>
<path d="M19.1198 28.2459C19.0614 28.2459 19.0148 28.2275 18.9798 28.1909C18.9447 28.1541 18.9272 28.1052 18.9272 28.044V22.0353C18.9272 21.9679 18.9447 21.916 18.9798 21.8793C19.0148 21.8426 19.0614 21.8242 19.1198 21.8242H21.4041C21.8126 21.8242 22.1451 21.9007 22.4018 22.0536C22.6644 22.2065 22.857 22.4083 22.9795 22.6591C23.102 22.9037 23.1633 23.1728 23.1633 23.4664C23.1633 23.7293 23.1225 23.9556 23.0407 24.1452C22.9649 24.3287 22.8657 24.4786 22.7432 24.5948C22.6265 24.711 22.5098 24.7997 22.3931 24.8608C22.6265 24.9831 22.8336 25.1788 23.0145 25.4479C23.1954 25.717 23.2859 26.0442 23.2859 26.4295C23.2859 26.7353 23.2158 27.0288 23.0758 27.3102C22.9416 27.5853 22.7374 27.8116 22.4631 27.989C22.1947 28.1602 21.8621 28.2459 21.4654 28.2459H19.1198ZM19.4786 27.6954H21.3779C21.8096 27.6954 22.1422 27.5762 22.3756 27.3377C22.6149 27.0992 22.7344 26.7964 22.7344 26.4295C22.7344 26.0564 22.6149 25.7537 22.3756 25.5213C22.1422 25.2828 21.8096 25.1635 21.3779 25.1635H19.4786V27.6954ZM19.4786 24.6131H21.2903C21.7221 24.6131 22.0489 24.5122 22.2706 24.3103C22.4982 24.1085 22.6119 23.8272 22.6119 23.4664C22.6119 23.1056 22.4982 22.8334 22.2706 22.6499C22.0489 22.4664 21.7221 22.3747 21.2903 22.3747H19.4786V24.6131Z" fill="white"/>
<path d="M25.7569 28.3366C25.4768 28.3366 25.2172 28.2755 24.978 28.1532C24.7445 28.0308 24.5549 27.8688 24.409 27.6669C24.2631 27.459 24.1902 27.2266 24.1902 26.9697C24.1902 26.5538 24.3507 26.2205 24.6716 25.9698C24.9925 25.7191 25.4097 25.5569 25.9231 25.4836L27.306 25.2818V24.9607C27.306 24.6365 27.2097 24.3827 27.0172 24.1992C26.8305 24.0097 26.53 23.9149 26.1157 23.9149C25.8123 23.9149 25.5672 23.9791 25.3806 24.1076C25.1938 24.2299 25.0654 24.3919 24.9954 24.5938C24.9662 24.6855 24.9108 24.7313 24.8291 24.7313H24.6891C24.6191 24.7313 24.5695 24.713 24.5403 24.6763C24.5111 24.6335 24.4965 24.5846 24.4965 24.5295C24.4965 24.444 24.5257 24.3369 24.5841 24.2084C24.6482 24.08 24.7445 23.9546 24.8729 23.8323C25.0013 23.7039 25.1675 23.5969 25.3718 23.5112C25.576 23.4256 25.824 23.3828 26.1157 23.3828C26.46 23.3828 26.7429 23.4318 26.9646 23.5295C27.1923 23.6274 27.3673 23.7558 27.4898 23.9149C27.6182 24.0678 27.7086 24.2391 27.7611 24.4286C27.8136 24.6182 27.8399 24.8048 27.8399 24.9882V28.0431C27.8399 28.1042 27.8224 28.1532 27.7874 28.1899C27.7523 28.2265 27.7057 28.2449 27.6474 28.2449H27.4985C27.4402 28.2449 27.3936 28.2265 27.3585 28.1899C27.3235 28.1532 27.306 28.1042 27.306 28.0431V27.6119C27.236 27.722 27.1368 27.8321 27.0085 27.9422C26.88 28.0523 26.7138 28.147 26.5095 28.2265C26.3112 28.3 26.0603 28.3366 25.7569 28.3366ZM25.8443 27.8045C26.1128 27.8045 26.3579 27.7434 26.5796 27.6211C26.8013 27.4988 26.9764 27.3122 27.1047 27.0615C27.2389 26.8046 27.306 26.4836 27.306 26.0982V25.7863L26.1769 25.9515C25.6985 26.0188 25.3367 26.135 25.0917 26.3001C24.8467 26.4652 24.7242 26.6731 24.7242 26.9239C24.7242 27.1257 24.7795 27.2908 24.8904 27.4193C25.0013 27.5477 25.1413 27.6455 25.3105 27.7129C25.4856 27.774 25.6635 27.8045 25.8443 27.8045Z" fill="white"/>
<path d="M29.4164 28.2449C29.358 28.2449 29.3113 28.2265 29.2764 28.1899C29.2414 28.1532 29.2239 28.1042 29.2239 28.0431V23.6764C29.2239 23.6152 29.2414 23.5663 29.2764 23.5295C29.3113 23.4929 29.358 23.4746 29.4164 23.4746H29.5652C29.6235 23.4746 29.6702 23.4929 29.7052 23.5295C29.7402 23.5663 29.7578 23.6152 29.7578 23.6764V24.1076C29.9152 23.8935 30.1049 23.7192 30.3266 23.5846C30.5541 23.4501 30.8547 23.3828 31.2281 23.3828C31.6249 23.3828 31.9545 23.4746 32.2171 23.6581C32.4855 23.8354 32.6838 24.08 32.8123 24.3919C32.9464 24.6977 33.0136 25.0463 33.0136 25.4377V28.0431C33.0136 28.1042 32.996 28.1532 32.9611 28.1899C32.926 28.2265 32.8793 28.2449 32.821 28.2449H32.6722C32.6139 28.2449 32.5672 28.2265 32.5322 28.1899C32.4972 28.1532 32.4797 28.1042 32.4797 28.0431V25.4836C32.4797 24.9943 32.3659 24.6121 32.1383 24.3369C31.9108 24.0555 31.5782 23.9149 31.1405 23.9149C30.7263 23.9149 30.3908 24.0555 30.1341 24.3369C29.8831 24.6121 29.7578 24.9943 29.7578 25.4836V28.0431C29.7578 28.1042 29.7402 28.1532 29.7052 28.1899C29.6702 28.2265 29.6235 28.2449 29.5652 28.2449H29.4164Z" fill="white"/>
<path d="M34.5876 28.2439C34.5292 28.2439 34.4826 28.2254 34.4475 28.1888C34.4125 28.1521 34.395 28.1031 34.395 28.042V21.9323C34.395 21.8711 34.4125 21.8222 34.4475 21.7855C34.4826 21.7488 34.5292 21.7305 34.5876 21.7305H34.7364C34.7947 21.7305 34.8414 21.7488 34.8764 21.7855C34.9114 21.8222 34.9289 21.8711 34.9289 21.9323V25.1798L36.8806 23.6295C36.9623 23.5622 37.0207 23.5194 37.0557 23.5009C37.0965 23.4826 37.1607 23.4735 37.2482 23.4735H37.4145C37.467 23.4735 37.5079 23.4918 37.5371 23.5285C37.572 23.5591 37.5896 23.6019 37.5896 23.657C37.5896 23.6814 37.5808 23.712 37.5634 23.7487C37.5516 23.7793 37.5225 23.8098 37.4758 23.8404L35.2615 25.6018L37.6946 27.8768C37.7705 27.9503 37.8084 28.0114 37.8084 28.0604C37.8084 28.1153 37.7909 28.1613 37.7559 28.1979C37.7267 28.2285 37.6859 28.2439 37.6333 28.2439H37.4933C37.4058 28.2439 37.3416 28.2377 37.3008 28.2254C37.2657 28.2071 37.2074 28.1613 37.1257 28.0878L34.9289 26.0421V28.042C34.9289 28.1031 34.9114 28.1521 34.8764 28.1888C34.8414 28.2254 34.7947 28.2439 34.7364 28.2439H34.5876Z" fill="white"/>
<path d="M38.8438 28.2439C38.7854 28.2439 38.7387 28.2254 38.7038 28.1888C38.6688 28.1521 38.6513 28.1031 38.6513 28.042V23.6753C38.6513 23.6141 38.6688 23.5652 38.7038 23.5285C38.7387 23.4918 38.7854 23.4735 38.8438 23.4735H38.9926C39.0509 23.4735 39.0976 23.4918 39.1326 23.5285C39.1676 23.5652 39.1852 23.6141 39.1852 23.6753V28.042C39.1852 28.1031 39.1676 28.1521 39.1326 28.1888C39.0976 28.2254 39.0509 28.2439 38.9926 28.2439H38.8438ZM38.7475 22.4918C38.6892 22.4918 38.6425 22.4735 38.6075 22.4368C38.5725 22.4002 38.5549 22.3512 38.5549 22.2901V21.9415C38.5549 21.8803 38.5725 21.8314 38.6075 21.7946C38.6425 21.7519 38.6892 21.7305 38.7475 21.7305H39.0801C39.1385 21.7305 39.1852 21.7519 39.2201 21.7946C39.261 21.8314 39.2814 21.8803 39.2814 21.9415V22.2901C39.2814 22.3512 39.261 22.4002 39.2201 22.4368C39.1852 22.4735 39.1385 22.4918 39.0801 22.4918H38.7475Z" fill="white"/>
<path d="M40.7925 28.2449C40.7341 28.2449 40.6874 28.2265 40.6524 28.1899C40.6174 28.1532 40.5999 28.1042 40.5999 28.0431V23.6764C40.5999 23.6152 40.6174 23.5663 40.6524 23.5295C40.6874 23.4929 40.7341 23.4746 40.7925 23.4746H40.9412C40.9996 23.4746 41.0463 23.4929 41.0812 23.5295C41.1163 23.5663 41.1337 23.6152 41.1337 23.6764V24.1076C41.2913 23.8935 41.4809 23.7192 41.7027 23.5846C41.9302 23.4501 42.2307 23.3828 42.6042 23.3828C43.0009 23.3828 43.3306 23.4746 43.5932 23.6581C43.8616 23.8354 44.0599 24.08 44.1883 24.3919C44.3225 24.6977 44.3895 25.0463 44.3895 25.4377V28.0431C44.3895 28.1042 44.3721 28.1532 44.337 28.1899C44.3021 28.2265 44.2554 28.2449 44.197 28.2449H44.0483C43.9899 28.2449 43.9432 28.2265 43.9082 28.1899C43.8732 28.1532 43.8557 28.1042 43.8557 28.0431V25.4836C43.8557 24.9943 43.7419 24.6121 43.5144 24.3369C43.2868 24.0555 42.9542 23.9149 42.5166 23.9149C42.1024 23.9149 41.7668 24.0555 41.5102 24.3369C41.2592 24.6121 41.1337 24.9943 41.1337 25.4836V28.0431C41.1337 28.1042 41.1163 28.1532 41.0812 28.1899C41.0463 28.2265 40.9996 28.2449 40.9412 28.2449H40.7925Z" fill="white"/>
<path d="M47.4603 30.2631C47.087 30.2631 46.7806 30.2112 46.5414 30.1072C46.308 30.0032 46.1243 29.8748 45.99 29.7218C45.8617 29.5751 45.7712 29.4253 45.7187 29.2723C45.6662 29.1256 45.637 29.0063 45.6311 28.9146C45.6253 28.8534 45.6429 28.8014 45.6837 28.7586C45.7245 28.722 45.7712 28.7035 45.8237 28.7035H45.9463C45.993 28.7035 46.0337 28.7127 46.0688 28.7311C46.1038 28.7556 46.1329 28.8106 46.1563 28.8962C46.1913 28.9941 46.2468 29.1072 46.3226 29.2356C46.4043 29.3702 46.5297 29.4864 46.6989 29.5842C46.8739 29.6821 47.1132 29.7311 47.4166 29.7311C47.7375 29.7311 48.006 29.6882 48.2218 29.6026C48.4377 29.517 48.6011 29.3641 48.7119 29.1439C48.8286 28.9298 48.887 28.6302 48.887 28.2449V27.6119C48.7411 27.8199 48.5485 27.9941 48.3093 28.1348C48.076 28.2694 47.7784 28.3366 47.4166 28.3366C47.0782 28.3366 46.7893 28.2725 46.5501 28.1439C46.3168 28.0155 46.1271 27.8443 45.9813 27.6303C45.8354 27.4162 45.7275 27.1777 45.6574 26.9147C45.5874 26.6517 45.5495 26.3857 45.5437 26.1165C45.5379 25.9454 45.5379 25.7741 45.5437 25.6029C45.5495 25.3337 45.5874 25.0677 45.6574 24.8048C45.7275 24.5417 45.8354 24.3032 45.9813 24.0891C46.1271 23.8751 46.3168 23.7039 46.5501 23.5755C46.7893 23.4471 47.0782 23.3828 47.4166 23.3828C47.7784 23.3828 48.076 23.4532 48.3093 23.5938C48.5485 23.7344 48.7411 23.9057 48.887 24.1076V23.6856C48.887 23.6244 48.9045 23.5755 48.9395 23.5388C48.9745 23.4959 49.0212 23.4746 49.0796 23.4746H49.2196C49.2779 23.4746 49.3246 23.4959 49.3596 23.5388C49.4004 23.5755 49.4208 23.6244 49.4208 23.6856V28.1532C49.4208 28.5446 49.3655 28.8993 49.2546 29.2173C49.1437 29.5354 48.9453 29.7891 48.6594 29.9788C48.3793 30.1683 47.9797 30.2631 47.4603 30.2631ZM47.4691 27.8045C47.8017 27.8045 48.0701 27.722 48.2743 27.5568C48.4786 27.3918 48.6273 27.1869 48.7207 26.9422C48.8199 26.6915 48.8753 26.4407 48.887 26.19C48.8928 26.0982 48.8957 25.9881 48.8957 25.8597C48.8957 25.7313 48.8928 25.6212 48.887 25.5294C48.8753 25.2787 48.8199 25.031 48.7207 24.7864C48.6273 24.5356 48.4786 24.3277 48.2743 24.1626C48.0701 23.9975 47.8017 23.9149 47.4691 23.9149C47.1307 23.9149 46.8594 23.9944 46.6552 24.1534C46.4568 24.3124 46.3138 24.5203 46.2263 24.7772C46.1388 25.0341 46.0892 25.3093 46.0776 25.6029C46.0717 25.7741 46.0717 25.9454 46.0776 26.1165C46.0892 26.4101 46.1388 26.6853 46.2263 26.9422C46.3138 27.1991 46.4568 27.407 46.6552 27.566C46.8594 27.7251 47.1307 27.8045 47.4691 27.8045Z" fill="white"/>
<path d="M53.4106 28.2459C53.3522 28.2459 53.3056 28.2275 53.2705 28.1909C53.2355 28.1541 53.218 28.1052 53.218 28.044V22.0353C53.218 21.9679 53.2355 21.916 53.2705 21.8793C53.3056 21.8426 53.3522 21.8242 53.4106 21.8242H56.7889C56.8531 21.8242 56.9027 21.8426 56.9377 21.8793C56.9728 21.916 56.9902 21.9679 56.9902 22.0353V22.1728C56.9902 22.234 56.9728 22.2829 56.9377 22.3197C56.9027 22.3563 56.8531 22.3747 56.7889 22.3747H53.7694V24.8424H56.6139C56.6781 24.8424 56.7276 24.8608 56.7627 24.8974C56.7976 24.9342 56.8152 24.9861 56.8152 25.0534V25.191C56.8152 25.2522 56.7976 25.3011 56.7627 25.3378C56.7276 25.3745 56.6781 25.3929 56.6139 25.3929H53.7694V28.044C53.7694 28.1052 53.7519 28.1541 53.7169 28.1909C53.6819 28.2275 53.6323 28.2459 53.5681 28.2459H53.4106Z" fill="white"/>
<path d="M59.7261 28.3366C59.3061 28.3366 58.953 28.2449 58.6671 28.0615C58.3871 27.8779 58.1712 27.6272 58.0195 27.3092C57.8736 26.9911 57.7948 26.6364 57.7832 26.2451C57.7774 26.1533 57.7744 26.0249 57.7744 25.8597C57.7744 25.6946 57.7774 25.5662 57.7832 25.4745C57.7948 25.0769 57.8736 24.7222 58.0195 24.4102C58.1712 24.0922 58.3871 23.8415 58.6671 23.6581C58.953 23.4746 59.3061 23.3828 59.7261 23.3828C60.1463 23.3828 60.4963 23.4746 60.7764 23.6581C61.0623 23.8415 61.2782 24.0922 61.4241 24.4102C61.5758 24.7222 61.6575 25.0769 61.6691 25.4745C61.675 25.5662 61.6779 25.6946 61.6779 25.8597C61.6779 26.0249 61.675 26.1533 61.6691 26.2451C61.6575 26.6364 61.5758 26.9911 61.4241 27.3092C61.2782 27.6272 61.0623 27.8779 60.7764 28.0615C60.4963 28.2449 60.1463 28.3366 59.7261 28.3366ZM59.7261 27.8045C60.1346 27.8045 60.4672 27.6669 60.7239 27.3918C60.9807 27.1165 61.1178 26.719 61.1353 26.1991C61.1411 26.1074 61.144 25.9942 61.144 25.8597C61.144 25.7252 61.1411 25.612 61.1353 25.5203C61.1178 24.9943 60.9807 24.5968 60.7239 24.3277C60.4672 24.0525 60.1346 23.9149 59.7261 23.9149C59.3177 23.9149 58.9851 24.0525 58.7284 24.3277C58.4717 24.5968 58.3346 24.9943 58.3171 25.5203C58.3113 25.612 58.3083 25.7252 58.3083 25.8597C58.3083 25.9942 58.3113 26.1074 58.3171 26.1991C58.3346 26.719 58.4717 27.1165 58.7284 27.3918C58.9851 27.6669 59.3177 27.8045 59.7261 27.8045Z" fill="white"/>
<path d="M63.0661 28.2469C63.0078 28.2469 62.9611 28.2285 62.9261 28.1919C62.8911 28.1551 62.8735 28.1062 62.8735 28.045V23.6876C62.8735 23.6264 62.8911 23.5775 62.9261 23.5407C62.9611 23.4979 63.0078 23.4766 63.0661 23.4766H63.2061C63.2645 23.4766 63.3112 23.4979 63.3462 23.5407C63.387 23.5775 63.4074 23.6264 63.4074 23.6876V24.1095C63.5125 23.8954 63.6642 23.7364 63.8625 23.6325C64.0609 23.5285 64.306 23.4766 64.5977 23.4766H64.9216C64.9799 23.4766 65.0266 23.4949 65.0616 23.5315C65.0966 23.5682 65.1141 23.6172 65.1141 23.6783V23.8068C65.1141 23.8679 65.0966 23.9169 65.0616 23.9536C65.0266 23.9902 64.9799 24.0086 64.9216 24.0086H64.5453C64.1951 24.0086 63.918 24.1156 63.7137 24.3297C63.5096 24.5437 63.4074 24.8343 63.4074 25.2012V28.045C63.4074 28.1062 63.387 28.1551 63.3462 28.1919C63.3112 28.2285 63.2645 28.2469 63.2061 28.2469H63.0661Z" fill="white"/>
<path d="M68.2654 28.2459C68.207 28.2459 68.1603 28.2275 68.1253 28.1909C68.0903 28.1541 68.0728 28.1052 68.0728 28.044V22.0353C68.0728 21.9679 68.0903 21.916 68.1253 21.8793C68.1603 21.8426 68.207 21.8242 68.2654 21.8242H70.5496C70.9581 21.8242 71.2907 21.9007 71.5474 22.0536C71.8099 22.2065 72.0025 22.4083 72.125 22.6591C72.2476 22.9037 72.3089 23.1728 72.3089 23.4664C72.3089 23.7293 72.268 23.9556 72.1863 24.1452C72.1104 24.3287 72.0112 24.4786 71.8887 24.5948C71.772 24.711 71.6553 24.7997 71.5386 24.8608C71.772 24.9831 71.9791 25.1788 72.1601 25.4479C72.3409 25.717 72.4314 26.0442 72.4314 26.4295C72.4314 26.7353 72.3614 27.0288 72.2213 27.3102C72.0871 27.5853 71.8829 27.8116 71.6086 27.989C71.3402 28.1602 71.0077 28.2459 70.6109 28.2459H68.2654ZM68.6242 27.6954H70.5234C70.9552 27.6954 71.2878 27.5762 71.5212 27.3377C71.7604 27.0992 71.88 26.7964 71.88 26.4295C71.88 26.0564 71.7604 25.7537 71.5212 25.5213C71.2878 25.2828 70.9552 25.1635 70.5234 25.1635H68.6242V27.6954ZM68.6242 24.6131H70.4358C70.8676 24.6131 71.1944 24.5122 71.4161 24.3103C71.6437 24.1085 71.7574 23.8272 71.7574 23.4664C71.7574 23.1056 71.6437 22.8334 71.4161 22.6499C71.1944 22.4664 70.8676 22.3747 70.4358 22.3747H68.6242V24.6131Z" fill="white"/>
<path d="M73.8783 28.2439C73.82 28.2439 73.7733 28.2254 73.7383 28.1888C73.7033 28.1521 73.6858 28.1031 73.6858 28.042V21.9323C73.6858 21.8711 73.7033 21.8222 73.7383 21.7855C73.7733 21.7488 73.82 21.7305 73.8783 21.7305H74.0272C74.0855 21.7305 74.1321 21.7488 74.1671 21.7855C74.2022 21.8222 74.2197 21.8711 74.2197 21.9323V24.1065C74.3772 23.8924 74.5669 23.7181 74.7886 23.5835C75.0161 23.449 75.3166 23.3817 75.69 23.3817C76.0868 23.3817 76.4165 23.4735 76.679 23.657C76.9474 23.8343 77.1458 24.079 77.2742 24.3908C77.4084 24.6966 77.4755 25.0452 77.4755 25.4367V28.042C77.4755 28.1031 77.458 28.1521 77.423 28.1888C77.388 28.2254 77.3413 28.2439 77.283 28.2439H77.1341C77.0758 28.2439 77.0292 28.2254 76.9941 28.1888C76.9591 28.1521 76.9416 28.1031 76.9416 28.042V25.4825C76.9416 24.9933 76.8279 24.611 76.6002 24.3358C76.3727 24.0544 76.0401 23.9138 75.6025 23.9138C75.1882 23.9138 74.8528 24.0544 74.596 24.3358C74.3451 24.611 74.2197 24.9933 74.2197 25.4825V28.042C74.2197 28.1031 74.2022 28.1521 74.1671 28.1888C74.1321 28.2254 74.0855 28.2439 74.0272 28.2439H73.8783Z" fill="white"/>
<path d="M80.0734 28.3366C79.7934 28.3366 79.5337 28.2755 79.2945 28.1532C79.0612 28.0308 78.8715 27.8688 78.7256 27.6669C78.5798 27.459 78.5068 27.2266 78.5068 26.9697C78.5068 26.5538 78.6673 26.2205 78.9882 25.9698C79.3091 25.7191 79.7263 25.5569 80.2398 25.4836L81.6226 25.2818V24.9607C81.6226 24.6365 81.5263 24.3827 81.3338 24.1992C81.147 24.0097 80.8466 23.9149 80.4323 23.9149C80.1289 23.9149 79.8838 23.9791 79.6971 24.1076C79.5104 24.2299 79.3821 24.3919 79.312 24.5938C79.2829 24.6855 79.2274 24.7313 79.1458 24.7313H79.0057C78.9357 24.7313 78.8861 24.713 78.8569 24.6763C78.8278 24.6335 78.8132 24.5846 78.8132 24.5295C78.8132 24.444 78.8423 24.3369 78.9006 24.2084C78.9649 24.08 79.0612 23.9546 79.1895 23.8323C79.3178 23.7039 79.4842 23.5969 79.6883 23.5112C79.8926 23.4256 80.1406 23.3828 80.4323 23.3828C80.7765 23.3828 81.0596 23.4318 81.2813 23.5295C81.5088 23.6274 81.6839 23.7558 81.8064 23.9149C81.9348 24.0678 82.0252 24.2391 82.0778 24.4286C82.1302 24.6182 82.1564 24.8048 82.1564 24.9882V28.0431C82.1564 28.1042 82.139 28.1532 82.104 28.1899C82.069 28.2265 82.0223 28.2449 81.9639 28.2449H81.8152C81.7568 28.2449 81.7101 28.2265 81.6751 28.1899C81.6401 28.1532 81.6226 28.1042 81.6226 28.0431V27.6119C81.5526 27.722 81.4534 27.8321 81.325 27.9422C81.1967 28.0523 81.0303 28.147 80.8262 28.2265C80.6278 28.3 80.3769 28.3366 80.0734 28.3366ZM80.161 27.8045C80.4294 27.8045 80.6745 27.7434 80.8962 27.6211C81.1179 27.4988 81.2929 27.3122 81.4213 27.0615C81.5555 26.8046 81.6226 26.4836 81.6226 26.0982V25.7863L80.4936 25.9515C80.0151 26.0188 79.6534 26.135 79.4083 26.3001C79.1632 26.4652 79.0407 26.6731 79.0407 26.9239C79.0407 27.1257 79.0961 27.2908 79.207 27.4193C79.3178 27.5477 79.4579 27.6455 79.6271 27.7129C79.8022 27.774 79.9801 27.8045 80.161 27.8045Z" fill="white"/>
<path d="M83.7331 28.2469C83.6747 28.2469 83.6281 28.2285 83.593 28.1919C83.558 28.1551 83.5405 28.1062 83.5405 28.045V23.6876C83.5405 23.6264 83.558 23.5775 83.593 23.5407C83.6281 23.4979 83.6747 23.4766 83.7331 23.4766H83.8731C83.9315 23.4766 83.9782 23.4979 84.0132 23.5407C84.054 23.5775 84.0744 23.6264 84.0744 23.6876V24.1095C84.1794 23.8954 84.3312 23.7364 84.5295 23.6325C84.7279 23.5285 84.973 23.4766 85.2647 23.4766H85.5886C85.6469 23.4766 85.6935 23.4949 85.7286 23.5315C85.7636 23.5682 85.7811 23.6172 85.7811 23.6783V23.8068C85.7811 23.8679 85.7636 23.9169 85.7286 23.9536C85.6935 23.9902 85.6469 24.0086 85.5886 24.0086H85.2122C84.8621 24.0086 84.585 24.1156 84.3807 24.3297C84.1765 24.5437 84.0744 24.8343 84.0744 25.2012V28.045C84.0744 28.1062 84.054 28.1551 84.0132 28.1919C83.9782 28.2285 83.9315 28.2469 83.8731 28.2469H83.7331Z" fill="white"/>
<path d="M87.74 28.3366C87.46 28.3366 87.2003 28.2755 86.961 28.1532C86.7277 28.0308 86.538 27.8688 86.3922 27.6669C86.2463 27.459 86.1733 27.2266 86.1733 26.9697C86.1733 26.5538 86.3339 26.2205 86.6547 25.9698C86.9756 25.7191 87.3928 25.5569 87.9063 25.4836L89.2892 25.2818V24.9607C89.2892 24.6365 89.1929 24.3827 89.0003 24.1992C88.8136 24.0097 88.5131 23.9149 88.0989 23.9149C87.7954 23.9149 87.5504 23.9791 87.3636 24.1076C87.1769 24.2299 87.0486 24.3919 86.9786 24.5938C86.9494 24.6855 86.894 24.7313 86.8123 24.7313H86.6723C86.6022 24.7313 86.5526 24.713 86.5234 24.6763C86.4943 24.6335 86.4797 24.5846 86.4797 24.5295C86.4797 24.444 86.5089 24.3369 86.5672 24.2084C86.6314 24.08 86.7277 23.9546 86.856 23.8323C86.9844 23.7039 87.1507 23.5969 87.3549 23.5112C87.5591 23.4256 87.8071 23.3828 88.0989 23.3828C88.4431 23.3828 88.7261 23.4318 88.9478 23.5295C89.1753 23.6274 89.3504 23.7558 89.473 23.9149C89.6013 24.0678 89.6916 24.2391 89.7444 24.4286C89.7964 24.6182 89.8233 24.8048 89.8233 24.9882V28.0431C89.8233 28.1042 89.8054 28.1532 89.7704 28.1899C89.7355 28.2265 89.6889 28.2449 89.6306 28.2449H89.4817C89.4233 28.2449 89.3766 28.2265 89.3417 28.1899C89.3066 28.1532 89.2892 28.1042 89.2892 28.0431V27.6119C89.2192 27.722 89.12 27.8321 88.9915 27.9422C88.8632 28.0523 88.6969 28.147 88.4927 28.2265C88.2944 28.3 88.0434 28.3366 87.74 28.3366ZM87.8275 27.8045C88.0959 27.8045 88.341 27.7434 88.5627 27.6211C88.7844 27.4988 88.9594 27.3122 89.0879 27.0615C89.222 26.8046 89.2892 26.4836 89.2892 26.0982V25.7863L88.1601 25.9515C87.6817 26.0188 87.3199 26.135 87.0749 26.3001C86.8297 26.4652 86.7072 26.6731 86.7072 26.9239C86.7072 27.1257 86.7627 27.2908 86.8736 27.4193C86.9844 27.5477 87.1244 27.6455 87.2936 27.7129C87.4687 27.774 87.6466 27.8045 87.8275 27.8045Z" fill="white"/>
<path d="M92.6958 28.2439C92.3928 28.2439 92.1535 28.1766 91.9779 28.042C91.8031 27.9075 91.6803 27.724 91.6104 27.4916C91.5405 27.2592 91.5056 26.9992 91.5056 26.7118V24.0056H90.8226C90.7644 24.0056 90.7178 23.9872 90.6828 23.9505C90.6479 23.9138 90.6309 23.8649 90.6309 23.8037V23.6753C90.6309 23.6141 90.6479 23.5652 90.6828 23.5285C90.7178 23.4918 90.7644 23.4735 90.8226 23.4735H91.5056V21.9323C91.5056 21.8711 91.5235 21.8222 91.5585 21.7855C91.5934 21.7488 91.64 21.7305 91.6983 21.7305H91.847C91.9053 21.7305 91.9519 21.7488 91.9869 21.7855C92.0218 21.8222 92.0397 21.8711 92.0397 21.9323V23.4735H93.1251C93.1833 23.4735 93.2299 23.4918 93.2649 23.5285C93.2998 23.5652 93.3178 23.6141 93.3178 23.6753V23.8037C93.3178 23.8649 93.2998 23.9138 93.2649 23.9505C93.2299 23.9872 93.1833 24.0056 93.1251 24.0056H92.0397V26.6751C92.0397 26.9992 92.089 27.2531 92.1885 27.4365C92.2934 27.62 92.4771 27.7118 92.7397 27.7118H93.212C93.2711 27.7118 93.3178 27.7301 93.3527 27.7668C93.3877 27.8035 93.4047 27.8524 93.4047 27.9136V28.042C93.4047 28.1031 93.3877 28.1521 93.3527 28.1888C93.3178 28.2254 93.2711 28.2439 93.212 28.2439H92.6958Z" fill="white"/>
</g>
<defs>
<clipPath id="clip0_1505_2568">
<rect width="95" height="31" fill="white"/>
</clipPath>
</defs>
</svg>
