<svg width="40" height="40" viewBox="0 0 40 40" fill="none" xmlns="http://www.w3.org/2000/svg">
<path d="M34.2065 8.55716C33.0796 6.599 30.9677 5.41862 28.7097 5.48509C25.7419 5.48509 23.2775 7.33898 22.7741 9.77976C22.7413 9.77976 22.7098 9.77535 22.6755 9.77535C20.1292 9.77535 18.0645 11.559 18.0645 13.7591C18.0645 15.8559 19.9414 17.5708 22.3226 17.7274V17.7432H34.387V17.7274C37.1614 17.5689 39.3548 15.5818 39.3548 13.147C39.3548 10.6583 37.0646 8.63718 34.2065 8.55716Z" fill="#FF808D"/>
<path d="M0.645172 29.9208C0.645172 32.3562 2.83866 34.3433 5.61304 34.5012V34.5176H17.6774V34.5018C20.0586 34.3452 21.9355 32.6309 21.9355 30.5335C21.9355 28.3334 19.8709 26.5498 17.3227 26.5498C17.2889 26.5498 17.2581 26.5535 17.2237 26.5542C16.7225 24.1134 14.2581 22.2595 11.2903 22.2595C9.03227 22.193 6.92037 23.3734 5.79355 25.3316C2.93537 25.4116 0.645172 27.4328 0.645172 29.9208Z" fill="#FF808D"/>
<path d="M34.5942 7.93254C33.2938 5.95957 31.072 4.79211 28.7097 4.8403C25.6773 4.8403 23.0588 6.62143 22.2741 9.14411C19.5646 9.32587 17.4193 11.3266 17.4193 13.7595C17.4193 16.1227 19.4774 18.1187 22.133 18.36C22.1944 18.3789 22.2584 18.3884 22.3226 18.3887H34.387C34.4471 18.3887 34.507 18.3799 34.5646 18.3622C37.6238 18.1241 40 15.8569 40 13.1468C40 10.4117 37.6534 8.18078 34.5942 7.93254ZM34.3504 17.0839C34.3161 17.0858 34.2817 17.0905 34.2483 17.0984H22.4625C22.4304 17.0908 22.3976 17.0861 22.3645 17.0839C20.3147 16.949 18.7097 15.4886 18.7097 13.7595C18.7097 11.9188 20.4883 10.4215 22.689 10.4215C22.7025 10.4215 22.7611 10.4253 22.7741 10.4253C23.0806 10.425 23.3446 10.2095 23.4057 9.90929C23.8574 7.72022 26.0878 6.13063 28.7097 6.13063C30.7267 6.06794 32.6165 7.1138 33.6347 8.85618C33.7431 9.06315 33.9548 9.19546 34.1885 9.20207C36.7238 9.27358 38.7097 11.0084 38.7097 13.1468C38.7097 15.2149 36.795 16.944 34.3504 17.0839Z" fill="#404040"/>
<path d="M17.7259 25.9185C16.9412 23.3958 14.3227 21.6147 11.2903 21.6147C8.92799 21.5665 6.70615 22.734 5.40575 24.707C2.34659 24.9552 0 27.1862 0 29.9212C0 32.6307 2.37368 34.896 5.42969 35.1367C5.48923 35.1543 5.55097 35.1631 5.61303 35.1631H17.6774C17.74 35.1631 17.8021 35.1537 17.862 35.1351C20.5195 34.896 22.5806 32.8991 22.5806 30.5339C22.5806 28.101 20.4376 26.1003 17.7259 25.9185ZM17.6355 33.8583C17.603 33.8605 17.5709 33.8652 17.5394 33.8728H5.75353C5.71951 33.8649 5.68454 33.8602 5.64957 33.8583C3.20501 33.7184 1.29032 31.9893 1.29032 29.9212C1.29032 27.7803 3.27621 26.0502 5.81149 25.9765C6.04524 25.9699 6.25693 25.8376 6.3653 25.6306C7.38344 23.8882 9.27325 22.8424 11.2903 22.905C13.9122 22.905 16.1426 24.4946 16.5921 26.6843C16.6535 26.9846 16.9175 27.2 17.2237 27.2003H17.2366L17.3226 27.1959C19.5105 27.1959 21.2903 28.6939 21.2903 30.5345C21.2903 32.263 19.6853 33.7235 17.6355 33.8583Z" fill="#404040"/>
<path d="M36.129 20.3242H32.9032C32.5469 20.3242 32.258 20.6128 32.258 20.9694V21.2822C32.2697 22.3388 32.2924 24.3067 31.2575 25.3532C30.8291 25.77 30.2722 26.0295 29.6774 26.0891V24.8403C29.6771 24.5883 29.5306 24.3599 29.3019 24.2547C29.0732 24.1495 28.8042 24.187 28.613 24.3505L24.0968 28.2215C23.9538 28.344 23.8716 28.5229 23.8716 28.7113C23.8716 28.8994 23.9538 29.0783 24.0968 29.2008L28.613 33.0718C28.8042 33.2353 29.0732 33.2728 29.3019 33.1676C29.5306 33.0624 29.6771 32.834 29.6774 32.5823V31.2828C32.0038 31.1984 36.7742 30.3091 36.7742 20.9694C36.7742 20.6128 36.4853 20.3242 36.129 20.3242ZM29.0322 30.0016C28.676 30.0016 28.3871 30.2902 28.3871 30.6468V31.1795L25.5072 28.7113L28.3871 26.2428V26.7758C28.3871 27.1321 28.676 27.421 29.0322 27.421C30.1959 27.4821 31.3335 27.0622 32.178 26.2595C33.4684 24.9538 33.5588 22.9049 33.554 21.6145H35.4776C35.396 25.6525 34.46 30.0016 29.0322 30.0016Z" fill="#404040"/>
<path d="M3.87096 20.9691H7.09677C7.45306 20.9691 7.74193 20.6803 7.74193 20.324V20.0109C7.73027 18.9543 7.70759 16.9863 8.74243 15.9398C9.17086 15.5231 9.72782 15.2635 10.3226 15.204V16.453C10.3229 16.7047 10.4694 16.9331 10.6981 17.0383C10.9268 17.1435 11.1958 17.1061 11.387 16.9426L15.9032 13.0716C16.0462 12.949 16.1284 12.7701 16.1284 12.582C16.1284 12.3937 16.0462 12.2147 15.9032 12.0922L11.387 8.22122C11.1958 8.05772 10.9268 8.02024 10.6981 8.12545C10.4694 8.23067 10.3229 8.45906 10.3226 8.71108V10.0102C7.99615 10.0946 3.2258 10.9839 3.2258 20.324C3.2258 20.6803 3.51467 20.9691 3.87096 20.9691ZM10.9677 11.2917C11.324 11.2917 11.6129 11.0028 11.6129 10.6466V10.1135L14.4928 12.582L11.6129 15.0502V14.5175C11.6129 14.1609 11.324 13.8724 10.9677 13.8724C9.80405 13.8109 8.66651 14.2309 7.82194 15.0335C6.53162 16.3393 6.44121 18.3885 6.44594 19.6788H4.52242C4.60401 15.6406 5.53994 11.2917 10.9677 11.2917Z" fill="#404040"/>
</svg>
