<svg width="24" height="24" viewBox="0 0 24 24" fill="none" xmlns="http://www.w3.org/2000/svg">
<path fill-rule="evenodd" clip-rule="evenodd" d="M23 11.75C23 5.817 18.183 1 12.25 1C6.317 0.999999 1.5 5.817 1.5 11.75C1.5 17.683 6.317 22.5 12.25 22.5C18.183 22.5 23 17.683 23 11.75ZM21.5 11.75C21.5 16.855 17.355 21 12.25 21C7.145 21 3 16.855 3 11.75C3 6.645 7.145 2.5 12.25 2.5C17.355 2.5 21.5 6.645 21.5 11.75Z" fill="#80A0FF"/>
<path fill-rule="evenodd" clip-rule="evenodd" d="M16.8015 11.1621L7.94853 11.1621C7.42494 11.1621 7 11.5871 7 12.1106C7 12.6342 7.42494 13.0592 7.94853 13.0592L16.8015 13.0592C17.3251 13.0592 17.75 12.6342 17.75 12.1106C17.75 11.5871 17.3251 11.1621 16.8015 11.1621Z" fill="#80A0FF"/>
<path fill-rule="evenodd" clip-rule="evenodd" d="M7.27833 12.7806L10.4401 15.9424C10.8094 16.3129 11.4114 16.3129 11.7807 15.9424C12.1512 15.5731 12.1512 14.9711 11.7807 14.6018L8.61892 11.44C8.24962 11.0695 7.64763 11.0695 7.27833 11.44C6.90777 11.8093 6.90777 12.4113 7.27833 12.7806Z" fill="#80A0FF"/>
<path fill-rule="evenodd" clip-rule="evenodd" d="M8.61892 12.7803L11.7807 9.61851C12.1512 9.24921 12.1512 8.64721 11.7807 8.27792C11.4114 7.90736 10.8094 7.90736 10.4401 8.27792L7.27833 11.4397C6.90777 11.809 6.90777 12.411 7.27833 12.7803C7.64763 13.1508 8.24962 13.1508 8.61892 12.7803Z" fill="#80A0FF"/>
</svg>
