<svg width="24" height="24" viewBox="0 0 24 24" fill="none" xmlns="http://www.w3.org/2000/svg">
<g clip-path="url(#clip0_484_7604)">
<path d="M22.5 6H1.5C0.673 6 0 5.327 0 4.5V1.5C0 0.673 0.673 0 1.5 0H22.5C23.327 0 24 0.673 24 1.5V4.5C24 5.327 23.327 6 22.5 6ZM1.5 1C1.224 1 1 1.224 1 1.5V4.5C1 4.776 1.224 5 1.5 5H22.5C22.776 5 23 4.776 23 4.5V1.5C23 1.224 22.776 1 22.5 1H1.5Z" fill="white"/>
<path d="M9.5 24H1.5C0.673 24 0 23.327 0 22.5V9.5C0 8.673 0.673 8 1.5 8H9.5C10.327 8 11 8.673 11 9.5V22.5C11 23.327 10.327 24 9.5 24ZM1.5 9C1.224 9 1 9.224 1 9.5V22.5C1 22.776 1.224 23 1.5 23H9.5C9.776 23 10 22.776 10 22.5V9.5C10 9.224 9.776 9 9.5 9H1.5Z" fill="white"/>
<path d="M22.5 15H14.5C13.673 15 13 14.327 13 13.5V9.5C13 8.673 13.673 8 14.5 8H22.5C23.327 8 24 8.673 24 9.5V13.5C24 14.327 23.327 15 22.5 15ZM14.5 9C14.224 9 14 9.224 14 9.5V13.5C14 13.776 14.224 14 14.5 14H22.5C22.776 14 23 13.776 23 13.5V9.5C23 9.224 22.776 9 22.5 9H14.5Z" fill="white"/>
<path d="M22.5 24H14.5C13.673 24 13 23.327 13 22.5V18.5C13 17.673 13.673 17 14.5 17H22.5C23.327 17 24 17.673 24 18.5V22.5C24 23.327 23.327 24 22.5 24ZM14.5 18C14.224 18 14 18.224 14 18.5V22.5C14 22.776 14.224 23 14.5 23H22.5C22.776 23 23 22.776 23 22.5V18.5C23 18.224 22.776 18 22.5 18H14.5Z" fill="white"/>
</g>
<defs>
<clipPath id="clip0_484_7604">
<rect width="24" height="24" fill="white"/>
</clipPath>
</defs>
</svg>
