<svg width="24" height="24" viewBox="0 0 24 24" fill="none" xmlns="http://www.w3.org/2000/svg">
<path fill-rule="evenodd" clip-rule="evenodd" d="M12 1.25C6.067 1.25 1.25 6.067 1.25 12C1.25 17.933 6.067 22.75 12 22.75C17.933 22.75 22.75 17.933 22.75 12C22.75 6.067 17.933 1.25 12 1.25ZM12 2.75C17.105 2.75 21.25 6.895 21.25 12C21.25 17.105 17.105 21.25 12 21.25C6.895 21.25 2.75 17.105 2.75 12C2.75 6.895 6.895 2.75 12 2.75Z" fill="#404040"/>
<path fill-rule="evenodd" clip-rule="evenodd" d="M11.25 7V14C11.25 14.414 11.586 14.75 12 14.75C12.414 14.75 12.75 14.414 12.75 14V7C12.75 6.586 12.414 6.25 12 6.25C11.586 6.25 11.25 6.586 11.25 7Z" fill="#FF808D"/>
<path fill-rule="evenodd" clip-rule="evenodd" d="M12.53 14.5297L15.03 12.0297C15.323 11.7377 15.323 11.2617 15.03 10.9697C14.738 10.6768 14.262 10.6768 13.97 10.9697L11.47 13.4697C11.177 13.7617 11.177 14.2377 11.47 14.5297C11.762 14.8227 12.238 14.8227 12.53 14.5297Z" fill="#FF808D"/>
<path fill-rule="evenodd" clip-rule="evenodd" d="M12.53 13.4697L10.03 10.9697C9.73799 10.6768 9.26199 10.6768 8.96999 10.9697C8.67699 11.2617 8.67699 11.7377 8.96999 12.0297L11.47 14.5297C11.762 14.8227 12.238 14.8227 12.53 14.5297C12.823 14.2377 12.823 13.7617 12.53 13.4697Z" fill="#FF808D"/>
<path fill-rule="evenodd" clip-rule="evenodd" d="M9.5 17.75H14.5C14.914 17.75 15.25 17.414 15.25 17C15.25 16.586 14.914 16.25 14.5 16.25H9.5C9.086 16.25 8.75 16.586 8.75 17C8.75 17.414 9.086 17.75 9.5 17.75Z" fill="#FF808D"/>
</svg>
