<svg width="24" height="24" viewBox="0 0 24 24" fill="none" xmlns="http://www.w3.org/2000/svg">
<path fill-rule="evenodd" clip-rule="evenodd" d="M12 2.25H7C5.74 2.25 4.532 2.75 3.641 3.641C2.75 4.532 2.25 5.74 2.25 7V17C2.25 18.26 2.75 19.468 3.641 20.359C4.532 21.25 5.74 21.75 7 21.75H17C18.26 21.75 19.468 21.25 20.359 20.359C21.25 19.468 21.75 18.26 21.75 17V12C21.75 11.586 21.414 11.25 21 11.25C20.586 11.25 20.25 11.586 20.25 12V17C20.25 17.862 19.908 18.689 19.298 19.298C18.689 19.908 17.862 20.25 17 20.25H7C6.138 20.25 5.311 19.908 4.702 19.298C4.092 18.689 3.75 17.862 3.75 17V7C3.75 6.138 4.092 5.311 4.702 4.702C5.311 4.092 6.138 3.75 7 3.75H12C12.414 3.75 12.75 3.414 12.75 3C12.75 2.586 12.414 2.25 12 2.25Z" fill="#555555"/>
<path fill-rule="evenodd" clip-rule="evenodd" d="M17.3481 2.763C15.4581 4.653 10.4291 9.682 10.4291 9.682C10.3311 9.78 10.2621 9.904 10.2301 10.04L9.35611 13.742C9.29611 13.995 9.37211 14.261 9.55511 14.445C9.73911 14.628 10.0051 14.704 10.2581 14.644L13.9601 13.77C14.0961 13.738 14.2201 13.669 14.3181 13.571C14.3181 13.571 19.3471 8.542 21.2371 6.652C21.9211 5.968 21.9211 4.86 21.2371 4.177L19.8231 2.763C19.1401 2.079 18.0321 2.079 17.3481 2.763ZM18.4091 3.823C18.5071 3.726 18.6651 3.726 18.7631 3.823L20.1771 5.237C20.2741 5.335 20.2741 5.493 20.1771 5.591L13.4081 12.36L11.0941 12.906L11.6401 10.592L18.4091 3.823Z" fill="#555555"/>
<path fill-rule="evenodd" clip-rule="evenodd" d="M19.8231 7.00478L16.9951 4.17678C16.7021 3.88378 16.2271 3.88378 15.9341 4.17678C15.6411 4.46878 15.6411 4.94478 15.9341 5.23678L18.7631 8.06578C19.0551 8.35878 19.5311 8.35878 19.8231 8.06578C20.1161 7.77278 20.1161 7.29778 19.8231 7.00478Z" fill="#555555"/>
</svg>
