<svg width="24" height="24" viewBox="0 0 24 24" fill="none" xmlns="http://www.w3.org/2000/svg">
<path fill-rule="evenodd" clip-rule="evenodd" d="M12 2.25H7C5.74 2.25 4.532 2.75 3.641 3.641C2.75 4.532 2.25 5.74 2.25 7V17C2.25 18.26 2.75 19.468 3.641 20.359C4.532 21.25 5.74 21.75 7 21.75H17C18.26 21.75 19.468 21.25 20.359 20.359C21.25 19.468 21.75 18.26 21.75 17V12C21.75 11.586 21.414 11.25 21 11.25C20.586 11.25 20.25 11.586 20.25 12V17C20.25 17.862 19.908 18.689 19.298 19.298C18.689 19.908 17.862 20.25 17 20.25H7C6.138 20.25 5.311 19.908 4.702 19.298C4.092 18.689 3.75 17.862 3.75 17V7C3.75 6.138 4.092 5.311 4.702 4.702C5.311 4.092 6.138 3.75 7 3.75H12C12.414 3.75 12.75 3.414 12.75 3C12.75 2.586 12.414 2.25 12 2.25Z" fill="#FF808D"/>
<path fill-rule="evenodd" clip-rule="evenodd" d="M17.348 2.763C15.458 4.653 10.429 9.682 10.429 9.682C10.331 9.78 10.262 9.904 10.23 10.04L9.35599 13.742C9.29599 13.995 9.37199 14.261 9.55499 14.445C9.73899 14.628 10.005 14.704 10.258 14.644L13.96 13.77C14.096 13.738 14.22 13.669 14.318 13.571C14.318 13.571 19.347 8.542 21.237 6.652C21.921 5.968 21.921 4.86 21.237 4.177L19.823 2.763C19.14 2.079 18.032 2.079 17.348 2.763ZM18.409 3.823C18.507 3.726 18.665 3.726 18.763 3.823L20.177 5.237C20.274 5.335 20.274 5.493 20.177 5.591L13.408 12.36L11.094 12.906L11.64 10.592L18.409 3.823Z" fill="#FF808D"/>
<path fill-rule="evenodd" clip-rule="evenodd" d="M19.823 7.00478L16.995 4.17678C16.702 3.88378 16.227 3.88378 15.934 4.17678C15.641 4.46878 15.641 4.94478 15.934 5.23678L18.763 8.06578C19.055 8.35878 19.531 8.35878 19.823 8.06578C20.116 7.77278 20.116 7.29778 19.823 7.00478Z" fill="#FF808D"/>
</svg>
