<svg width="24" height="24" viewBox="0 0 24 24" fill="none" xmlns="http://www.w3.org/2000/svg">
<g clip-path="url(#clip0_484_7616)">
<path d="M21.5 24H2.5C1.122 24 0 22.6297 0 20.9466V5.06901C0 3.38599 1.122 2.01562 2.5 2.01562H8.5C8.776 2.01562 9 2.28921 9 2.6263C9 2.9634 8.776 3.23698 8.5 3.23698H2.5C1.673 3.23698 1 4.05895 1 5.06901V20.9466C1 21.9567 1.673 22.7787 2.5 22.7787H21.5C22.327 22.7787 23 21.9567 23 20.9466V5.06901C23 4.05895 22.327 3.23698 21.5 3.23698H15.5C15.224 3.23698 15 2.9634 15 2.6263C15 2.28921 15.224 2.01562 15.5 2.01562H21.5C22.878 2.01562 24 3.38599 24 5.06901V20.9466C24 22.6297 22.878 24 21.5 24Z" fill="white"/>
<path d="M7.5 13C6.122 13 5 11.878 5 10.5C5 9.122 6.122 8 7.5 8C8.878 8 10 9.122 10 10.5C10 11.878 8.878 13 7.5 13ZM7.5 9C6.673 9 6 9.673 6 10.5C6 11.327 6.673 12 7.5 12C8.327 12 9 11.327 9 10.5C9 9.673 8.327 9 7.5 9Z" fill="white"/>
<path d="M11.5 19C11.224 19 11 18.72 11 18.375V17.125C11 16.0912 10.327 15 9.5 15H5.5C4.673 15 4 16.0912 4 17.125V18.375C4 18.72 3.776 19 3.5 19C3.224 19 3 18.72 3 18.375V17.125C3 15.4025 4.122 14 5.5 14H9.5C10.878 14 12 15.4025 12 17.125V18.375C12 18.72 11.776 19 11.5 19Z" fill="white"/>
<path d="M20.5 9.99999H14.5C14.224 9.99999 14 9.77599 14 9.5C14 9.224 14.224 9 14.5 9H20.5C20.776 9 21 9.224 21 9.5C21 9.77599 20.776 9.99999 20.5 9.99999Z" fill="white"/>
<path d="M20.5 13.8125H14.5C14.224 13.8125 14 13.5885 14 13.3125C14 13.0365 14.224 12.8125 14.5 12.8125H20.5C20.776 12.8125 21 13.0365 21 13.3125C21 13.5885 20.776 13.8125 20.5 13.8125Z" fill="white"/>
<path d="M20.5 17.625H14.5C14.224 17.625 14 17.401 14 17.125C14 16.849 14.224 16.625 14.5 16.625H20.5C20.776 16.625 21 16.849 21 17.125C21 17.401 20.776 17.625 20.5 17.625Z" fill="white"/>
<path d="M14.5 5H9.5C8.673 5 8 4.327 8 3.5V1.5C8 0.673 8.673 0 9.5 0H14.5C15.327 0 16 0.673 16 1.5V3.5C16 4.327 15.327 5 14.5 5ZM9.5 1C9.224 1 9 1.224 9 1.5V3.5C9 3.776 9.224 4 9.5 4H14.5C14.776 4 15 3.776 15 3.5V1.5C15 1.224 14.776 1 14.5 1H9.5Z" fill="white"/>
</g>
<defs>
<clipPath id="clip0_484_7616">
<rect width="24" height="24" fill="white"/>
</clipPath>
</defs>
</svg>
