<svg width="36" height="36" viewBox="0 0 36 36" fill="none" xmlns="http://www.w3.org/2000/svg">
<path d="M7.54834 35.42H28.4516V22.6458C28.4516 17.515 24.2921 13.3555 19.1612 13.3555H16.8387C11.7078 13.3555 7.54834 17.515 7.54834 22.6458V35.42ZM15.0967 17.42L18 15.0974L20.9032 17.42L19.1612 19.7426L21.4838 21.4845L18 33.6781L14.5161 21.4845L16.8387 19.7426L15.0967 17.42Z" fill="#FF808D"/>
<path d="M24.3871 6.3871C24.3871 2.85956 21.5275 0 18 0C14.4725 0 11.6129 2.85956 11.6129 6.3871C11.6129 9.91463 14.4725 12.7742 18 12.7742C21.5258 12.7699 24.3829 9.91293 24.3871 6.3871ZM18 11.6129C15.1138 11.6129 12.7742 9.27331 12.7742 6.3871C12.7742 3.50088 15.1138 1.16129 18 1.16129C20.8862 1.16129 23.2258 3.50088 23.2258 6.3871C23.2227 9.27189 20.8848 11.6098 18 11.6129Z" fill="#404040"/>
<path d="M19.1613 12.7734H16.8387C11.3898 12.7794 6.97373 17.1955 6.96777 22.6444V35.4186C6.96777 35.7393 7.22776 35.9992 7.54842 35.9992H28.4516C28.7723 35.9992 29.0323 35.7393 29.0323 35.4186V22.6444C29.0263 17.1955 24.6103 12.7794 19.1613 12.7734ZM27.871 34.838H8.12906V22.6444C8.13445 17.8365 12.0308 13.9401 16.8387 13.9347H19.1613C23.9692 13.9401 27.8656 17.8365 27.871 22.6444V34.838Z" fill="#404040"/>
<path d="M19.9742 19.6255L21.3677 17.7676C21.5559 17.5167 21.5111 17.1617 21.2662 16.9658L18.3629 14.6432C18.1509 14.4731 17.8492 14.4731 17.6371 14.6432L14.7339 16.9658C14.4889 17.1617 14.4442 17.5167 14.6324 17.7676L16.0259 19.6255L14.1677 21.0192C13.9752 21.1633 13.8919 21.4114 13.9576 21.6427L17.4415 33.8363C17.5124 34.086 17.7403 34.2584 18 34.2584C18.2597 34.2584 18.4877 34.086 18.5586 33.8363L22.0424 21.6427C22.1082 21.4114 22.0249 21.1633 21.8324 21.0192L19.9742 19.6255ZM18 31.5636L15.1838 21.7085L17.1872 20.2061C17.4438 20.0139 17.4957 19.6499 17.3031 19.3933L15.8992 17.5212L18 15.8397L20.1009 17.5238L18.6969 19.3933C18.5044 19.6499 18.5563 20.0139 18.8129 20.2061L20.8162 21.7085L18 31.5636Z" fill="#404040"/>
</svg>
