<svg width="36" height="36" viewBox="0 0 36 36" fill="none" xmlns="http://www.w3.org/2000/svg">
<g clip-path="url(#clip0_2102_4284)">
<path d="M7.52868 22.1019L7.53803 22.1002V20.9258H0.579834V31.9395H7.53803V30.9248L7.52868 30.9231L7.53803 30.9248V22.1002L7.52868 22.1019Z" fill="#FF808D"/>
<path d="M22.0344 18.0253C26.1975 18.0253 29.5724 14.6504 29.5724 10.4873C29.5724 6.32413 26.1975 2.94922 22.0344 2.94922C17.8712 2.94922 14.4963 6.32413 14.4963 10.4873C14.4963 14.6504 17.8712 18.0253 22.0344 18.0253Z" fill="#FF808D"/>
<path d="M24.0032 8.66667H23.0824C23.0021 8.36325 22.8603 8.07959 22.6657 7.83333H24.0032C24.1137 7.83333 24.2197 7.78943 24.2979 7.71129C24.376 7.63315 24.4199 7.52717 24.4199 7.41667C24.4199 7.30616 24.376 7.20018 24.2979 7.12204C24.2197 7.0439 24.1137 7 24.0032 7H19.4199C19.3094 7 19.2034 7.0439 19.1253 7.12204C19.0471 7.20018 19.0032 7.30616 19.0032 7.41667C19.0032 7.52717 19.0471 7.63315 19.1253 7.71129C19.2034 7.78943 19.3094 7.83333 19.4199 7.83333H20.8782C21.1533 7.8343 21.4225 7.91306 21.6548 8.06051C21.887 8.20797 22.0728 8.41811 22.1907 8.66667H19.4199C19.3094 8.66667 19.2034 8.71057 19.1253 8.78871C19.0471 8.86685 19.0032 8.97283 19.0032 9.08333C19.0032 9.19384 19.0471 9.29982 19.1253 9.37796C19.2034 9.4561 19.3094 9.5 19.4199 9.5H22.3366C22.2866 9.84608 22.114 10.1627 21.8501 10.3921C21.5862 10.6216 21.2487 10.7486 20.8991 10.75H19.4199C19.4005 10.7481 19.381 10.7481 19.3616 10.75C19.3339 10.7457 19.3058 10.7457 19.2782 10.75C19.2498 10.7597 19.2231 10.7737 19.1991 10.7917L19.1491 10.8208C19.1262 10.8414 19.1066 10.8653 19.0907 10.8917C19.0768 10.9101 19.0642 10.9296 19.0532 10.95C19.0495 10.9749 19.0495 11.0001 19.0532 11.025C19.0235 11.0666 19.0062 11.1157 19.0032 11.1667C19.0013 11.1861 19.0013 11.2056 19.0032 11.225C18.9989 11.2526 18.9989 11.2807 19.0032 11.3083C19.0129 11.3367 19.027 11.3634 19.0449 11.3875C19.0449 11.3875 19.0449 11.4208 19.0741 11.4375L21.5741 14.3542C21.6459 14.4382 21.7481 14.4902 21.8583 14.4988C21.9685 14.5074 22.0776 14.4718 22.1616 14.4C22.2455 14.3282 22.2976 14.2259 22.3061 14.1157C22.3147 14.0056 22.2792 13.8965 22.2074 13.8125L20.3282 11.5833H20.8782C21.4516 11.5857 22.005 11.3731 22.4293 10.9874C22.8535 10.6017 23.1178 10.071 23.1699 9.5H24.0032C24.1137 9.5 24.2197 9.4561 24.2979 9.37796C24.376 9.29982 24.4199 9.19384 24.4199 9.08333C24.4199 8.97283 24.376 8.86685 24.2979 8.78871C24.2197 8.71057 24.1137 8.66667 24.0032 8.66667Z" fill="#404040"/>
<path d="M35.8528 24.5942C35.4691 23.4408 34.3896 22.6627 33.1738 22.6639H22.2622C21.9887 22.3017 21.6328 22.0104 21.2243 21.8133L17.9173 20.257C16.8723 19.7657 15.6928 19.6383 14.567 19.8951L8.11791 21.3736V20.9277C8.11791 20.6075 7.85828 20.3479 7.53806 20.3479H0.579851C0.25963 20.3479 0 20.6075 0 20.9277V31.9415C0 32.2617 0.25963 32.5213 0.579851 32.5213H7.53806C7.85828 32.5213 8.11791 32.2617 8.11791 31.9415V31.6167L19.483 33.6034C19.7781 33.6552 20.077 33.6813 20.3766 33.681C21.0649 33.6796 21.7464 33.5417 22.3812 33.275L34.3035 28.0716C35.6461 27.4923 36.3199 25.9799 35.8528 24.5942V24.5942ZM1.1597 31.3616V21.5076H6.95821V31.3616H1.1597ZM33.8394 27.0127L21.9265 32.211C21.2183 32.5069 20.44 32.5935 19.6841 32.461L8.11791 30.4397V22.5636L14.825 21.0251C15.6979 20.8275 16.6118 20.9263 17.4221 21.306L20.7274 22.8629C21.1688 23.0721 21.5001 23.4603 21.6377 23.9292C21.7792 24.4074 21.7104 24.9235 21.448 25.3479C20.9983 26.0843 20.0623 26.3578 19.2871 25.9796L15.2703 24.0079C14.9821 23.8669 14.6341 23.9861 14.4932 24.2743C14.3519 24.5625 14.4713 24.9105 14.7596 25.0518L18.7761 27.0232C20.0864 27.6673 21.6714 27.2075 22.4333 25.962C22.8251 25.3224 22.9542 24.5563 22.794 23.8236H33.1732C33.9617 23.8224 34.643 24.3754 34.8041 25.1472C34.9652 25.9193 34.562 26.6982 33.8389 27.0127H33.8394Z" fill="#404040"/>
<path d="M22.0344 18.603C26.5178 18.603 30.1523 14.9684 30.1523 10.4851C30.1523 6.00172 26.5178 2.36719 22.0344 2.36719C17.551 2.36719 13.9165 6.00172 13.9165 10.4851C13.9213 14.9665 17.553 18.5982 22.0344 18.603ZM22.0344 3.52689C25.8773 3.52689 28.9926 6.64216 28.9926 10.4851C28.9926 14.328 25.8773 17.4433 22.0344 17.4433C18.1915 17.4433 15.0762 14.328 15.0762 10.4851C15.0805 6.64386 18.1932 3.53113 22.0344 3.52689Z" fill="#404040"/>
</g>
<defs>
<clipPath id="clip0_2102_4284">
<rect width="36" height="36" fill="white"/>
</clipPath>
</defs>
</svg>
