<svg width="36" height="36" viewBox="0 0 36 36" fill="none" xmlns="http://www.w3.org/2000/svg">
<g clip-path="url(#clip0_2102_4302)">
<path d="M24.3557 18.0204C24.3566 21.1767 22.0489 23.859 18.928 24.3296L17.4258 23.622C16.6157 23.2406 15.7014 23.1407 14.8279 23.338L14.5496 23.4017C12.3022 21.9679 11.1834 19.2878 11.7444 16.6817C12.3056 14.0755 14.4281 12.0932 17.0665 11.7109L18.574 12.4185C19.3844 12.7999 20.2987 12.8999 21.1719 12.7028L21.4157 12.6448C23.2491 13.817 24.3577 15.8441 24.3557 18.0204V18.0204Z" fill="#FF808D"/>
<path d="M20.5 15.9167H19.5792C19.499 15.6132 19.3571 15.3296 19.1625 15.0833H20.5C20.6106 15.0833 20.7165 15.0394 20.7947 14.9613C20.8728 14.8832 20.9167 14.7772 20.9167 14.6667C20.9167 14.5562 20.8728 14.4502 20.7947 14.372C20.7165 14.2939 20.6106 14.25 20.5 14.25H15.9167C15.8062 14.25 15.7002 14.2939 15.6221 14.372C15.5439 14.4502 15.5001 14.5562 15.5001 14.6667C15.5001 14.7772 15.5439 14.8832 15.6221 14.9613C15.7002 15.0394 15.8062 15.0833 15.9167 15.0833H17.3751C17.6501 15.0843 17.9194 15.1631 18.1516 15.3105C18.3839 15.458 18.5697 15.6681 18.6875 15.9167H15.9167C15.8062 15.9167 15.7002 15.9606 15.6221 16.0387C15.5439 16.1168 15.5001 16.2228 15.5001 16.3333C15.5001 16.4438 15.5439 16.5498 15.6221 16.628C15.7002 16.7061 15.8062 16.75 15.9167 16.75H18.8334C18.7834 17.0961 18.6108 17.4127 18.3469 17.6421C18.0831 17.8716 17.7456 17.9986 17.3959 18H15.9167C15.8973 17.9981 15.8778 17.9981 15.8584 18C15.8308 17.9957 15.8027 17.9957 15.7751 18C15.7466 18.0097 15.7199 18.0237 15.6959 18.0417L15.6459 18.0708C15.6231 18.0914 15.6034 18.1153 15.5876 18.1417C15.5736 18.1601 15.5611 18.1796 15.5501 18.2C15.5463 18.2249 15.5463 18.2501 15.5501 18.275C15.5204 18.3166 15.503 18.3657 15.5001 18.4167C15.4981 18.4361 15.4981 18.4556 15.5001 18.475C15.4958 18.5026 15.4958 18.5307 15.5001 18.5583C15.5097 18.5867 15.5238 18.6134 15.5417 18.6375C15.5417 18.6375 15.5417 18.6708 15.5709 18.6875L18.0709 21.6042C18.1427 21.6882 18.245 21.7402 18.3551 21.7488C18.4653 21.7574 18.5744 21.7218 18.6584 21.65C18.7424 21.5782 18.7944 21.4759 18.803 21.3657C18.8116 21.2556 18.776 21.1465 18.7042 21.0625L16.8251 18.8333H17.3751C17.9484 18.8357 18.5018 18.6231 18.9261 18.2374C19.3503 17.8517 19.6146 17.321 19.6667 16.75H20.5C20.6106 16.75 20.7165 16.7061 20.7947 16.628C20.8728 16.5498 20.9167 16.4438 20.9167 16.3333C20.9167 16.2228 20.8728 16.1168 20.7947 16.0387C20.7165 15.9606 20.6106 15.9167 20.5 15.9167Z" fill="#404040"/>
<path d="M7.52938 24.422L7.53872 24.4203V23.2461H0.579956V34.2608H7.53872V33.2459L7.52938 33.2442L7.53872 33.2459V24.4203L7.52938 24.422Z" fill="#FF808D"/>
<path d="M28.462 2.79998L28.4714 2.80167L28.462 2.79998V11.6253L28.4714 11.6236L28.462 11.6253V12.7995H35.4208V1.78516H28.462V2.79998Z" fill="#FF808D"/>
<path d="M28.4614 13.3795H35.4201C35.7404 13.3795 36 13.1198 36 12.7996V1.7875C36 1.46726 35.7404 1.20761 35.4201 1.20761H28.4614C28.1411 1.20761 27.8815 1.46726 27.8815 1.7875V2.11228L16.5155 0.123133C15.5372 -0.0464757 14.5308 0.0682011 13.616 0.453572L1.69325 5.65537C0.468901 6.19081 -0.212648 7.51172 0.0608779 8.81988C0.334403 10.128 1.48768 11.0656 2.82417 11.0658H13.7377C13.9985 11.409 14.3335 11.6885 14.7177 11.8833C12.4508 13.0963 11.0308 15.4536 11.018 18.0246C11.0161 19.7224 11.6396 21.3616 12.7693 22.629L8.11856 23.6959V23.2493C8.11856 22.9291 7.85891 22.6694 7.53866 22.6694H0.579897C0.259651 22.6694 0 22.9291 0 23.2493V34.2617C0 34.582 0.259651 34.8416 0.579897 34.8416H7.53866C7.85891 34.8416 8.11856 34.582 8.11856 34.2617V33.9369L19.4846 35.9258C20.4629 36.0943 21.4686 35.9796 22.3841 35.5954L34.3068 30.3938C35.5311 29.8581 36.2124 28.5375 35.9392 27.229C35.6656 25.9209 34.5124 24.9836 33.1759 24.9834H22.2623C21.9998 24.632 21.6581 24.3477 21.2648 24.154C23.1387 23.1536 24.4508 21.3502 24.8263 19.2594C25.2017 17.1689 24.5986 15.0215 23.1902 13.4319L27.8815 12.3531V12.7996C27.8815 13.1198 28.1411 13.3795 28.4614 13.3795V13.3795ZM29.0413 2.3674H34.8403V12.2197H29.0413V2.3674ZM6.95876 33.6818H1.15979V23.8292H6.95876V33.6818ZM21.8679 13.7334C23.3859 15.1053 24.0669 17.1763 23.6597 19.1813C23.2525 21.1863 21.8175 22.8277 19.8847 23.4988L17.9188 22.5769C16.8736 22.0836 15.6929 21.957 14.5671 22.2172L14.0973 22.3214C12.8744 21.2282 12.1761 19.6649 12.1778 18.0246C12.1892 15.5493 13.7635 13.3515 16.1037 12.5445L18.0813 13.4724C18.7708 13.796 19.5231 13.9645 20.2848 13.9653C20.6713 13.9645 21.0567 13.9197 21.433 13.832L21.8679 13.7334ZM21.6417 26.2474C21.7869 26.7265 21.7173 27.2449 21.4505 27.6682C21.0012 28.4024 20.0679 28.676 19.2932 28.3002L15.2744 26.3286C14.9861 26.1876 14.6384 26.3071 14.4974 26.5954C14.3564 26.8836 14.4759 27.2316 14.7642 27.3723L18.7829 29.3383C20.092 29.9827 21.6762 29.5223 22.4362 28.277C22.8298 27.6399 22.9589 26.874 22.7958 26.1432H33.1759C33.9633 26.144 34.6423 26.6964 34.8034 27.4672C34.9646 28.2379 34.5639 29.016 33.8427 29.3326L21.9259 34.5284C21.2203 34.8289 20.4425 34.9175 19.6876 34.7836L8.11856 32.7596V24.8848L14.5495 23.4059L14.8279 23.3422C15.7014 23.1449 16.6157 23.2448 17.4258 23.6262L18.9279 24.3338L20.7313 25.1804C21.1728 25.3905 21.5038 25.7785 21.6417 26.2474V26.2474ZM21.4157 12.649L21.1719 12.707C20.2987 12.9041 19.3844 12.8041 18.574 12.4227L17.0665 11.7151L15.2687 10.8685C14.8273 10.6584 14.4963 10.2705 14.3581 9.80157C14.2188 9.32219 14.2885 8.80629 14.5495 8.38071C14.9989 7.6465 15.9322 7.37297 16.7069 7.74872L20.7257 9.72031C20.8638 9.78826 21.0235 9.79846 21.1694 9.74834C21.3152 9.69822 21.4352 9.59232 21.5026 9.45358C21.6419 9.16533 21.523 8.81847 21.2359 8.67661L17.2231 6.71068C15.9121 6.06651 14.3264 6.52635 13.5639 7.77193C13.1731 8.41016 13.0443 9.17495 13.2043 9.90605H2.82417C2.03672 9.90492 1.35772 9.35249 1.1966 8.58175C1.03549 7.81101 1.43615 7.03291 2.15734 6.71662L14.0741 1.52077C14.7803 1.2229 15.5573 1.13455 16.3124 1.26565L27.8815 3.28934V11.1644L21.4157 12.649Z" fill="#404040"/>
</g>
<defs>
<clipPath id="clip0_2102_4302">
<rect width="36" height="36" fill="white"/>
</clipPath>
</defs>
</svg>
