<svg width="24" height="24" viewBox="0 0 24 24" fill="none" xmlns="http://www.w3.org/2000/svg">
<path fill-rule="evenodd" clip-rule="evenodd" d="M20.3872 9.52283C18.1629 6.62672 15.1452 5 12 5C8.85388 5 5.83707 6.62672 3.61283 9.52283C2.76537 10.6263 2.20442 11.3579 2.20442 11.3579C1.93186 11.7128 1.93186 12.2869 2.20442 12.6418C2.20442 12.6418 2.7663 13.3734 3.61283 14.4769C8.24549 20.5077 15.7545 20.5077 20.3872 14.4769C21.2346 13.3734 21.7956 12.6418 21.7956 12.6418C22.0681 12.2869 22.0681 11.7128 21.7956 11.3579C21.7956 11.3579 21.2337 10.6263 20.3872 9.52283ZM19.4002 10.808L20.3155 11.9998L19.4002 13.1917C15.3136 18.514 8.68643 18.514 4.59983 13.1917L3.68446 11.9998L4.59983 10.808C6.56266 8.25222 9.22412 6.81688 12 6.81688C14.7759 6.81688 17.4373 8.25222 19.4002 10.808Z" fill="#555555"/>
<path fill-rule="evenodd" clip-rule="evenodd" d="M12 8C9.792 8 8 9.792 8 12C8 14.208 9.792 16 12 16C14.208 16 16 14.208 16 12C16 9.792 14.208 8 12 8ZM12 9.6C13.3248 9.6 14.4 10.6752 14.4 12C14.4 13.3248 13.3248 14.4 12 14.4C10.6752 14.4 9.6 13.3248 9.6 12C9.6 10.6752 10.6752 9.6 12 9.6Z" fill="#555555"/>
</svg>
