<svg width="152" height="173" viewBox="0 0 152 173" fill="none" xmlns="http://www.w3.org/2000/svg">
<path d="M15.54 113C15.4467 113 15.3673 112.972 15.302 112.916C15.246 112.851 15.218 112.771 15.218 112.678V103.536C15.218 103.433 15.246 103.354 15.302 103.298C15.3673 103.233 15.4467 103.2 15.54 103.2H18.718C20.1273 103.2 21.1447 103.517 21.77 104.152C22.3953 104.777 22.722 105.725 22.75 106.994C22.7593 107.265 22.764 107.629 22.764 108.086C22.764 108.543 22.7593 108.912 22.75 109.192C22.722 110.079 22.5727 110.802 22.302 111.362C22.0407 111.913 21.6253 112.323 21.056 112.594C20.4867 112.865 19.7307 113 18.788 113H15.54ZM18.718 111.81C19.362 111.81 19.8707 111.721 20.244 111.544C20.6267 111.367 20.902 111.087 21.07 110.704C21.2473 110.312 21.3453 109.789 21.364 109.136C21.3827 108.576 21.392 108.226 21.392 108.086C21.392 107.937 21.3827 107.591 21.364 107.05C21.3453 106.126 21.126 105.454 20.706 105.034C20.286 104.605 19.6 104.39 18.648 104.39H16.59V111.81H18.718ZM25.0103 113C24.917 113 24.8377 112.972 24.7723 112.916C24.7163 112.851 24.6883 112.771 24.6883 112.678V106.056C24.6883 105.963 24.7163 105.883 24.7723 105.818C24.8377 105.753 24.917 105.72 25.0103 105.72H25.6543C25.7477 105.72 25.827 105.753 25.8923 105.818C25.9577 105.883 25.9903 105.963 25.9903 106.056V106.672C26.373 106.037 27.0263 105.72 27.9503 105.72H28.4963C28.5897 105.72 28.6643 105.753 28.7203 105.818C28.7857 105.874 28.8183 105.949 28.8183 106.042V106.616C28.8183 106.709 28.7857 106.784 28.7203 106.84C28.6643 106.896 28.5897 106.924 28.4963 106.924H27.6563C27.1523 106.924 26.7557 107.073 26.4663 107.372C26.177 107.661 26.0323 108.058 26.0323 108.562V112.678C26.0323 112.771 25.9997 112.851 25.9343 112.916C25.869 112.972 25.7897 113 25.6963 113H25.0103ZM31.9273 113.14C31.47 113.14 31.0453 113.047 30.6533 112.86C30.2613 112.673 29.9487 112.421 29.7153 112.104C29.4913 111.777 29.3793 111.418 29.3793 111.026C29.3793 110.41 29.6313 109.906 30.1353 109.514C30.6487 109.113 31.3393 108.851 32.2073 108.73L34.2933 108.436V108.03C34.2933 107.078 33.7473 106.602 32.6553 106.602C32.2447 106.602 31.9087 106.691 31.6473 106.868C31.386 107.036 31.19 107.237 31.0593 107.47C31.0313 107.554 30.994 107.615 30.9473 107.652C30.91 107.689 30.854 107.708 30.7793 107.708H30.1773C30.0933 107.708 30.0187 107.68 29.9533 107.624C29.8973 107.559 29.8693 107.484 29.8693 107.4C29.8787 107.176 29.9813 106.924 30.1773 106.644C30.3827 106.355 30.6953 106.107 31.1153 105.902C31.5353 105.687 32.0533 105.58 32.6693 105.58C33.7147 105.58 34.466 105.827 34.9233 106.322C35.3807 106.807 35.6093 107.414 35.6093 108.142V112.678C35.6093 112.771 35.5767 112.851 35.5113 112.916C35.4553 112.972 35.3807 113 35.2873 113H34.6433C34.55 113 34.4707 112.972 34.4053 112.916C34.3493 112.851 34.3213 112.771 34.3213 112.678V112.076C34.116 112.375 33.8173 112.627 33.4253 112.832C33.0333 113.037 32.534 113.14 31.9273 113.14ZM32.2213 112.09C32.828 112.09 33.3227 111.894 33.7053 111.502C34.0973 111.101 34.2933 110.527 34.2933 109.78V109.388L32.6693 109.626C32.0067 109.719 31.5073 109.878 31.1713 110.102C30.8353 110.317 30.6673 110.592 30.6673 110.928C30.6673 111.301 30.8213 111.591 31.1293 111.796C31.4373 111.992 31.8013 112.09 32.2213 112.09ZM40.6039 116.08C39.8386 116.08 39.2226 115.949 38.7559 115.688C38.2893 115.436 37.9579 115.147 37.7619 114.82C37.5659 114.493 37.4586 114.199 37.4399 113.938C37.4306 113.845 37.4586 113.765 37.5239 113.7C37.5986 113.635 37.6779 113.602 37.7619 113.602H38.4339C38.5179 113.602 38.5879 113.621 38.6439 113.658C38.6999 113.705 38.7466 113.784 38.7839 113.896C38.8959 114.195 39.0779 114.451 39.3299 114.666C39.5913 114.89 39.9926 115.002 40.5339 115.002C41.2246 115.002 41.7333 114.853 42.0599 114.554C42.3866 114.265 42.5499 113.747 42.5499 113V112.048C42.3073 112.356 41.9993 112.603 41.6259 112.79C41.2526 112.967 40.8093 113.056 40.2959 113.056C39.3066 113.056 38.5646 112.743 38.0699 112.118C37.5846 111.483 37.3279 110.681 37.2999 109.71L37.2859 109.318L37.2999 108.94C37.3279 107.979 37.5893 107.181 38.0839 106.546C38.5786 105.902 39.3159 105.58 40.2959 105.58C41.2759 105.58 42.0413 105.939 42.5919 106.658V106.056C42.5919 105.963 42.6199 105.883 42.6759 105.818C42.7413 105.753 42.8206 105.72 42.9139 105.72H43.5579C43.6513 105.72 43.7306 105.753 43.7959 105.818C43.8613 105.883 43.8939 105.963 43.8939 106.056V112.846C43.8939 115.002 42.7973 116.08 40.6039 116.08ZM40.5759 111.936C41.2106 111.936 41.6913 111.726 42.0179 111.306C42.3446 110.886 42.5219 110.387 42.5499 109.808C42.5593 109.724 42.5639 109.561 42.5639 109.318C42.5639 109.085 42.5593 108.926 42.5499 108.842C42.5219 108.263 42.3446 107.764 42.0179 107.344C41.7006 106.924 41.2199 106.714 40.5759 106.714C39.9133 106.714 39.4326 106.919 39.1339 107.33C38.8353 107.741 38.6719 108.282 38.6439 108.954L38.6299 109.318L38.6439 109.696C38.6719 110.359 38.8353 110.9 39.1339 111.32C39.4326 111.731 39.9133 111.936 40.5759 111.936ZM52.3891 113.14C51.7544 113.14 51.1898 113.023 50.6951 112.79C50.2098 112.557 49.8318 112.23 49.5611 111.81C49.2904 111.39 49.1551 110.914 49.1551 110.382C49.1551 109.794 49.3278 109.295 49.6731 108.884C50.0184 108.464 50.5038 108.072 51.1291 107.708C50.6904 107.241 50.3778 106.835 50.1911 106.49C50.0138 106.135 49.9251 105.762 49.9251 105.37C49.9251 104.95 50.0324 104.567 50.2471 104.222C50.4618 103.867 50.7698 103.587 51.1711 103.382C51.5724 103.167 52.0298 103.06 52.5431 103.06C53.0471 103.06 53.4951 103.163 53.8871 103.368C54.2791 103.564 54.5824 103.839 54.7971 104.194C55.0118 104.539 55.1191 104.927 55.1191 105.356C55.1191 105.925 54.9371 106.401 54.5731 106.784C54.2091 107.167 53.6818 107.554 52.9911 107.946L55.3711 110.284C55.7444 109.659 55.9964 108.949 56.1271 108.156C56.1364 108.072 56.1644 108.007 56.2111 107.96C56.2671 107.904 56.3371 107.876 56.4211 107.876H57.0371C57.1211 107.876 57.1911 107.904 57.2471 107.96C57.3031 108.016 57.3311 108.086 57.3311 108.17C57.3218 108.581 57.2144 109.052 57.0091 109.584C56.8131 110.107 56.5424 110.611 56.1971 111.096L57.6251 112.524C57.7091 112.608 57.7511 112.678 57.7511 112.734C57.7511 112.911 57.6578 113 57.4711 113H56.6871C56.5098 113 56.3838 112.953 56.3091 112.86L55.3851 111.95C54.5731 112.743 53.5744 113.14 52.3891 113.14ZM52.2211 107.134C52.7811 106.826 53.2011 106.546 53.4811 106.294C53.7611 106.042 53.9011 105.734 53.9011 105.37C53.9011 105.006 53.7704 104.712 53.5091 104.488C53.2478 104.255 52.9258 104.138 52.5431 104.138C52.1698 104.138 51.8478 104.255 51.5771 104.488C51.3158 104.712 51.1851 105.011 51.1851 105.384C51.1851 105.636 51.2551 105.888 51.3951 106.14C51.5444 106.383 51.8198 106.714 52.2211 107.134ZM52.3891 112.02C52.7718 112.02 53.1498 111.941 53.5231 111.782C53.8964 111.623 54.2371 111.39 54.5451 111.082L51.9271 108.534C51.4511 108.805 51.0824 109.08 50.8211 109.36C50.5691 109.64 50.4431 109.971 50.4431 110.354C50.4431 110.867 50.6344 111.273 51.0171 111.572C51.3998 111.871 51.8571 112.02 52.3891 112.02ZM65.2194 113.14C64.2488 113.14 63.5161 112.823 63.0214 112.188C62.5268 111.553 62.2654 110.751 62.2374 109.78L62.2234 109.36L62.2374 108.94C62.2654 107.979 62.5268 107.181 63.0214 106.546C63.5161 105.902 64.2488 105.58 65.2194 105.58C66.1808 105.58 66.9368 105.921 67.4874 106.602V103.382C67.4874 103.289 67.5154 103.214 67.5714 103.158C67.6368 103.093 67.7161 103.06 67.8094 103.06H68.4814C68.5748 103.06 68.6494 103.093 68.7054 103.158C68.7708 103.214 68.8034 103.289 68.8034 103.382V112.678C68.8034 112.771 68.7708 112.851 68.7054 112.916C68.6494 112.972 68.5748 113 68.4814 113H67.8514C67.7581 113 67.6788 112.972 67.6134 112.916C67.5574 112.851 67.5294 112.771 67.5294 112.678V112.09C66.9881 112.79 66.2181 113.14 65.2194 113.14ZM65.5134 112.006C66.1574 112.006 66.6381 111.796 66.9554 111.376C67.2821 110.947 67.4594 110.438 67.4874 109.85C67.4968 109.747 67.5014 109.57 67.5014 109.318C67.5014 109.057 67.4968 108.875 67.4874 108.772C67.4688 108.221 67.2914 107.741 66.9554 107.33C66.6194 106.919 66.1388 106.714 65.5134 106.714C64.8508 106.714 64.3654 106.919 64.0574 107.33C63.7588 107.741 63.5954 108.282 63.5674 108.954L63.5534 109.36C63.5534 111.124 64.2068 112.006 65.5134 112.006ZM71.2076 113C71.1143 113 71.0349 112.972 70.9696 112.916C70.9136 112.851 70.8856 112.771 70.8856 112.678V106.056C70.8856 105.963 70.9136 105.883 70.9696 105.818C71.0349 105.753 71.1143 105.72 71.2076 105.72H71.8516C71.9449 105.72 72.0243 105.753 72.0896 105.818C72.1549 105.883 72.1876 105.963 72.1876 106.056V106.672C72.5703 106.037 73.2236 105.72 74.1476 105.72H74.6936C74.7869 105.72 74.8616 105.753 74.9176 105.818C74.9829 105.874 75.0156 105.949 75.0156 106.042V106.616C75.0156 106.709 74.9829 106.784 74.9176 106.84C74.8616 106.896 74.7869 106.924 74.6936 106.924H73.8536C73.3496 106.924 72.9529 107.073 72.6636 107.372C72.3743 107.661 72.2296 108.058 72.2296 108.562V112.678C72.2296 112.771 72.1969 112.851 72.1316 112.916C72.0663 112.972 71.9869 113 71.8936 113H71.2076ZM79.0493 113.14C78.0226 113.14 77.2246 112.851 76.6553 112.272C76.0953 111.693 75.7966 110.923 75.7593 109.962L75.7453 109.36L75.7593 108.758C75.7966 107.806 76.0999 107.041 76.6693 106.462C77.2386 105.874 78.0319 105.58 79.0493 105.58C80.0666 105.58 80.8599 105.874 81.4293 106.462C81.9986 107.041 82.3019 107.806 82.3393 108.758C82.3486 108.861 82.3533 109.061 82.3533 109.36C82.3533 109.659 82.3486 109.859 82.3393 109.962C82.3019 110.923 81.9986 111.693 81.4293 112.272C80.8693 112.851 80.0759 113.14 79.0493 113.14ZM79.0493 112.062C79.6373 112.062 80.0993 111.875 80.4353 111.502C80.7806 111.129 80.9673 110.592 80.9953 109.892C81.0046 109.799 81.0093 109.621 81.0093 109.36C81.0093 109.099 81.0046 108.921 80.9953 108.828C80.9673 108.128 80.7806 107.591 80.4353 107.218C80.0993 106.845 79.6373 106.658 79.0493 106.658C78.4613 106.658 77.9946 106.845 77.6493 107.218C77.3039 107.591 77.1219 108.128 77.1033 108.828L77.0892 109.36L77.1033 109.892C77.1219 110.592 77.3039 111.129 77.6493 111.502C77.9946 111.875 78.4613 112.062 79.0493 112.062ZM84.4423 115.66C84.349 115.66 84.2696 115.627 84.2043 115.562C84.1483 115.506 84.1203 115.431 84.1203 115.338V106.042C84.1203 105.949 84.1483 105.874 84.2043 105.818C84.2696 105.753 84.349 105.72 84.4423 105.72H85.0863C85.1796 105.72 85.2543 105.753 85.3103 105.818C85.3756 105.874 85.4083 105.949 85.4083 106.042V106.658C85.931 105.939 86.6963 105.58 87.7043 105.58C88.6843 105.58 89.417 105.888 89.9023 106.504C90.397 107.12 90.663 107.913 90.7003 108.884C90.7096 108.987 90.7143 109.145 90.7143 109.36C90.7143 109.575 90.7096 109.733 90.7003 109.836C90.663 110.797 90.397 111.591 89.9023 112.216C89.4076 112.832 88.675 113.14 87.7043 113.14C86.7336 113.14 85.9776 112.79 85.4363 112.09V115.338C85.4363 115.431 85.4083 115.506 85.3523 115.562C85.2963 115.627 85.2216 115.66 85.1283 115.66H84.4423ZM87.4103 112.006C88.073 112.006 88.5536 111.801 88.8523 111.39C89.1603 110.979 89.3283 110.438 89.3563 109.766C89.3656 109.673 89.3703 109.537 89.3703 109.36C89.3703 107.596 88.717 106.714 87.4103 106.714C86.7663 106.714 86.281 106.929 85.9543 107.358C85.637 107.778 85.4643 108.282 85.4363 108.87L85.4223 109.402L85.4363 109.948C85.455 110.499 85.6323 110.979 85.9683 111.39C86.3043 111.801 86.785 112.006 87.4103 112.006ZM96.668 113C96.5747 113 96.4954 112.972 96.43 112.916C96.374 112.851 96.346 112.771 96.346 112.678V106.84H95.156C95.0627 106.84 94.9834 106.812 94.918 106.756C94.862 106.691 94.834 106.611 94.834 106.518V106.042C94.834 105.949 94.862 105.874 94.918 105.818C94.9834 105.753 95.0627 105.72 95.156 105.72H96.346V105.02C96.346 103.433 97.1487 102.64 98.754 102.64H100.91C101.003 102.64 101.078 102.673 101.134 102.738C101.199 102.794 101.232 102.869 101.232 102.962V103.438C101.232 103.531 101.199 103.611 101.134 103.676C101.078 103.732 101.003 103.76 100.91 103.76H98.782C98.362 103.76 98.068 103.872 97.9 104.096C97.732 104.311 97.648 104.642 97.648 105.09V105.72H100.91C101.003 105.72 101.078 105.753 101.134 105.818C101.199 105.874 101.232 105.949 101.232 106.042V112.678C101.232 112.771 101.199 112.851 101.134 112.916C101.078 112.972 101.003 113 100.91 113H100.266C100.173 113 100.093 112.972 100.028 112.916C99.972 112.851 99.944 112.771 99.944 112.678V106.84H97.648V112.678C97.648 112.771 97.6154 112.851 97.55 112.916C97.494 112.972 97.4194 113 97.326 113H96.668ZM103.638 113C103.544 113 103.465 112.972 103.4 112.916C103.344 112.851 103.316 112.771 103.316 112.678V103.382C103.316 103.289 103.344 103.214 103.4 103.158C103.465 103.093 103.544 103.06 103.638 103.06H104.296C104.389 103.06 104.464 103.093 104.52 103.158C104.585 103.214 104.618 103.289 104.618 103.382V112.678C104.618 112.771 104.585 112.851 104.52 112.916C104.464 112.972 104.389 113 104.296 113H103.638ZM109.618 113.14C108.657 113.14 107.887 112.846 107.308 112.258C106.739 111.661 106.426 110.849 106.37 109.822L106.356 109.346L106.37 108.884C106.435 107.876 106.753 107.073 107.322 106.476C107.901 105.879 108.661 105.58 109.604 105.58C110.64 105.58 111.443 105.911 112.012 106.574C112.581 107.227 112.866 108.114 112.866 109.234V109.472C112.866 109.565 112.833 109.645 112.768 109.71C112.712 109.766 112.637 109.794 112.544 109.794H107.7V109.92C107.728 110.527 107.91 111.045 108.246 111.474C108.591 111.894 109.044 112.104 109.604 112.104C110.033 112.104 110.383 112.02 110.654 111.852C110.934 111.675 111.139 111.493 111.27 111.306C111.354 111.194 111.415 111.129 111.452 111.11C111.499 111.082 111.578 111.068 111.69 111.068H112.376C112.46 111.068 112.53 111.091 112.586 111.138C112.642 111.185 112.67 111.25 112.67 111.334C112.67 111.539 112.539 111.787 112.278 112.076C112.026 112.365 111.667 112.617 111.2 112.832C110.743 113.037 110.215 113.14 109.618 113.14ZM111.536 108.828V108.786C111.536 108.142 111.359 107.619 111.004 107.218C110.659 106.807 110.192 106.602 109.604 106.602C109.016 106.602 108.549 106.807 108.204 107.218C107.868 107.619 107.7 108.142 107.7 108.786V108.828H111.536ZM117.06 113.14C116.407 113.14 115.856 113.037 115.408 112.832C114.969 112.617 114.638 112.375 114.414 112.104C114.199 111.833 114.092 111.609 114.092 111.432C114.092 111.339 114.125 111.269 114.19 111.222C114.265 111.166 114.339 111.138 114.414 111.138H115.044C115.137 111.138 115.221 111.185 115.296 111.278C115.52 111.539 115.763 111.745 116.024 111.894C116.285 112.043 116.635 112.118 117.074 112.118C117.559 112.118 117.951 112.025 118.25 111.838C118.558 111.642 118.712 111.376 118.712 111.04C118.712 110.816 118.647 110.634 118.516 110.494C118.395 110.345 118.18 110.219 117.872 110.116C117.573 110.004 117.125 109.883 116.528 109.752C115.716 109.575 115.137 109.318 114.792 108.982C114.456 108.646 114.288 108.212 114.288 107.68C114.288 107.325 114.391 106.989 114.596 106.672C114.811 106.345 115.119 106.084 115.52 105.888C115.931 105.683 116.421 105.58 116.99 105.58C117.587 105.58 118.096 105.678 118.516 105.874C118.936 106.07 119.249 106.303 119.454 106.574C119.669 106.835 119.776 107.055 119.776 107.232C119.776 107.316 119.743 107.386 119.678 107.442C119.622 107.498 119.552 107.526 119.468 107.526H118.88C118.768 107.526 118.675 107.479 118.6 107.386C118.451 107.209 118.32 107.073 118.208 106.98C118.105 106.877 117.951 106.789 117.746 106.714C117.55 106.639 117.298 106.602 116.99 106.602C116.542 106.602 116.197 106.7 115.954 106.896C115.711 107.083 115.59 107.33 115.59 107.638C115.59 107.834 115.641 108.002 115.744 108.142C115.847 108.273 116.043 108.394 116.332 108.506C116.631 108.618 117.06 108.735 117.62 108.856C118.507 109.043 119.132 109.313 119.496 109.668C119.869 110.013 120.056 110.457 120.056 110.998C120.056 111.399 119.939 111.763 119.706 112.09C119.473 112.417 119.127 112.673 118.67 112.86C118.222 113.047 117.685 113.14 117.06 113.14ZM128.09 113.14C127.064 113.14 126.266 112.851 125.696 112.272C125.136 111.693 124.838 110.923 124.8 109.962L124.786 109.36L124.8 108.758C124.838 107.806 125.141 107.041 125.71 106.462C126.28 105.874 127.073 105.58 128.09 105.58C129.108 105.58 129.901 105.874 130.47 106.462C131.04 107.041 131.343 107.806 131.38 108.758C131.39 108.861 131.394 109.061 131.394 109.36C131.394 109.659 131.39 109.859 131.38 109.962C131.343 110.923 131.04 111.693 130.47 112.272C129.91 112.851 129.117 113.14 128.09 113.14ZM128.09 112.062C128.678 112.062 129.14 111.875 129.476 111.502C129.822 111.129 130.008 110.592 130.036 109.892C130.046 109.799 130.05 109.621 130.05 109.36C130.05 109.099 130.046 108.921 130.036 108.828C130.008 108.128 129.822 107.591 129.476 107.218C129.14 106.845 128.678 106.658 128.09 106.658C127.502 106.658 127.036 106.845 126.69 107.218C126.345 107.591 126.163 108.128 126.144 108.828L126.13 109.36L126.144 109.892C126.163 110.592 126.345 111.129 126.69 111.502C127.036 111.875 127.502 112.062 128.09 112.062ZM133.469 113C133.376 113 133.297 112.972 133.231 112.916C133.175 112.851 133.147 112.771 133.147 112.678V106.056C133.147 105.963 133.175 105.883 133.231 105.818C133.297 105.753 133.376 105.72 133.469 105.72H134.113C134.207 105.72 134.286 105.753 134.351 105.818C134.417 105.883 134.449 105.963 134.449 106.056V106.672C134.832 106.037 135.485 105.72 136.409 105.72H136.955C137.049 105.72 137.123 105.753 137.179 105.818C137.245 105.874 137.277 105.949 137.277 106.042V106.616C137.277 106.709 137.245 106.784 137.179 106.84C137.123 106.896 137.049 106.924 136.955 106.924H136.115C135.611 106.924 135.215 107.073 134.925 107.372C134.636 107.661 134.491 108.058 134.491 108.562V112.678C134.491 112.771 134.459 112.851 134.393 112.916C134.328 112.972 134.249 113 134.155 113H133.469Z" fill="#777777"/>
<rect x="0.5" y="133.5" width="151" height="39" rx="7.5" fill="white" stroke="#80A0FF"/>
<path d="M49.1038 159C48.9971 159 48.9064 158.968 48.8318 158.904C48.7678 158.829 48.7358 158.739 48.7358 158.632V148.184C48.7358 148.067 48.7678 147.976 48.8318 147.912C48.9064 147.837 48.9971 147.8 49.1038 147.8H53.4878C54.6291 147.8 55.4878 148.072 56.0638 148.616C56.6398 149.16 56.9278 149.875 56.9278 150.76C56.9278 151.357 56.7891 151.853 56.5118 152.248C56.2451 152.643 55.9251 152.931 55.5518 153.112C55.9998 153.336 56.3784 153.683 56.6878 154.152C56.9971 154.621 57.1518 155.16 57.1518 155.768C57.1518 156.365 57.0131 156.909 56.7358 157.4C56.4691 157.891 56.0691 158.28 55.5358 158.568C55.0024 158.856 54.3624 159 53.6158 159H49.1038ZM53.2478 152.536C53.9198 152.536 54.4318 152.381 54.7838 152.072C55.1464 151.763 55.3278 151.331 55.3278 150.776C55.3278 150.232 55.1518 149.816 54.7998 149.528C54.4478 149.24 53.9304 149.096 53.2478 149.096H50.3038V152.536H53.2478ZM53.4078 157.704C54.0798 157.704 54.6024 157.523 54.9758 157.16C55.3598 156.797 55.5518 156.333 55.5518 155.768C55.5518 155.181 55.3598 154.712 54.9758 154.36C54.6024 153.997 54.0798 153.816 53.4078 153.816H50.3038V157.704H53.4078ZM59.5833 159C59.4766 159 59.3859 158.968 59.3113 158.904C59.2473 158.829 59.2153 158.739 59.2153 158.632V151.064C59.2153 150.957 59.2473 150.867 59.3113 150.792C59.3859 150.717 59.4766 150.68 59.5833 150.68H60.3193C60.4259 150.68 60.5166 150.717 60.5913 150.792C60.6659 150.867 60.7033 150.957 60.7033 151.064V151.768C61.1406 151.043 61.8873 150.68 62.9433 150.68H63.5673C63.6739 150.68 63.7593 150.717 63.8233 150.792C63.8979 150.856 63.9353 150.941 63.9353 151.048V151.704C63.9353 151.811 63.8979 151.896 63.8233 151.96C63.7593 152.024 63.6739 152.056 63.5673 152.056H62.6073C62.0313 152.056 61.5779 152.227 61.2473 152.568C60.9166 152.899 60.7513 153.352 60.7513 153.928V158.632C60.7513 158.739 60.7139 158.829 60.6393 158.904C60.5646 158.968 60.4739 159 60.3673 159H59.5833ZM68.5451 159.16C67.3718 159.16 66.4598 158.829 65.8091 158.168C65.1691 157.507 64.8278 156.627 64.7851 155.528L64.7691 154.84L64.7851 154.152C64.8278 153.064 65.1745 152.189 65.8251 151.528C66.4758 150.856 67.3825 150.52 68.5451 150.52C69.7078 150.52 70.6145 150.856 71.2651 151.528C71.9158 152.189 72.2625 153.064 72.3051 154.152C72.3158 154.269 72.3211 154.499 72.3211 154.84C72.3211 155.181 72.3158 155.411 72.3051 155.528C72.2625 156.627 71.9158 157.507 71.2651 158.168C70.6251 158.829 69.7185 159.16 68.5451 159.16ZM68.5451 157.928C69.2171 157.928 69.7451 157.715 70.1291 157.288C70.5238 156.861 70.7371 156.248 70.7691 155.448C70.7798 155.341 70.7851 155.139 70.7851 154.84C70.7851 154.541 70.7798 154.339 70.7691 154.232C70.7371 153.432 70.5238 152.819 70.1291 152.392C69.7451 151.965 69.2171 151.752 68.5451 151.752C67.8731 151.752 67.3398 151.965 66.9451 152.392C66.5505 152.819 66.3425 153.432 66.3211 154.232L66.3051 154.84L66.3211 155.448C66.3425 156.248 66.5505 156.861 66.9451 157.288C67.3398 157.715 67.8731 157.928 68.5451 157.928ZM76.3139 159C76.1752 159 76.0685 158.968 75.9939 158.904C75.9192 158.84 75.8552 158.739 75.8019 158.6L73.5299 151.176L73.4979 151.016C73.4979 150.92 73.5299 150.84 73.5939 150.776C73.6685 150.712 73.7485 150.68 73.8339 150.68H74.5379C74.6445 150.68 74.7299 150.712 74.7939 150.776C74.8685 150.829 74.9165 150.888 74.9379 150.952L76.7139 156.984L78.6179 151.016C78.6392 150.931 78.6872 150.856 78.7619 150.792C78.8365 150.717 78.9379 150.68 79.0659 150.68H79.6099C79.7379 150.68 79.8392 150.717 79.9139 150.792C79.9885 150.856 80.0365 150.931 80.0579 151.016L81.9619 156.984L83.7379 150.952C83.7485 150.899 83.7859 150.84 83.8499 150.776C83.9245 150.712 84.0152 150.68 84.1219 150.68H84.8419C84.9272 150.68 85.0019 150.712 85.0659 150.776C85.1299 150.84 85.1619 150.92 85.1619 151.016L85.1299 151.176L82.8739 158.6C82.8205 158.739 82.7565 158.84 82.6819 158.904C82.6072 158.968 82.4952 159 82.3459 159H81.7219C81.4339 159 81.2579 158.867 81.1939 158.6L79.3379 152.872L77.4819 158.6C77.3965 158.867 77.2152 159 76.9379 159H76.3139ZM89.6109 159.16C88.8642 159.16 88.2349 159.043 87.7229 158.808C87.2215 158.563 86.8429 158.285 86.5869 157.976C86.3415 157.667 86.2189 157.411 86.2189 157.208C86.2189 157.101 86.2562 157.021 86.3309 156.968C86.4162 156.904 86.5015 156.872 86.5869 156.872H87.3069C87.4135 156.872 87.5095 156.925 87.5949 157.032C87.8509 157.331 88.1282 157.565 88.4269 157.736C88.7255 157.907 89.1255 157.992 89.6269 157.992C90.1815 157.992 90.6295 157.885 90.9709 157.672C91.3229 157.448 91.4989 157.144 91.4989 156.76C91.4989 156.504 91.4242 156.296 91.2749 156.136C91.1362 155.965 90.8909 155.821 90.5389 155.704C90.1975 155.576 89.6855 155.437 89.0029 155.288C88.0749 155.085 87.4135 154.792 87.0189 154.408C86.6349 154.024 86.4429 153.528 86.4429 152.92C86.4429 152.515 86.5602 152.131 86.7949 151.768C87.0402 151.395 87.3922 151.096 87.8509 150.872C88.3202 150.637 88.8802 150.52 89.5309 150.52C90.2135 150.52 90.7949 150.632 91.2749 150.856C91.7549 151.08 92.1122 151.347 92.3469 151.656C92.5922 151.955 92.7149 152.205 92.7149 152.408C92.7149 152.504 92.6775 152.584 92.6029 152.648C92.5389 152.712 92.4589 152.744 92.3629 152.744H91.6909C91.5629 152.744 91.4562 152.691 91.3709 152.584C91.2002 152.381 91.0509 152.227 90.9229 152.12C90.8055 152.003 90.6295 151.901 90.3949 151.816C90.1709 151.731 89.8829 151.688 89.5309 151.688C89.0189 151.688 88.6242 151.8 88.3469 152.024C88.0695 152.237 87.9309 152.52 87.9309 152.872C87.9309 153.096 87.9895 153.288 88.1069 153.448C88.2242 153.597 88.4482 153.736 88.7789 153.864C89.1202 153.992 89.6109 154.125 90.2509 154.264C91.2642 154.477 91.9789 154.787 92.3949 155.192C92.8215 155.587 93.0349 156.093 93.0349 156.712C93.0349 157.171 92.9015 157.587 92.6349 157.96C92.3682 158.333 91.9735 158.627 91.4509 158.84C90.9389 159.053 90.3255 159.16 89.6109 159.16ZM98.2151 159.16C97.1165 159.16 96.2365 158.824 95.5751 158.152C94.9245 157.469 94.5671 156.541 94.5031 155.368L94.4871 154.824L94.5031 154.296C94.5778 153.144 94.9405 152.227 95.5911 151.544C96.2525 150.861 97.1218 150.52 98.1991 150.52C99.3831 150.52 100.3 150.899 100.951 151.656C101.602 152.403 101.927 153.416 101.927 154.696V154.968C101.927 155.075 101.89 155.165 101.815 155.24C101.751 155.304 101.666 155.336 101.559 155.336H96.0231V155.48C96.0551 156.173 96.2631 156.765 96.6471 157.256C97.0418 157.736 97.5591 157.976 98.1991 157.976C98.6898 157.976 99.0898 157.88 99.3991 157.688C99.7191 157.485 99.9538 157.277 100.103 157.064C100.199 156.936 100.268 156.861 100.311 156.84C100.364 156.808 100.455 156.792 100.583 156.792H101.367C101.463 156.792 101.543 156.819 101.607 156.872C101.671 156.925 101.703 157 101.703 157.096C101.703 157.331 101.554 157.613 101.255 157.944C100.967 158.275 100.556 158.563 100.023 158.808C99.5005 159.043 98.8978 159.16 98.2151 159.16ZM100.407 154.232V154.184C100.407 153.448 100.204 152.851 99.7991 152.392C99.4045 151.923 98.8711 151.688 98.1991 151.688C97.5271 151.688 96.9938 151.923 96.5991 152.392C96.2151 152.851 96.0231 153.448 96.0231 154.184V154.232H100.407Z" fill="#80A0FF"/>
<path fill-rule="evenodd" clip-rule="evenodd" d="M90.025 40.6275V40.625H87.25C86.215 40.625 85.375 41.465 85.375 42.5C85.375 43.535 86.215 44.375 87.25 44.375H90.025V44.3725V44.375H90.095H90.1075C97.15 44.33 102.875 38.4775 102.875 31.25C102.875 24.5475 97.95 19.0275 91.62 18.225C88.665 13.6425 83.5875 10.625 77.83 10.625C70.585 10.625 64.4125 15.41 62.195 22.07C61.5325 21.9425 60.8475 21.875 60.1475 21.875C54.0775 21.875 49.125 26.9025 49.125 33.125C49.125 39.3475 54.0775 44.375 60.1475 44.375H64.75C65.785 44.375 66.625 43.535 66.625 42.5C66.625 41.465 65.785 40.625 64.75 40.625H60.1475C56.12 40.625 52.875 37.2525 52.875 33.125C52.875 28.9975 56.12 25.625 60.1475 25.625C61.085 25.625 61.98 25.8075 62.8025 26.1425C63.32 26.3525 63.9025 26.32 64.3925 26.0575C64.885 25.795 65.2325 25.3275 65.345 24.78C66.56 18.85 71.685 14.375 77.83 14.375C82.55 14.375 86.67 17.02 88.875 20.9325C89.1925 21.495 89.78 21.855 90.425 21.885C95.275 22.1 99.125 26.225 99.125 31.25C99.125 36.3925 95.0925 40.5925 90.0825 40.625L90.025 40.6275Z" fill="#777777"/>
<path fill-rule="evenodd" clip-rule="evenodd" d="M77.875 47.5V33.75C77.875 32.715 77.035 31.875 76 31.875C74.965 31.875 74.125 32.715 74.125 33.75V47.5C74.125 48.535 74.965 49.375 76 49.375C77.035 49.375 77.875 48.535 77.875 47.5Z" fill="#777777"/>
<path fill-rule="evenodd" clip-rule="evenodd" d="M72.3251 38.8244L76.0001 35.1519L79.6751 38.8244C80.4051 39.5569 81.5951 39.5569 82.3251 38.8244C83.0576 38.0944 83.0576 36.9044 82.3251 36.1744L77.3251 31.1744C76.5926 30.4419 75.4076 30.4419 74.6751 31.1744L69.6751 36.1744C68.9426 36.9044 68.9426 38.0944 69.6751 38.8244C70.4051 39.5569 71.5951 39.5569 72.3251 38.8244V38.8244Z" fill="#777777"/>
</svg>
