<svg xmlns="http://www.w3.org/2000/svg" style="display: none;"><symbol id="menu" viewBox="0 0 24 24"><title>menu</title><path d="M12.94 4.6673C12.9405 4.75504 12.9237 4.84201 12.8905 4.92324C12.8573 5.00446 12.8085 5.07834 12.7467 5.14063L5.88667 12.0006L12.7467 18.8606C12.8559 18.9882 12.913 19.1522 12.9065 19.32C12.9 19.4878 12.8304 19.6469 12.7117 19.7657C12.593 19.8844 12.4338 19.954 12.266 19.9604C12.0983 19.9669 11.9342 19.9099 11.8067 19.8006L4 12.0006L11.8067 4.19397C11.9003 4.10223 12.0188 4.04011 12.1475 4.01537C12.2762 3.99064 12.4093 4.00438 12.5303 4.05489C12.6512 4.10539 12.7546 4.19042 12.8274 4.29934C12.9003 4.40826 12.9395 4.53625 12.94 4.6673Z" fill="white"/><path d="M20.2733 4.6673C20.2738 4.75504 20.2569 4.84201 20.2238 4.92324C20.1906 5.00446 20.1417 5.07834 20.0799 5.14063L13.2199 12.0006L20.0799 18.8606C20.1891 18.9882 20.2462 19.1522 20.2397 19.32C20.2332 19.4878 20.1637 19.6469 20.045 19.7657C19.9262 19.8844 19.7671 19.954 19.5993 19.9604C19.4315 19.9669 19.2675 19.9099 19.1399 19.8006L11.3333 12.0006L19.1399 4.19397C19.2335 4.10223 19.3521 4.04011 19.4808 4.01537C19.6095 3.99064 19.7426 4.00438 19.8635 4.05489C19.9844 4.10539 20.0878 4.19042 20.1607 4.29934C20.2336 4.40826 20.2727 4.53625 20.2733 4.6673Z" fill="white"/></symbol><symbol id="dashboard" viewBox="0 0 24 24"><title>dashboard</title><g clip-path="url(#clip0_1535_4283)"><path d="M22.5 6H1.5C0.673 6 0 5.327 0 4.5V1.5C0 0.673 0.673 0 1.5 0H22.5C23.327 0 24 0.673 24 1.5V4.5C24 5.327 23.327 6 22.5 6ZM1.5 1C1.224 1 1 1.224 1 1.5V4.5C1 4.776 1.224 5 1.5 5H22.5C22.776 5 23 4.776 23 4.5V1.5C23 1.224 22.776 1 22.5 1H1.5Z" fill="white"/><path d="M9.5 24H1.5C0.673 24 0 23.327 0 22.5V9.5C0 8.673 0.673 8 1.5 8H9.5C10.327 8 11 8.673 11 9.5V22.5C11 23.327 10.327 24 9.5 24ZM1.5 9C1.224 9 1 9.224 1 9.5V22.5C1 22.776 1.224 23 1.5 23H9.5C9.776 23 10 22.776 10 22.5V9.5C10 9.224 9.776 9 9.5 9H1.5Z" fill="white"/><path d="M22.5 15H14.5C13.673 15 13 14.327 13 13.5V9.5C13 8.673 13.673 8 14.5 8H22.5C23.327 8 24 8.673 24 9.5V13.5C24 14.327 23.327 15 22.5 15ZM14.5 9C14.224 9 14 9.224 14 9.5V13.5C14 13.776 14.224 14 14.5 14H22.5C22.776 14 23 13.776 23 13.5V9.5C23 9.224 22.776 9 22.5 9H14.5Z" fill="white"/><path d="M22.5 24H14.5C13.673 24 13 23.327 13 22.5V18.5C13 17.673 13.673 17 14.5 17H22.5C23.327 17 24 17.673 24 18.5V22.5C24 23.327 23.327 24 22.5 24ZM14.5 18C14.224 18 14 18.224 14 18.5V22.5C14 22.776 14.224 23 14.5 23H22.5C22.776 23 23 22.776 23 22.5V18.5C23 18.224 22.776 18 22.5 18H14.5Z" fill="white"/></g><defs><clipPath id="clip0_1535_4283"><rect width="24" height="24" fill="white"/></clipPath></defs></symbol><symbol id="employee-card" viewBox="0 0 24 24"><title>employee-card</title><g clip-path="url(#clip0_1535_4306)"><path d="M13.5 21H12.5C12.224 21 12 20.776 12 20.5V19H4V20.5C4 20.776 3.776 21 3.5 21H2.5C1.121 21 0 19.879 0 18.5V2.5C0 1.121 1.121 0 2.5 0H11.5C11.776 0 12 0.224 12 0.5C12 0.776 11.776 1 11.5 1H2.5C1.673 1 1 1.673 1 2.5V18.5C1 19.327 1.673 20 2.5 20H3V18.5C3 18.224 3.224 18 3.5 18H12.5C12.776 18 13 18.224 13 18.5V20H13.5C14.327 20 15 19.327 15 18.5V15.5C15 15.224 15.224 15 15.5 15C15.776 15 16 15.224 16 15.5V18.5C16 19.879 14.879 21 13.5 21Z" fill="white"/><path d="M8.49999 8.00001H4.5C3.673 8.00001 3 7.32701 3 6.50001V4.5C3 3.673 3.673 3 4.5 3H9.49999C9.77599 3 9.99999 3.224 9.99999 3.5C9.99999 3.776 9.77599 4 9.49999 4H4.5C4.225 4 4 4.225 4 4.5V6.50001C4 6.77501 4.225 7.00001 4.5 7.00001H8.49999C8.77599 7.00001 8.99999 7.22401 8.99999 7.50001C8.99999 7.77601 8.77599 8.00001 8.49999 8.00001Z" fill="white"/><path d="M4 10C4.55228 10 5 10.4477 5 11C5 11.5523 4.55228 12 4 12C3.44772 12 3 11.5523 3 11C3 10.4477 3.44772 10 4 10Z" fill="white"/><path d="M8 12C8.55228 12 9 11.5523 9 11C9 10.4477 8.55228 10 8 10C7.44771 10 7 10.4477 7 11C7 11.5523 7.44771 12 8 12Z" fill="white"/><path d="M4 16C4.55229 16 5 15.5523 5 15C5 14.4477 4.55229 14 4 14C3.44772 14 3 14.4477 3 15C3 15.5523 3.44772 16 4 16Z" fill="white"/><path d="M8 16C8.55228 16 9 15.5523 9 15C9 14.4477 8.55228 14 8 14C7.44771 14 7 14.4477 7 15C7 15.5523 7.44771 16 8 16Z" fill="white"/><path d="M12 16C12.5523 16 13 15.5523 13 15C13 14.4477 12.5523 14 12 14C11.4477 14 11 14.4477 11 15C11 15.5523 11.4477 16 12 16Z" fill="white"/><path d="M12.5 24H3.5C3.224 24 3 23.776 3 23.5V18.5C3 18.224 3.224 18 3.5 18H12.5C12.776 18 13 18.224 13 18.5V23.5C13 23.776 12.776 24 12.5 24ZM4 23H12V19H4V23Z" fill="white"/><path d="M13.5 19H2.5C2.224 19 2 18.776 2 18.5C2 18.224 2.224 18 2.5 18H13.5C13.776 18 14 18.224 14 18.5C14 18.776 13.776 19 13.5 19Z" fill="white"/><path d="M17 14C13.141 14 10 10.859 10 7C10 3.141 13.141 0 17 0C20.859 0 24 3.141 24 7C24 10.859 20.859 14 17 14ZM17 1C13.691 1 11 3.691 11 7C11 10.309 13.691 13 17 13C20.309 13 23 10.309 23 7C23 3.691 20.309 1 17 1Z" fill="white"/><path d="M19 4.3C19 4.1344 18.888 4 18.75 4H16.5001H15.2501C15.1121 4 15.0001 4.1344 15.0001 4.3C15.0001 4.4656 15.1121 4.6 15.2501 4.6H16.5001C17.0515 4.6 17.5 5.1382 17.5 5.8H15.2501C15.1121 5.8 15.0001 5.9344 15.0001 6.1C15.0001 6.2656 15.1121 6.4 15.2501 6.4H17.361C17.1875 6.757 16.8686 7 16.5001 7H15.2501C15.1441 7 15.0496 7.0804 15.0141 7.201C14.9791 7.321 15.0106 7.4548 15.0936 7.5346L17.5935 9.9346C17.64 9.9784 17.695 10 17.75 10C17.823 10 17.896 9.9616 17.9455 9.8872C18.0315 9.7576 18.0145 9.5692 17.9065 9.4654L15.9631 7.6H16.5001C17.151 7.6 17.701 7.0966 17.908 6.4H18.75C18.888 6.4 19 6.2656 19 6.1C19 5.9344 18.888 5.8 18.75 5.8H18C18 5.3374 17.8495 4.9192 17.61 4.6H18.75C18.888 4.6 19 4.4656 19 4.3V4.3Z" fill="white"/></g><defs><clipPath id="clip0_1535_4306"><rect width="24" height="24" fill="white"/></clipPath></defs></symbol><symbol id="reports" viewBox="0 0 24 24"><title>reports</title><g clip-path="url(#clip0_1535_4318)"><path d="M21.5 24H2.5C1.121 24 0 22.878 0 21.5V4.5C0 3.122 1.121 2 2.5 2H21.5C22.879 2 24 3.122 24 4.5V21.5C24 22.878 22.879 24 21.5 24ZM2.5 3C1.673 3 1 3.673 1 4.5V21.5C1 22.327 1.673 23 2.5 23H21.5C22.327 23 23 22.327 23 21.5V4.5C23 3.673 22.327 3 21.5 3H2.5Z" fill="white"/><path d="M23.5 9.00001H0.5C0.224 9.00001 0 8.776 0 8.5C0 8.224 0.224 8 0.5 8H23.5C23.776 8 24 8.224 24 8.5C24 8.776 23.776 9.00001 23.5 9.00001Z" fill="white"/><path d="M5.5 5C5.224 5 5 4.776 5 4.5V0.5C5 0.224 5.224 0 5.5 0C5.776 0 6 0.224 6 0.5V4.5C6 4.776 5.776 5 5.5 5Z" fill="white"/><path d="M18.5 5C18.224 5 18 4.776 18 4.5V0.5C18 0.224 18.224 0 18.5 0C18.776 0 19 0.224 19 0.5V4.5C19 4.776 18.776 5 18.5 5Z" fill="white"/><path d="M16.5 21H13.5C13.224 21 13 20.776 13 20.5V11.5C13 11.224 13.224 11 13.5 11H16.5C16.776 11 17 11.224 17 11.5V20.5C17 20.776 16.776 21 16.5 21ZM14 20H16V12H14V20Z" fill="white"/><path d="M10.5 21H7.5C7.224 21 7 20.776 7 20.5V15.5C7 15.224 7.224 15 7.5 15H10.5C10.776 15 11 15.224 11 15.5V20.5C11 20.776 10.776 21 10.5 21ZM8 20H10V16H8V20Z" fill="white"/><path d="M17.5 21H6.5C6.224 21 6 20.776 6 20.5C6 20.224 6.224 20 6.5 20H17.5C17.776 20 18 20.224 18 20.5C18 20.776 17.776 21 17.5 21Z" fill="white"/></g><defs><clipPath id="clip0_1535_4318"><rect width="24" height="24" fill="white"/></clipPath></defs></symbol><symbol id="user-guide" viewBox="0 0 24 24"><title>user-guide</title><g clip-path="url(#clip0_1535_4326)"><path d="M20.5 24H8.5C7.122 24 6 22.879 6 21.5V6.5C6 5.121 7.122 4 8.5 4H20.5C21.878 4 23 5.121 23 6.5V21.5C23 22.879 21.878 24 20.5 24ZM8.5 5C7.673 5 7 5.673 7 6.5V21.5C7 22.327 7.673 23 8.5 23H20.5C21.327 23 22 22.327 22 21.5V6.5C22 5.673 21.327 5 20.5 5H8.5Z" fill="white"/><path d="M4.5 21H3.5C2.122 21 1 19.879 1 18.5V2.5C1 1.121 2.122 0 3.5 0H15.5C16.878 0 18 1.121 18 2.5C18 2.776 17.776 3 17.5 3C17.224 3 17 2.776 17 2.5C17 1.673 16.327 1 15.5 1H3.5C2.673 1 2 1.673 2 2.5V18.5C2 19.327 2.673 20 3.5 20H4.5C4.776 20 5 20.224 5 20.5C5 20.776 4.776 21 4.5 21Z" fill="white"/><path d="M18.5 17H10.5C10.224 17 10 16.776 10 16.5C10 16.224 10.224 16 10.5 16H18.5C18.776 16 19 16.224 19 16.5C19 16.776 18.776 17 18.5 17Z" fill="white"/><path d="M18.5 21H10.5C10.224 21 10 20.776 10 20.5C10 20.224 10.224 20 10.5 20H18.5C18.776 20 19 20.224 19 20.5C19 20.776 18.776 21 18.5 21Z" fill="white"/><path d="M18.5 13H10.5C10.224 13 10 12.776 10 12.5C10 12.224 10.224 12 10.5 12H18.5C18.776 12 19 12.224 19 12.5C19 12.776 18.776 13 18.5 13Z" fill="white"/><path d="M18.5 9H10.5C10.224 9 10 8.776 10 8.5C10 8.224 10.224 8 10.5 8H18.5C18.776 8 19 8.224 19 8.5C19 8.776 18.776 9 18.5 9Z" fill="white"/></g><defs><clipPath id="clip0_1535_4326"><rect width="24" height="24" fill="white"/></clipPath></defs></symbol><symbol id="dashboard-1" viewBox="0 0 24 24"><title>dashboard-1</title><g clip-path="url(#clip0_1535_4283)"><path d="M22.5 6H1.5C0.673 6 0 5.327 0 4.5V1.5C0 0.673 0.673 0 1.5 0H22.5C23.327 0 24 0.673 24 1.5V4.5C24 5.327 23.327 6 22.5 6ZM1.5 1C1.224 1 1 1.224 1 1.5V4.5C1 4.776 1.224 5 1.5 5H22.5C22.776 5 23 4.776 23 4.5V1.5C23 1.224 22.776 1 22.5 1H1.5Z" fill="white"/><path d="M9.5 24H1.5C0.673 24 0 23.327 0 22.5V9.5C0 8.673 0.673 8 1.5 8H9.5C10.327 8 11 8.673 11 9.5V22.5C11 23.327 10.327 24 9.5 24ZM1.5 9C1.224 9 1 9.224 1 9.5V22.5C1 22.776 1.224 23 1.5 23H9.5C9.776 23 10 22.776 10 22.5V9.5C10 9.224 9.776 9 9.5 9H1.5Z" fill="white"/><path d="M22.5 15H14.5C13.673 15 13 14.327 13 13.5V9.5C13 8.673 13.673 8 14.5 8H22.5C23.327 8 24 8.673 24 9.5V13.5C24 14.327 23.327 15 22.5 15ZM14.5 9C14.224 9 14 9.224 14 9.5V13.5C14 13.776 14.224 14 14.5 14H22.5C22.776 14 23 13.776 23 13.5V9.5C23 9.224 22.776 9 22.5 9H14.5Z" fill="white"/><path d="M22.5 24H14.5C13.673 24 13 23.327 13 22.5V18.5C13 17.673 13.673 17 14.5 17H22.5C23.327 17 24 17.673 24 18.5V22.5C24 23.327 23.327 24 22.5 24ZM14.5 18C14.224 18 14 18.224 14 18.5V22.5C14 22.776 14.224 23 14.5 23H22.5C22.776 23 23 22.776 23 22.5V18.5C23 18.224 22.776 18 22.5 18H14.5Z" fill="white"/></g><defs><clipPath id="clip0_1535_4283"><rect width="24" height="24" fill="white"/></clipPath></defs></symbol><symbol id="menu-1" viewBox="0 0 24 24"><title>menu-1</title><g clip-path="url(#clip0_1535_4292)"><path d="M21.5 24H2.5C1.122 24 0 22.6297 0 20.9466V5.06901C0 3.38599 1.122 2.01562 2.5 2.01562H8.5C8.776 2.01562 9 2.28921 9 2.6263C9 2.9634 8.776 3.23698 8.5 3.23698H2.5C1.673 3.23698 1 4.05895 1 5.06901V20.9466C1 21.9567 1.673 22.7787 2.5 22.7787H21.5C22.327 22.7787 23 21.9567 23 20.9466V5.06901C23 4.05895 22.327 3.23698 21.5 3.23698H15.5C15.224 3.23698 15 2.9634 15 2.6263C15 2.28921 15.224 2.01562 15.5 2.01562H21.5C22.878 2.01562 24 3.38599 24 5.06901V20.9466C24 22.6297 22.878 24 21.5 24Z" fill="white"/><path d="M7.5 13C6.122 13 5 11.878 5 10.5C5 9.122 6.122 8 7.5 8C8.878 8 10 9.122 10 10.5C10 11.878 8.878 13 7.5 13ZM7.5 9C6.673 9 6 9.673 6 10.5C6 11.327 6.673 12 7.5 12C8.327 12 9 11.327 9 10.5C9 9.673 8.327 9 7.5 9Z" fill="white"/><path d="M11.5 19C11.224 19 11 18.72 11 18.375V17.125C11 16.0912 10.327 15 9.5 15H5.5C4.673 15 4 16.0912 4 17.125V18.375C4 18.72 3.776 19 3.5 19C3.224 19 3 18.72 3 18.375V17.125C3 15.4025 4.122 14 5.5 14H9.5C10.878 14 12 15.4025 12 17.125V18.375C12 18.72 11.776 19 11.5 19Z" fill="white"/><path d="M20.5 9.99999H14.5C14.224 9.99999 14 9.77599 14 9.5C14 9.224 14.224 9 14.5 9H20.5C20.776 9 21 9.224 21 9.5C21 9.77599 20.776 9.99999 20.5 9.99999Z" fill="white"/><path d="M20.5 13.8125H14.5C14.224 13.8125 14 13.5885 14 13.3125C14 13.0365 14.224 12.8125 14.5 12.8125H20.5C20.776 12.8125 21 13.0365 21 13.3125C21 13.5885 20.776 13.8125 20.5 13.8125Z" fill="white"/><path d="M20.5 17.625H14.5C14.224 17.625 14 17.401 14 17.125C14 16.849 14.224 16.625 14.5 16.625H20.5C20.776 16.625 21 16.849 21 17.125C21 17.401 20.776 17.625 20.5 17.625Z" fill="white"/><path d="M14.5 5H9.5C8.673 5 8 4.327 8 3.5V1.5C8 0.673 8.673 0 9.5 0H14.5C15.327 0 16 0.673 16 1.5V3.5C16 4.327 15.327 5 14.5 5ZM9.5 1C9.224 1 9 1.224 9 1.5V3.5C9 3.776 9.224 4 9.5 4H14.5C14.776 4 15 3.776 15 3.5V1.5C15 1.224 14.776 1 14.5 1H9.5Z" fill="white"/></g><defs><clipPath id="clip0_1535_4292"><rect width="24" height="24" fill="white"/></clipPath></defs></symbol><symbol id="payroll" viewBox="0 0 24 24"><title>payroll</title><g clip-path="url(#clip0_1535_4318)"><path d="M21.5 24H2.5C1.121 24 0 22.878 0 21.5V4.5C0 3.122 1.121 2 2.5 2H21.5C22.879 2 24 3.122 24 4.5V21.5C24 22.878 22.879 24 21.5 24ZM2.5 3C1.673 3 1 3.673 1 4.5V21.5C1 22.327 1.673 23 2.5 23H21.5C22.327 23 23 22.327 23 21.5V4.5C23 3.673 22.327 3 21.5 3H2.5Z" fill="white"/><path d="M23.5 9.00001H0.5C0.224 9.00001 0 8.776 0 8.5C0 8.224 0.224 8 0.5 8H23.5C23.776 8 24 8.224 24 8.5C24 8.776 23.776 9.00001 23.5 9.00001Z" fill="white"/><path d="M5.5 5C5.224 5 5 4.776 5 4.5V0.5C5 0.224 5.224 0 5.5 0C5.776 0 6 0.224 6 0.5V4.5C6 4.776 5.776 5 5.5 5Z" fill="white"/><path d="M18.5 5C18.224 5 18 4.776 18 4.5V0.5C18 0.224 18.224 0 18.5 0C18.776 0 19 0.224 19 0.5V4.5C19 4.776 18.776 5 18.5 5Z" fill="white"/><path d="M16.5 21H13.5C13.224 21 13 20.776 13 20.5V11.5C13 11.224 13.224 11 13.5 11H16.5C16.776 11 17 11.224 17 11.5V20.5C17 20.776 16.776 21 16.5 21ZM14 20H16V12H14V20Z" fill="white"/><path d="M10.5 21H7.5C7.224 21 7 20.776 7 20.5V15.5C7 15.224 7.224 15 7.5 15H10.5C10.776 15 11 15.224 11 15.5V20.5C11 20.776 10.776 21 10.5 21ZM8 20H10V16H8V20Z" fill="white"/><path d="M17.5 21H6.5C6.224 21 6 20.776 6 20.5C6 20.224 6.224 20 6.5 20H17.5C17.776 20 18 20.224 18 20.5C18 20.776 17.776 21 17.5 21Z" fill="white"/></g><defs><clipPath id="clip0_1535_4318"><rect width="24" height="24" fill="white"/></clipPath></defs></symbol><symbol id="user-guide-1" viewBox="0 0 24 24"><title>user-guide-1</title><g clip-path="url(#clip0_1535_4326)"><path d="M20.5 24H8.5C7.122 24 6 22.879 6 21.5V6.5C6 5.121 7.122 4 8.5 4H20.5C21.878 4 23 5.121 23 6.5V21.5C23 22.879 21.878 24 20.5 24ZM8.5 5C7.673 5 7 5.673 7 6.5V21.5C7 22.327 7.673 23 8.5 23H20.5C21.327 23 22 22.327 22 21.5V6.5C22 5.673 21.327 5 20.5 5H8.5Z" fill="white"/><path d="M4.5 21H3.5C2.122 21 1 19.879 1 18.5V2.5C1 1.121 2.122 0 3.5 0H15.5C16.878 0 18 1.121 18 2.5C18 2.776 17.776 3 17.5 3C17.224 3 17 2.776 17 2.5C17 1.673 16.327 1 15.5 1H3.5C2.673 1 2 1.673 2 2.5V18.5C2 19.327 2.673 20 3.5 20H4.5C4.776 20 5 20.224 5 20.5C5 20.776 4.776 21 4.5 21Z" fill="white"/><path d="M18.5 17H10.5C10.224 17 10 16.776 10 16.5C10 16.224 10.224 16 10.5 16H18.5C18.776 16 19 16.224 19 16.5C19 16.776 18.776 17 18.5 17Z" fill="white"/><path d="M18.5 21H10.5C10.224 21 10 20.776 10 20.5C10 20.224 10.224 20 10.5 20H18.5C18.776 20 19 20.224 19 20.5C19 20.776 18.776 21 18.5 21Z" fill="white"/><path d="M18.5 13H10.5C10.224 13 10 12.776 10 12.5C10 12.224 10.224 12 10.5 12H18.5C18.776 12 19 12.224 19 12.5C19 12.776 18.776 13 18.5 13Z" fill="white"/><path d="M18.5 9H10.5C10.224 9 10 8.776 10 8.5C10 8.224 10.224 8 10.5 8H18.5C18.776 8 19 8.224 19 8.5C19 8.776 18.776 9 18.5 9Z" fill="white"/></g><defs><clipPath id="clip0_1535_4326"><rect width="24" height="24" fill="white"/></clipPath></defs></symbol><symbol id="drowning" viewBox="0 0 512 512"><title>drowning</title><path d="m13.774 230.025s67.165 62.855 261.662 62.855 222.791-62.853 222.791-62.853c-17.826-117.768-119.484-208.031-242.227-208.031s-224.4 90.261-242.226 208.029z" fill="#1d2e79"/><g><path d="m498.227 230.027c-9.714 3.773-21.422 1.096-28.295-8.049l-.012-.016c-9.731-12.949-29.162-12.948-38.892.001l-.007.01c-9.73 12.95-29.162 12.95-38.892.001l-.007-.009c-9.73-12.95-29.162-12.949-38.892.001l-.005.007c-8.164 10.865-23.154 12.609-33.517 5.243l-.002.003-1.569 2.475c-4.028 6.45-5.511 14.27-3.662 21.946 3.384 14.047 8.95 31.529 17.892 52.915 7.751.445 15.678-2.778 20.858-9.671l.005-.007c9.73-12.95 29.162-12.95 38.892 0l.007.009c9.73 12.95 29.162 12.949 38.892 0l.007-.01c9.73-12.949 29.161-12.95 38.892-.001l.012.016c6.908 9.192 18.703 11.851 28.447 7.991 1.719-11.713 2.623-23.691 2.623-35.882 0-12.569-.95-24.915-2.775-36.973z" fill="#26a6fe"/></g><g><path d="m214.633 242.716c-7.509-8.728-11.634-18.908-13.498-24.497-1.259 1.1-2.434 2.343-3.489 3.747l-.005.006c-9.73 12.95-29.162 12.95-38.893 0l-.004-.005c-9.73-12.95-29.163-12.95-38.893.001l-.002.003c-9.73 12.951-29.164 12.951-38.894 0l-.001-.001c-9.73-12.951-29.164-12.951-38.894 0-6.87 9.144-18.574 11.823-28.288 8.055-1.825 12.059-2.776 24.405-2.776 36.973 0 12.189.904 24.167 2.623 35.879 9.743 3.856 21.535 1.195 28.44-7.997 9.73-12.951 29.164-12.951 38.894 0v.001c9.73 12.951 29.163 12.951 38.894 0l.002-.002c9.73-12.951 29.163-12.951 38.893 0l.004.005c9.73 12.95 29.163 12.95 38.893.001l.005-.007c7.234-9.627 19.828-12.091 29.814-7.403-4.406-27.35-9.781-40.902-12.825-44.759z" fill="#1d8df2"/></g><g><path d="m469.932 292.889-.012-.016c-9.731-12.948-29.162-12.947-38.892.001l-.007.01c-9.73 12.949-29.162 12.95-38.892 0l-.007-.009c-9.73-12.95-29.162-12.949-38.892 0l-.005.007c-5.371 7.148-13.697 10.342-21.716 9.599 6.905 16.727 15.9 35.889 27.587 57.729 10.34-6.973 24.99-5.12 33.027 5.575l.007.009c9.73 12.949 29.162 12.949 38.892-.001l.007-.01c9.73-12.949 29.161-12.95 38.892-.001l.012.016c2.069 2.753 4.58 4.915 7.339 6.497 10.586-22.204 17.918-46.252 21.404-71.53-9.801 4.034-21.766 1.409-28.744-7.876z" fill="#01d0fb"/></g><g><path d="m227.105 285.314c-9.928-4.466-22.31-1.952-29.459 7.562l-.005.007c-9.73 12.95-29.163 12.95-38.893-.001l-.004-.005c-9.73-12.951-29.163-12.95-38.893 0l-.002.002c-9.73 12.951-29.163 12.951-38.894 0v-.001c-9.73-12.951-29.164-12.951-38.894 0-6.975 9.285-18.937 11.911-28.736 7.884 3.485 25.276 10.816 49.322 21.4 71.524 2.759-1.582 5.268-3.745 7.336-6.497 9.73-12.951 29.164-12.951 38.894 0v.001c9.73 12.951 29.163 12.951 38.894 0l.002-.003c9.73-12.95 29.163-12.951 38.893 0l.004.005c9.73 12.95 29.163 12.95 38.893 0l.005-.006c8.959-11.924 26.137-12.859 36.4-2.826-1.122-33.566-3.815-58.976-6.941-77.646z" fill="#26a6fe"/></g><path d="m298.209 250.694c-16.466.126-28.469-7.074-35.641-21.493-6.614-13.299-7.177-26.919-1.625-39.388 6.564-14.741 21.616-27.274 38.347-31.93 13.876-3.861 22.286-14.367 24.083-22.755.005-.099.01-.193.014-.292-.161.327-.324.657-.481.976-2.166 4.411-8.595 3.952-10.114-.721-4.062-12.498-5.777-25.64-5.057-38.763l4.365-79.568c.473-8.62-6.024-16.041-14.631-16.711-8.818-.687-16.5 5.959-17.088 14.784l-5.528 82.249c-.208 3.119-3.095 5.398-6.23 4.798-2.02-.386-3.898-2.545-4.219-4.577l-12.968-81.513c-1.371-8.695-9.63-14.558-18.29-12.986-8.6 1.561-14.264 9.854-12.589 18.433l15.374 78.77c.574 2.939-1.579 5.731-4.609 5.887-1.96.1-4.176-1.488-4.918-3.304l-30.24-74.029c-2.949-7.218-11.242-10.617-18.408-7.543-6.985 2.997-10.285 11.035-7.419 18.075l28.748 70.618c1.1 2.702-.348 5.825-3.259 6.66-2.185.626-4.507-.47-5.71-2.398l-32.549-52.15c-3.934-6.302-12.314-8.076-18.464-3.907-5.928 4.018-7.533 12.042-3.603 18.029 16.013 24.392 38.962 62.509 43.568 86.992 5.142 27.333 18.766 54.509 26.181 67.889 2.132 3.846 4.662 7.44 7.386 10.892.825 1.045 1.822 2.533 2.923 4.626 8.137 6.756 27.825 20.514 51.536 18.771 12.134-.893 23.543-5.785 34.112-14.537-1.01.066-2.011.107-2.997.116z" fill="#ffaa7b"/><path d="m381.082 89.396c-2.014-4.941-6.923-8.581-12.912-8.121-4.962.382-10.07 1.774-14.351 5.049-9.157 7.006-23.086 33.551-30.913 49.49-.513 1.044-1.269 1.806-2.138 2.313-2.147 5.031-7.905 14.423-21.881 18.312-26.75 7.443-55.658 37.251-37.662 73.431 9.21 18.516 24.886 22.665 37.998 22.304 6.375-4.938 12.455-11.245 18.206-18.939 1.907-5.233 5.317-9.944 9.925-13.518 15.383-11.933 24.291-35.632 26.045-55.805 1.308-15.042 8.834-29.995 16.113-43.085-3.936-3.504-7.738-9.302-4.586-17.522 3.037-7.919 10.21-11.909 16.156-13.909z" fill="#ffc7ab"/><path d="m320.137 227.694c-1.26 1.293-2.447 2.683-3.553 4.178-48.46 65.475-103.951 9.844-103.951 9.844 5.32 6.742 17.764 31.811 19.713 119.731 1.53 1.233 2.943 2.677 4.193 4.341l.003.004c9.73 12.951 29.164 12.95 38.894-.001s29.163-12.952 38.894-.001l.003.004c9.73 12.95 29.162 12.95 38.893 0l.005-.007c2.28-3.034 5.096-5.348 8.192-6.961-26.194-48.852-38.969-84.374-44.947-109.186-1.85-7.677-.367-15.496 3.661-21.946z" fill="#f7965b"/><path d="m469.932 363.8-.012-.016c-9.731-12.949-29.162-12.948-38.892.001l-.007.01c-9.73 12.95-29.162 12.95-38.892 0l-.007-.009c-9.73-12.95-29.162-12.949-38.892 0l-.005.007c-9.73 12.95-29.163 12.95-38.893 0l-.003-.004c-9.731-12.951-29.164-12.95-38.894.001s-29.164 12.952-38.894.001l-.003-.004c-1.67-2.223-3.631-4.055-5.775-5.515l-.485 1.116s-36.916 31.665-4.097 68.263c.507.565.983 1.136 1.43 1.712 3.386 1.619 6.467 4.062 8.927 7.335l.003.004c9.73 12.951 29.164 12.95 38.894-.001s29.163-12.952 38.894-.001l.003.004c9.73 12.95 29.162 12.95 38.893 0l.005-.007c9.73-12.95 29.162-12.95 38.892 0l.007.009c9.73 12.949 29.162 12.949 38.892 0l.007-.01c2.237-2.977 4.99-5.261 8.017-6.869 15.682-17.617 28.856-37.509 38.97-59.124-3.052-1.61-5.83-3.905-8.083-6.903z" fill="#6bd9e7"/><path d="m231.03 431.366c-.82-1.26-1.761-2.5-2.849-3.714-32.819-36.598 4.097-68.263 4.097-68.263-10.375-8.326-26.17-6.863-34.632 4.399l-.005.006c-9.73 12.95-29.163 12.95-38.893 0l-.004-.005c-9.73-12.951-29.163-12.95-38.893 0l-.002.003c-9.73 12.951-29.163 12.951-38.894 0v-.001c-9.73-12.951-29.164-12.951-38.894 0-2.253 2.998-5.029 5.293-8.081 6.903 10.119 21.628 23.303 41.533 38.997 59.157 3.011 1.607 5.751 3.885 7.978 6.85v.001c9.73 12.951 29.163 12.951 38.894 0l.002-.003c9.73-12.951 29.163-12.951 38.893 0l.004.005c9.73 12.95 29.163 12.95 38.893 0l.005-.007c8.129-10.817 23.027-12.59 33.384-5.331z" fill="#01d0fb"/><path d="m431.029 434.696-.008.01c-9.73 12.95-29.162 12.95-38.892 0l-.007-.009c-9.731-12.949-29.163-12.949-38.892 0l-.005.007c-9.73 12.95-29.162 12.95-38.893 0l-.003-.004c-9.731-12.951-29.164-12.95-38.894.001s-29.163 12.952-38.894.001l-.003-.004c-9.73-12.95-29.163-12.95-38.893 0l-.005.006c-1.22 1.624-2.593 3.044-4.08 4.26-4.849 10.951-14.962 41.005 5.899 66.455 18.153 4.291 37.078 6.581 56.541 6.581 74.379 0 141.008-33.151 185.941-85.475-4.164 1.551-7.98 4.269-10.912 8.171z" fill="#ade9f7"/><path d="m197.641 434.705c-9.73 12.95-29.163 12.95-38.893 0l-.004-.005c-9.73-12.95-29.163-12.95-38.893 0l-.002.003c-9.73 12.951-29.164 12.951-38.894 0v-.001c-2.925-3.894-6.731-6.608-10.883-8.16 33.716 39.256 79.647 67.716 131.899 79.479-26.821-31.876-4.325-71.322-4.325-71.322z" fill="#6bd9e7"/><path d="m419.246 84.321c-26.762 48.117-37.66 106.324 68.718 103.647-13.726-40.3-37.66-75.872-68.718-103.647z" fill="#2a428b"/><path d="m28.031 177.074c144.076 28.432 100.701-62.151 75.695-102.02-33.431 26.559-59.765 61.668-75.695 102.02z" fill="#2a428b"/><path d="m380.967 89.109c-6.101 1.896-13.852 5.879-17.04 14.195-3.332 8.692 1.109 14.677 5.264 18.105 4.427-7.989 8.8-15.3 11.665-21.532 1.673-3.64 1.529-7.506.111-10.768z" fill="#fce7de"/></symbol></svg>