<svg width="24" height="24" viewBox="0 0 24 24" fill="none" xmlns="http://www.w3.org/2000/svg">
<g clip-path="url(#clip0_509_4232)">
<g clip-path="url(#clip1_509_4232)">
<path d="M12 18.375C15.5208 18.375 18.375 15.5208 18.375 12C18.375 8.47918 15.5208 5.625 12 5.625C8.47918 5.625 5.625 8.47918 5.625 12C5.625 15.5208 8.47918 18.375 12 18.375Z" fill="#FF808D"/>
<path d="M12 0.375C9.7008 0.375 7.45323 1.05679 5.5415 2.33417C3.62978 3.61154 2.13978 5.42711 1.25991 7.55131C0.380037 9.6755 0.149823 12.0129 0.598376 14.2679C1.04693 16.523 2.1541 18.5943 3.77989 20.2201C5.40568 21.8459 7.47705 22.9531 9.73208 23.4016C11.9871 23.8502 14.3245 23.62 16.4487 22.7401C18.5729 21.8602 20.3885 20.3702 21.6658 18.4585C22.9432 16.5468 23.625 14.2992 23.625 12C23.6215 8.91792 22.3957 5.96308 20.2163 3.78372C18.0369 1.60436 15.0821 0.378474 12 0.375ZM12 22.875C9.84914 22.875 7.74657 22.2372 5.95818 21.0422C4.1698 19.8473 2.77592 18.1488 1.95282 16.1617C1.12971 14.1745 0.914351 11.9879 1.33397 9.87839C1.75358 7.76885 2.78932 5.83111 4.31022 4.31021C5.83112 2.78932 7.76886 1.75357 9.8784 1.33396C11.9879 0.914346 14.1745 1.12971 16.1617 1.95281C18.1488 2.77591 19.8473 4.16979 21.0422 5.95817C22.2372 7.74656 22.875 9.84913 22.875 12C22.8717 14.8832 21.7249 17.6474 19.6862 19.6862C17.6474 21.7249 14.8832 22.8717 12 22.875Z" fill="#404040"/>
<path d="M14.3625 5.67509C14.3161 5.6566 14.2665 5.64756 14.2166 5.6485C14.1667 5.64944 14.1174 5.66034 14.0718 5.68056C14.0261 5.70078 13.985 5.72991 13.9507 5.76625C13.9165 5.80258 13.8899 5.84539 13.8724 5.89216C13.8549 5.93893 13.8469 5.98871 13.849 6.0386C13.851 6.08849 13.8629 6.13747 13.8841 6.18267C13.9053 6.22788 13.9353 6.26839 13.9724 6.30184C14.0095 6.33529 14.0529 6.361 14.1 6.37746C15.4156 6.86889 16.5171 7.80622 17.2127 9.0262C17.9083 10.2462 18.1539 11.6715 17.9068 13.0539C17.6596 14.4364 16.9354 15.6883 15.8602 16.5918C14.785 17.4952 13.427 17.9929 12.0227 17.9981C10.6183 18.0033 9.25666 17.5157 8.17479 16.6203C7.09293 15.7249 6.35943 14.4784 6.10204 13.0978C5.84465 11.7172 6.07969 10.2901 6.76621 9.065C7.45273 7.83988 8.54724 6.8944 9.85912 6.39321C9.95206 6.35771 10.0271 6.28674 10.0677 6.19591C10.1083 6.10508 10.1112 6.00184 10.0757 5.9089C10.0402 5.81596 9.9692 5.74093 9.87838 5.70032C9.78755 5.6597 9.68431 5.65683 9.59137 5.69234C8.11547 6.25604 6.88405 7.3196 6.11159 8.69777C5.33914 10.0759 5.07458 11.6814 5.36399 13.2346C5.65341 14.7877 6.47846 16.1902 7.69546 17.1976C8.91245 18.2051 10.4443 18.7537 12.0242 18.748C13.604 18.7423 15.1319 18.1826 16.3415 17.1664C17.5512 16.1501 18.3661 14.7418 18.6443 13.1866C18.9225 11.6314 18.6463 10.0278 17.8639 8.65528C17.0815 7.28273 15.8424 6.22811 14.3625 5.67509Z" fill="#404040"/>
<path d="M12 11.25C12.0995 11.25 12.1948 11.2105 12.2652 11.1402C12.3355 11.0698 12.375 10.9745 12.375 10.875V4.5C12.375 4.40054 12.3355 4.30516 12.2652 4.23484C12.1948 4.16451 12.0995 4.125 12 4.125C11.9005 4.125 11.8052 4.16451 11.7348 4.23484C11.6645 4.30516 11.625 4.40054 11.625 4.5V10.875C11.625 10.9745 11.6645 11.0698 11.7348 11.1402C11.8052 11.2105 11.9005 11.25 12 11.25Z" fill="#404040"/>
</g>
</g>
<defs>
<clipPath id="clip0_509_4232">
<rect width="24" height="24" fill="white"/>
</clipPath>
<clipPath id="clip1_509_4232">
<rect width="24" height="24" fill="white"/>
</clipPath>
</defs>
</svg>
