<svg width="24" height="24" viewBox="0 0 24 24" fill="none" xmlns="http://www.w3.org/2000/svg">
<path fill-rule="evenodd" clip-rule="evenodd" d="M13.135 5.75C12.726 5.75 12.343 5.55 12.109 5.215L11.212 3.928C10.698 3.19 9.855 2.75 8.956 2.75C7.703 2.75 5.573 2.75 4 2.75C2.481 2.75 1.25 3.981 1.25 5.5V18.5C1.25 19.229 1.54 19.929 2.055 20.445C2.571 20.96 3.271 21.25 4 21.25H20C20.729 21.25 21.429 20.96 21.945 20.445C22.46 19.929 22.75 19.229 22.75 18.5V8.5C22.75 7.771 22.46 7.071 21.945 6.555C21.429 6.04 20.729 5.75 20 5.75H13.135ZM13.135 7.25H20C20.332 7.25 20.649 7.382 20.884 7.616C21.118 7.851 21.25 8.168 21.25 8.5V18.5C21.25 18.832 21.118 19.149 20.884 19.384C20.649 19.618 20.332 19.75 20 19.75H4C3.668 19.75 3.351 19.618 3.116 19.384C2.882 19.149 2.75 18.832 2.75 18.5V5.5C2.75 4.81 3.31 4.25 4 4.25H8.956C9.365 4.25 9.748 4.45 9.982 4.785L10.879 6.072C11.393 6.81 12.235 7.25 13.135 7.25Z" fill="#404040"/>
<path fill-rule="evenodd" clip-rule="evenodd" d="M15.25 10.75H10.25C9.836 10.75 9.5 11.086 9.5 11.5C9.5 11.914 9.836 12.25 10.25 12.25H15.25C15.664 12.25 16 11.914 16 11.5C16 11.086 15.664 10.75 15.25 10.75Z" fill="#FF808D"/>
<path fill-rule="evenodd" clip-rule="evenodd" d="M8.75 16.25H13.75C14.164 16.25 14.5 15.914 14.5 15.5C14.5 15.086 14.164 14.75 13.75 14.75H8.75C8.336 14.75 8 15.086 8 15.5C8 15.914 8.336 16.25 8.75 16.25Z" fill="#FF808D"/>
<path fill-rule="evenodd" clip-rule="evenodd" d="M13.22 10.5297L14.189 11.4997L13.22 12.4697C12.927 12.7617 12.927 13.2377 13.22 13.5297C13.512 13.8227 13.988 13.8227 14.28 13.5297L15.78 12.0297C16.073 11.7367 16.073 11.2627 15.78 10.9697L14.28 9.46975C13.988 9.17675 13.512 9.17675 13.22 9.46975C12.927 9.76175 12.927 10.2377 13.22 10.5297Z" fill="#FF808D"/>
<path fill-rule="evenodd" clip-rule="evenodd" d="M9.71999 13.4697L8.21999 14.9697C7.92699 15.2627 7.92699 15.7367 8.21999 16.0297L9.71999 17.5297C10.012 17.8227 10.488 17.8227 10.78 17.5297C11.073 17.2377 11.073 16.7617 10.78 16.4697L9.81099 15.4997L10.78 14.5297C11.073 14.2377 11.073 13.7617 10.78 13.4697C10.488 13.1768 10.012 13.1768 9.71999 13.4697Z" fill="#FF808D"/>
</svg>
