<svg width="24" height="24" viewBox="0 0 24 24" fill="none" xmlns="http://www.w3.org/2000/svg">
<g clip-path="url(#clip0_420_17197)">
<path d="M5.01916 14.7353L5.02539 14.7341V13.9512H0.386597V21.2937H5.02539V20.6172L5.01916 20.616L5.02539 20.6172V14.7341L5.01916 14.7353Z" fill="#FF808D"/>
<path d="M14.6896 12.0156C17.465 12.0156 19.7149 9.76564 19.7149 6.99021C19.7149 4.21478 17.465 1.96484 14.6896 1.96484C11.9141 1.96484 9.66418 4.21478 9.66418 6.99021C9.66418 9.76564 11.9141 12.0156 14.6896 12.0156ZM13.4045 5.76011C13.4744 5.1174 14.0455 4.64873 14.6896 4.70592C15.3993 4.70592 16.0599 5.14288 16.0599 5.725C16.0599 5.14288 15.3993 4.70592 14.6896 4.70592C14.0455 4.64873 13.4744 5.1174 13.4045 5.76011C13.4045 7.06326 15.9746 6.88734 15.9746 8.22032C15.9047 8.86302 15.3336 9.3317 14.6896 9.2745C13.9798 9.2745 13.3192 8.83754 13.3192 8.25542C13.3192 8.83754 13.9798 9.2745 14.6896 9.2745C15.3336 9.3317 15.9047 8.86302 15.9746 8.22032C15.9746 6.88734 13.4045 7.06326 13.4045 5.76011ZM12.3702 3.89957C12.2146 4.01678 12.068 4.14532 11.9315 4.28424C12.068 4.14532 12.2146 4.01678 12.3702 3.89957ZM11.3426 5.05738C10.7924 6.01039 10.6744 7.15273 11.0181 8.19804C11.3618 9.24336 12.1348 10.0927 13.1433 10.5331C12.1348 10.0927 11.3618 9.24336 11.0181 8.19804C10.6744 7.15273 10.7924 6.01039 11.3426 5.05738Z" fill="#FF808D"/>
<path d="M16.6925 6.11111H16.0129C15.9537 5.90883 15.849 5.71972 15.7054 5.55555H16.6925C16.774 5.55555 16.8523 5.52629 16.9099 5.47419C16.9676 5.4221 17 5.35145 17 5.27778C17 5.20411 16.9676 5.13345 16.9099 5.08136C16.8523 5.02927 16.774 5 16.6925 5H13.3099C13.2283 5 13.1501 5.02927 13.0924 5.08136C13.0348 5.13345 13.0024 5.20411 13.0024 5.27778C13.0024 5.35145 13.0348 5.4221 13.0924 5.47419C13.1501 5.52629 13.2283 5.55555 13.3099 5.55555H14.3862C14.5892 5.5562 14.7879 5.6087 14.9593 5.70701C15.1307 5.80531 15.2678 5.9454 15.3548 6.11111H13.3099C13.2283 6.11111 13.1501 6.14037 13.0924 6.19247C13.0348 6.24456 13.0024 6.31521 13.0024 6.38888C13.0024 6.46256 13.0348 6.53321 13.0924 6.5853C13.1501 6.6374 13.2283 6.66666 13.3099 6.66666H15.4625C15.4256 6.89738 15.2982 7.10846 15.1034 7.26142C14.9087 7.41439 14.6596 7.49905 14.4015 7.49999H13.3099C13.2956 7.49869 13.2812 7.49869 13.2668 7.49999C13.2465 7.49713 13.2257 7.49713 13.2053 7.49999C13.1844 7.50644 13.1647 7.51581 13.1469 7.52777L13.11 7.54721C13.0932 7.56096 13.0787 7.57687 13.067 7.59444C13.0567 7.60675 13.0474 7.61975 13.0393 7.63333C13.0365 7.6499 13.0365 7.66675 13.0393 7.68333C13.0174 7.71103 13.0046 7.74377 13.0024 7.77777C13.0009 7.7907 13.0009 7.80373 13.0024 7.81666C12.9992 7.83507 12.9992 7.85381 13.0024 7.87221C13.0095 7.89115 13.0199 7.90896 13.0331 7.92499C13.0331 7.92499 13.0331 7.94721 13.0547 7.95832L14.8997 9.90276C14.9527 9.95875 15.0282 9.99343 15.1095 9.99916C15.1908 10.0049 15.2713 9.9812 15.3333 9.93332C15.3953 9.88543 15.4337 9.81727 15.44 9.74381C15.4464 9.67036 15.4201 9.59764 15.3671 9.54165L13.9803 8.05555H14.3862C14.8093 8.05713 15.2178 7.91537 15.5309 7.65825C15.844 7.40112 16.039 7.04732 16.0775 6.66666H16.6925C16.774 6.66666 16.8523 6.6374 16.9099 6.5853C16.9676 6.53321 17 6.46256 17 6.38888C17 6.31521 16.9676 6.24456 16.9099 6.19247C16.8523 6.14037 16.774 6.11111 16.6925 6.11111Z" fill="#404040"/>
<path d="M23.9018 16.3968C23.6461 15.6278 22.9264 15.1091 22.1159 15.1099H14.8415C14.6592 14.8685 14.4219 14.6742 14.1495 14.5429L11.9449 13.5053C11.2482 13.1778 10.4618 13.0929 9.71136 13.2641L5.41194 14.2497V13.9525C5.41194 13.739 5.23885 13.5659 5.02537 13.5659H0.386567C0.173087 13.5659 0 13.739 0 13.9525V21.295C0 21.5084 0.173087 21.6815 0.386567 21.6815H5.02537C5.23885 21.6815 5.41194 21.5084 5.41194 21.295V21.0785L12.9887 22.4029C13.1854 22.4375 13.3847 22.4548 13.5844 22.4547C14.0433 22.4537 14.4976 22.3618 14.9208 22.184L22.869 18.7151C23.7641 18.3289 24.2133 17.3206 23.9018 16.3968ZM0.773134 20.9084V14.339H4.6388V20.9084H0.773134ZM22.5596 18.0091L14.6176 21.4746C14.1456 21.6719 13.6267 21.7297 13.1227 21.6413L5.41194 20.2938V15.0431L9.88332 14.0174C10.4652 13.8856 11.0745 13.9515 11.6148 14.2046L13.8183 15.2426C14.1125 15.3821 14.3334 15.6408 14.4251 15.9534C14.5195 16.2722 14.4736 16.6163 14.2986 16.8993C13.9989 17.3902 13.3749 17.5726 12.8581 17.3204L10.1802 16.0059C9.98808 15.9119 9.7561 15.9914 9.6621 16.1835C9.56791 16.3757 9.64757 16.6076 9.83972 16.7018L12.5174 18.0161C13.3909 18.4455 14.4476 18.139 14.9555 17.3087C15.2167 16.8823 15.3028 16.3715 15.196 15.883H22.1155C22.6412 15.8823 23.0953 16.2509 23.2027 16.7654C23.3101 17.2802 23.0413 17.7994 22.5592 18.0091H22.5596Z" fill="#404040"/>
<path d="M14.6895 12.4039C17.6784 12.4039 20.1015 9.98091 20.1015 6.99201C20.1015 4.0031 17.6784 1.58008 14.6895 1.58008C11.7006 1.58008 9.27759 4.0031 9.27759 6.99201C9.2808 9.97959 11.7019 12.4007 14.6895 12.4039ZM14.6895 2.35321C17.2515 2.35321 19.3283 4.43006 19.3283 6.99201C19.3283 9.55395 17.2515 11.6308 14.6895 11.6308C12.1276 11.6308 10.0507 9.55395 10.0507 6.99201C10.0536 4.43119 12.1287 2.35604 14.6895 2.35321Z" fill="#404040"/>
</g>
<defs>
<clipPath id="clip0_420_17197">
<rect width="24" height="24" fill="white"/>
</clipPath>
</defs>
</svg>
