<svg width="55" height="55" viewBox="0 0 55 55" fill="none" xmlns="http://www.w3.org/2000/svg">
<circle cx="28" cy="30" r="10" fill="#FF808D"/>
<path d="M50.7158 7.26172H44.3877V9.79297H41.0127V7.26172H34.2627V9.79297H30.8877V7.26172H24.1377V9.79297H20.7627V7.26172H14.0127V9.79297H10.6377V7.26172H4.30957C4.03254 7.26164 3.75821 7.31614 3.50225 7.42212C3.24629 7.52809 3.01372 7.68346 2.81783 7.87935C2.62194 8.07524 2.46657 8.30781 2.36059 8.56377C2.25462 8.81973 2.20011 9.09406 2.2002 9.37109V12.3242H52.8252V9.37109C52.8253 9.09406 52.7708 8.81973 52.6648 8.56377C52.5588 8.30781 52.4035 8.07524 52.2076 7.87935C52.0117 7.68346 51.7791 7.52809 51.5232 7.42212C51.2672 7.31614 50.9929 7.26164 50.7158 7.26172V7.26172Z" fill="#FF808D"/>
<path d="M50.7031 6.40625H45.2188V4.71875C45.2188 4.49497 45.1299 4.28036 44.9716 4.12213C44.8134 3.96389 44.5988 3.875 44.375 3.875H41C40.7762 3.875 40.5616 3.96389 40.4034 4.12213C40.2451 4.28036 40.1562 4.49497 40.1562 4.71875V6.40625H35.0938V4.71875C35.0938 4.49497 35.0049 4.28036 34.8466 4.12213C34.6884 3.96389 34.4738 3.875 34.25 3.875H30.875C30.6512 3.875 30.4366 3.96389 30.2784 4.12213C30.1201 4.28036 30.0312 4.49497 30.0312 4.71875V6.40625H24.9688V4.71875C24.9688 4.49497 24.8799 4.28036 24.7216 4.12213C24.5634 3.96389 24.3488 3.875 24.125 3.875H20.75C20.5262 3.875 20.3116 3.96389 20.1534 4.12213C19.9951 4.28036 19.9062 4.49497 19.9062 4.71875V6.40625H14.8438V4.71875C14.8438 4.49497 14.7549 4.28036 14.5966 4.12213C14.4384 3.96389 14.2238 3.875 14 3.875H10.625C10.4012 3.875 10.1866 3.96389 10.0284 4.12213C9.87014 4.28036 9.78125 4.49497 9.78125 4.71875V6.40625H4.29688C3.51393 6.40714 2.76331 6.71856 2.20969 7.27219C1.65606 7.82581 1.34464 8.57643 1.34375 9.35938V45.6406C1.34464 46.4236 1.65606 47.1742 2.20969 47.7278C2.76331 48.2814 3.51393 48.5929 4.29688 48.5938H50.7031C51.4861 48.5929 52.2367 48.2814 52.7903 47.7278C53.3439 47.1742 53.6554 46.4236 53.6562 45.6406V9.35938C53.6554 8.57643 53.3439 7.82581 52.7903 7.27219C52.2367 6.71856 51.4861 6.40714 50.7031 6.40625V6.40625ZM41.8438 5.5625H43.5312V8.9375H41.8438V5.5625ZM31.7188 5.5625H33.4062V8.9375H31.7188V5.5625ZM21.5938 5.5625H23.2812V8.9375H21.5938V5.5625ZM11.4688 5.5625H13.1562V8.9375H11.4688V5.5625ZM4.29688 8.09375H9.78125V9.78125C9.78125 10.005 9.87014 10.2196 10.0284 10.3779C10.1866 10.5361 10.4012 10.625 10.625 10.625H14C14.2238 10.625 14.4384 10.5361 14.5966 10.3779C14.7549 10.2196 14.8438 10.005 14.8438 9.78125V8.09375H19.9062V9.78125C19.9062 10.005 19.9951 10.2196 20.1534 10.3779C20.3116 10.5361 20.5262 10.625 20.75 10.625H24.125C24.3488 10.625 24.5634 10.5361 24.7216 10.3779C24.8799 10.2196 24.9688 10.005 24.9688 9.78125V8.09375H30.0312V9.78125C30.0312 10.005 30.1201 10.2196 30.2784 10.3779C30.4366 10.5361 30.6512 10.625 30.875 10.625H34.25C34.4738 10.625 34.6884 10.5361 34.8466 10.3779C35.0049 10.2196 35.0938 10.005 35.0938 9.78125V8.09375H40.1562V9.78125C40.1562 10.005 40.2451 10.2196 40.4034 10.3779C40.5616 10.5361 40.7762 10.625 41 10.625H44.375C44.5988 10.625 44.8134 10.5361 44.9716 10.3779C45.1299 10.2196 45.2188 10.005 45.2188 9.78125V8.09375H50.7031C51.0387 8.09411 51.3604 8.22757 51.5977 8.46484C51.8349 8.70212 51.9684 9.02382 51.9688 9.35938V11.4688H3.03125V9.35938C3.03161 9.02382 3.16507 8.70212 3.40234 8.46484C3.63962 8.22757 3.96132 8.09411 4.29688 8.09375V8.09375ZM50.7031 46.9062H4.29688C3.96132 46.9059 3.63962 46.7724 3.40234 46.5352C3.16507 46.2979 3.03161 45.9762 3.03125 45.6406V13.1562H51.9688V45.6406C51.9684 45.9762 51.8349 46.2979 51.5977 46.5352C51.3604 46.7724 51.0387 46.9059 50.7031 46.9062V46.9062Z" fill="#404040"/>
<path d="M27.5 19.0625C25.3306 19.0625 23.2099 19.7058 21.4061 20.9111C19.6023 22.1163 18.1964 23.8294 17.3662 25.8337C16.536 27.838 16.3188 30.0434 16.742 32.1711C17.1652 34.2989 18.2099 36.2533 19.7439 37.7873C21.2779 39.3213 23.2324 40.366 25.3601 40.7892C27.4878 41.2125 29.6933 40.9952 31.6976 40.165C33.7018 39.3348 35.4149 37.9289 36.6202 36.1251C37.8255 34.3213 38.4688 32.2007 38.4688 30.0312C38.4655 27.1232 37.3088 24.3351 35.2524 22.2788C33.1961 20.2225 30.4081 19.0658 27.5 19.0625V19.0625ZM27.5 39.3125C25.6643 39.3125 23.8699 38.7681 22.3436 37.7483C20.8173 36.7285 19.6277 35.2789 18.9252 33.583C18.2228 31.8871 18.039 30.0209 18.3971 28.2206C18.7552 26.4202 19.6392 24.7664 20.9372 23.4684C22.2352 22.1704 23.8889 21.2865 25.6893 20.9283C27.4897 20.5702 29.3559 20.754 31.0518 21.4565C32.7477 22.159 34.1972 23.3486 35.2171 24.8749C36.2369 26.4012 36.7813 28.1956 36.7813 30.0312C36.7785 32.4919 35.7997 34.851 34.0598 36.591C32.3198 38.331 29.9607 39.3097 27.5 39.3125V39.3125Z" fill="#404040"/>
<path d="M31.6705 27.6406H30.1653C30.0341 27.1926 29.8023 26.7738 29.4842 26.4102H31.6705C31.8511 26.4102 32.0243 26.3453 32.1521 26.23C32.2798 26.1146 32.3516 25.9581 32.3516 25.7949C32.3516 25.6318 32.2798 25.4753 32.1521 25.3599C32.0243 25.2445 31.8511 25.1797 31.6705 25.1797H24.1785C23.9979 25.1797 23.8247 25.2445 23.6969 25.3599C23.5692 25.4753 23.4975 25.6318 23.4975 25.7949C23.4975 25.9581 23.5692 26.1146 23.6969 26.23C23.8247 26.3453 23.9979 26.4102 24.1785 26.4102H26.5623C27.012 26.4116 27.4521 26.5279 27.8317 26.7456C28.2113 26.9633 28.515 27.2736 28.7078 27.6406H24.1785C23.9979 27.6406 23.8247 27.7054 23.6969 27.8208C23.5692 27.9362 23.4975 28.0927 23.4975 28.2559C23.4975 28.419 23.5692 28.5755 23.6969 28.6909C23.8247 28.8063 23.9979 28.8711 24.1785 28.8711H28.9461C28.8645 29.3821 28.5823 29.8496 28.151 30.1884C27.7197 30.5272 27.168 30.7147 26.5964 30.7168H24.1785C24.1468 30.7139 24.1149 30.7139 24.0832 30.7168C24.0381 30.7104 23.9921 30.7104 23.947 30.7168C23.9005 30.7311 23.8569 30.7518 23.8176 30.7783L23.7358 30.8214C23.6985 30.8518 23.6664 30.887 23.6405 30.926C23.6177 30.9532 23.5972 30.982 23.5792 31.0121C23.5731 31.0488 23.5731 31.0861 23.5792 31.1228C23.5307 31.1842 23.5023 31.2567 23.4975 31.332C23.4943 31.3607 23.4943 31.3895 23.4975 31.4181C23.4904 31.4589 23.4904 31.5004 23.4975 31.5412C23.5133 31.5831 23.5363 31.6226 23.5656 31.6581C23.5656 31.6581 23.5656 31.7073 23.6132 31.7319L27.6998 36.0385C27.8172 36.1626 27.9843 36.2393 28.1644 36.252C28.3445 36.2647 28.5228 36.2123 28.6601 36.1062C28.7974 36.0002 28.8824 35.8492 28.8964 35.6865C28.9105 35.5238 28.8524 35.3627 28.735 35.2387L25.6633 31.9472H26.5623C27.4996 31.9508 28.4042 31.6368 29.0977 31.0673C29.7911 30.4978 30.2231 29.7142 30.3083 28.8711H31.6705C31.8511 28.8711 32.0243 28.8063 32.1521 28.6909C32.2798 28.5755 32.3516 28.419 32.3516 28.2559C32.3516 28.0927 32.2798 27.9362 32.1521 27.8208C32.0243 27.7054 31.8511 27.6406 31.6705 27.6406Z" fill="#404040"/>
</svg>
