<svg width="36" height="36" viewBox="0 0 36 36" fill="none" xmlns="http://www.w3.org/2000/svg">
<path d="M16.3828 22.5C17.8746 22.5 19.3054 21.9074 20.3602 20.8525C21.4151 19.7976 22.0078 18.3668 22.0078 16.875C22.0078 16.7822 22.0057 16.6894 22.0014 16.5973C21.9471 15.4979 21.5714 14.4387 20.921 13.5508C20.2705 12.6629 19.3738 11.9853 18.3421 11.6021C17.3103 11.2188 16.1887 11.1466 15.1163 11.3945C14.044 11.6425 13.0679 12.1995 12.309 12.9968C11.5501 13.794 11.0418 14.7964 10.8471 15.8797C10.6523 16.963 10.7796 18.0796 11.2133 19.0912C11.647 20.1029 12.3679 20.9651 13.2868 21.571C14.2056 22.1769 15.2821 22.4999 16.3828 22.5Z" fill="#FF808D"/>
<path d="M18.6156 15.5556H17.7661C17.6921 15.2724 17.5612 15.0076 17.3817 14.7778H18.6156C18.7176 14.7778 18.8153 14.7368 18.8874 14.6639C18.9595 14.5909 19 14.492 19 14.3889C19 14.2857 18.9595 14.1868 18.8874 14.1139C18.8153 14.041 18.7176 14 18.6156 14H14.3874C14.2854 14 14.1876 14.041 14.1156 14.1139C14.0435 14.1868 14.003 14.2857 14.003 14.3889C14.003 14.492 14.0435 14.5909 14.1156 14.6639C14.1876 14.7368 14.2854 14.7778 14.3874 14.7778H15.7327C15.9865 14.7787 16.2349 14.8522 16.4491 14.9898C16.6634 15.1274 16.8348 15.3236 16.9435 15.5556H14.3874C14.2854 15.5556 14.1876 15.5965 14.1156 15.6695C14.0435 15.7424 14.003 15.8413 14.003 15.9444C14.003 16.0476 14.0435 16.1465 14.1156 16.2194C14.1876 16.2924 14.2854 16.3333 14.3874 16.3333H17.0781C17.032 16.6563 16.8727 16.9518 16.6293 17.166C16.3859 17.3801 16.0745 17.4987 15.7519 17.5H14.3874C14.3695 17.4982 14.3514 17.4982 14.3335 17.5C14.3081 17.496 14.2821 17.496 14.2567 17.5C14.2305 17.509 14.2058 17.5221 14.1836 17.5389L14.1375 17.5661C14.1165 17.5853 14.0983 17.6076 14.0837 17.6322C14.0708 17.6494 14.0593 17.6676 14.0491 17.6867C14.0457 17.7099 14.0457 17.7335 14.0491 17.7567C14.0217 17.7954 14.0057 17.8413 14.003 17.8889C14.0012 17.907 14.0012 17.9252 14.003 17.9433C13.999 17.9691 13.999 17.9953 14.003 18.0211C14.0119 18.0476 14.0249 18.0725 14.0414 18.095C14.0414 18.095 14.0414 18.1261 14.0683 18.1417L16.3746 20.8639C16.4409 20.9423 16.5352 20.9908 16.6369 20.9988C16.7385 21.0068 16.8391 20.9737 16.9166 20.9066C16.9941 20.8396 17.0421 20.7442 17.05 20.6413C17.0579 20.5385 17.0252 20.4367 16.9589 20.3583L15.2253 18.2778H15.7327C16.2617 18.28 16.7722 18.0815 17.1636 17.7215C17.555 17.3616 17.7988 16.8662 17.8468 16.3333H18.6156C18.7176 16.3333 18.8153 16.2924 18.8874 16.2194C18.9595 16.1465 19 16.0476 19 15.9444C19 15.8413 18.9595 15.7424 18.8874 15.6695C18.8153 15.5965 18.7176 15.5556 18.6156 15.5556Z" fill="#404040"/>
<path d="M5.13281 8.4375H1.19531V12.375C1.71239 12.375 2.22441 12.2732 2.70213 12.0753C3.17985 11.8774 3.61391 11.5874 3.97955 11.2217C4.34518 10.8561 4.63521 10.422 4.83309 9.94432C5.03097 9.4666 5.13281 8.95458 5.13281 8.4375Z" fill="#FF808D"/>
<path d="M31.5703 8.4375H27.6328C27.6322 8.95476 27.7336 9.46708 27.9312 9.94509C28.1288 10.4231 28.4189 10.8574 28.7846 11.2232C29.1504 11.589 29.5847 11.879 30.0627 12.0766C30.5407 12.2743 31.053 12.3757 31.5703 12.375V21.375C30.526 21.375 29.5245 21.7898 28.7861 22.5283C28.0477 23.2667 27.6328 24.2682 27.6328 25.3125H5.13281C5.13281 25.2197 5.1293 25.1276 5.12297 25.0362C5.05324 24.0421 4.60912 23.1115 3.8802 22.432C3.15128 21.7526 2.1918 21.3748 1.19531 21.375V25.3125H4.57031V28.6875H34.9453V11.8125H31.5703V8.4375Z" fill="#FF808D"/>
<path d="M34.875 11.25H32.0625V8.4375C32.0625 8.28832 32.0032 8.14524 31.8977 8.03975C31.7923 7.93426 31.6492 7.875 31.5 7.875H1.125C0.975816 7.875 0.832742 7.93426 0.727252 8.03975C0.621763 8.14524 0.5625 8.28832 0.5625 8.4375V25.3125C0.5625 25.4617 0.621763 25.6048 0.727252 25.7102C0.832742 25.8157 0.975816 25.875 1.125 25.875H3.9375V28.6875C3.9375 28.8367 3.99676 28.9798 4.10225 29.0852C4.20774 29.1907 4.35082 29.25 4.5 29.25H34.875C35.0242 29.25 35.1673 29.1907 35.2727 29.0852C35.3782 28.9798 35.4375 28.8367 35.4375 28.6875V11.8125C35.4375 11.6633 35.3782 11.5202 35.2727 11.4148C35.1673 11.3093 35.0242 11.25 34.875 11.25ZM30.9375 9V11.7654C30.247 11.6475 29.6101 11.3181 29.1147 10.8228C28.6194 10.3274 28.29 9.69053 28.1721 9H30.9375ZM1.6875 9H4.45289C4.33497 9.69053 4.00561 10.3274 3.51026 10.8228C3.01492 11.3181 2.37803 11.6475 1.6875 11.7654V9ZM1.6875 24.75V21.9846C2.37803 22.1025 3.01492 22.4319 3.51026 22.9272C4.00561 23.4226 4.33497 24.0595 4.45289 24.75H1.6875ZM1.6875 20.8491V12.9009C2.67798 12.7747 3.59849 12.3231 4.30454 11.617C5.01058 10.911 5.46218 9.99048 5.58844 9H27.0366C27.1628 9.99048 27.6144 10.911 28.3205 11.617C29.0265 12.3231 29.947 12.7747 30.9375 12.9009V20.8491C29.947 20.9753 29.0265 21.4269 28.3205 22.133C27.6144 22.839 27.1628 23.7595 27.0366 24.75H5.58844C5.46218 23.7595 5.01058 22.839 4.30454 22.133C3.59849 21.4269 2.67798 20.9753 1.6875 20.8491ZM30.9375 21.9846V24.75H28.1721C28.29 24.0595 28.6194 23.4226 29.1147 22.9272C29.6101 22.4319 30.247 22.1025 30.9375 21.9846ZM34.3125 28.125H5.0625V25.875H31.5C31.6492 25.875 31.7923 25.8157 31.8977 25.7102C32.0032 25.6048 32.0625 25.4617 32.0625 25.3125V12.375H34.3125V28.125Z" fill="#404040"/>
<path d="M16.3125 10.6875C15.0887 10.6875 13.8924 11.0504 12.8749 11.7303C11.8574 12.4102 11.0643 13.3765 10.596 14.5071C10.1277 15.6378 10.0051 16.8819 10.2439 18.0821C10.4826 19.2824 11.0719 20.3849 11.9373 21.2502C12.8026 22.1155 13.9051 22.7048 15.1054 22.9436C16.3056 23.1823 17.5497 23.0598 18.6804 22.5915C19.811 22.1232 20.7773 21.3301 21.4572 20.3126C22.1371 19.2951 22.5 18.0988 22.5 16.875C22.4981 15.2345 21.8456 13.6618 20.6857 12.5018C19.5257 11.3419 17.953 10.6894 16.3125 10.6875ZM16.3125 21.9375C15.3112 21.9375 14.3325 21.6406 13.4999 21.0843C12.6674 20.528 12.0185 19.7374 11.6354 18.8123C11.2522 17.8873 11.1519 16.8694 11.3473 15.8873C11.5426 14.9053 12.0248 14.0033 12.7328 13.2953C13.4408 12.5873 14.3428 12.1051 15.3249 11.9098C16.3069 11.7144 17.3248 11.8147 18.2498 12.1979C19.1749 12.581 19.9655 13.2299 20.5218 14.0624C21.0781 14.8949 21.375 15.8737 21.375 16.875C21.3735 18.2172 20.8396 19.5039 19.8905 20.453C18.9415 21.4021 17.6547 21.9359 16.3125 21.9375Z" fill="#404040"/>
</svg>
