<svg width="24" height="24" viewBox="0 0 24 24" fill="none" xmlns="http://www.w3.org/2000/svg">
<g clip-path="url(#clip0_1505_2697)">
<path d="M10 24C8.07 24 6.5 22.43 6.5 20.5C6.5 20.224 6.724 20 7 20C7.276 20 7.5 20.224 7.5 20.5C7.5 21.878 8.622 23 10 23C11.378 23 12.5 21.878 12.5 20.5C12.5 20.224 12.724 20 13 20C13.276 20 13.5 20.224 13.5 20.5C13.5 22.43 11.93 24 10 24Z" fill="#404040"/>
<path d="M18.5 20.9999H1.5C0.673 20.9999 0 20.3269 0 19.4999C0 19.0609 0.191 18.6459 0.525 18.3599C0.545 18.3429 0.567 18.3269 0.589 18.3139C2.122 16.9829 3 15.0649 3 13.0399V9.9999C3 6.7079 5.337 3.8269 8.558 3.1509C8.824 3.0959 9.093 3.2669 9.15 3.5379C9.207 3.8079 9.034 4.0729 8.763 4.1299C6.003 4.7089 4 7.1779 4 9.9999V13.0399C4 15.3819 2.974 17.5989 1.184 19.1209C1.169 19.1339 1.154 19.1449 1.138 19.1559C1.049 19.2489 1 19.3719 1 19.4999C1 19.7759 1.224 19.9999 1.5 19.9999H18.5C18.776 19.9999 19 19.7759 19 19.4999C19 19.3709 18.95 19.2479 18.862 19.1549C18.847 19.1449 18.832 19.1339 18.818 19.1219C17.886 18.3369 17.157 17.3539 16.652 16.1999C16.541 15.9469 16.656 15.6519 16.909 15.5409C17.164 15.4319 17.457 15.5459 17.568 15.7979C18.003 16.7889 18.623 17.6349 19.413 18.3139C19.435 18.3269 19.456 18.3419 19.475 18.3589C19.809 18.6459 20 19.0609 20 19.4999C20 20.3269 19.327 20.9999 18.5 20.9999Z" fill="#404040"/>
<path d="M17.5 13C13.916 13 11 10.084 11 6.5C11 2.916 13.916 0 17.5 0C21.084 0 24 2.916 24 6.5C24 10.084 21.084 13 17.5 13ZM17.5 1C14.467 1 12 3.467 12 6.5C12 9.533 14.467 12 17.5 12C20.533 12 23 9.533 23 6.5C23 3.467 20.533 1 17.5 1Z" fill="#FF808D"/>
<path d="M17.5 1C14.467 1 12 3.467 12 6.5C12 9.533 14.467 12 17.5 12C20.533 12 23 9.533 23 6.5C23 3.467 20.533 1 17.5 1Z" fill="#FF808D"/>
</g>
<defs>
<clipPath id="clip0_1505_2697">
<rect width="24" height="24" fill="white"/>
</clipPath>
</defs>
</svg>
