<svg width="24" height="24" viewBox="0 0 24 24" fill="none" xmlns="http://www.w3.org/2000/svg">
<g clip-path="url(#clip0_484_7631)">
<path d="M13.5 21H12.5C12.224 21 12 20.776 12 20.5V19H4V20.5C4 20.776 3.776 21 3.5 21H2.5C1.121 21 0 19.879 0 18.5V2.5C0 1.121 1.121 0 2.5 0H11.5C11.776 0 12 0.224 12 0.5C12 0.776 11.776 1 11.5 1H2.5C1.673 1 1 1.673 1 2.5V18.5C1 19.327 1.673 20 2.5 20H3V18.5C3 18.224 3.224 18 3.5 18H12.5C12.776 18 13 18.224 13 18.5V20H13.5C14.327 20 15 19.327 15 18.5V15.5C15 15.224 15.224 15 15.5 15C15.776 15 16 15.224 16 15.5V18.5C16 19.879 14.879 21 13.5 21Z" fill="white"/>
<path d="M8.49999 8.00001H4.5C3.673 8.00001 3 7.32701 3 6.50001V4.5C3 3.673 3.673 3 4.5 3H9.49999C9.77599 3 9.99999 3.224 9.99999 3.5C9.99999 3.776 9.77599 4 9.49999 4H4.5C4.225 4 4 4.225 4 4.5V6.50001C4 6.77501 4.225 7.00001 4.5 7.00001H8.49999C8.77599 7.00001 8.99999 7.22401 8.99999 7.50001C8.99999 7.77601 8.77599 8.00001 8.49999 8.00001Z" fill="white"/>
<path d="M4 10C4.55228 10 5 10.4477 5 11C5 11.5523 4.55228 12 4 12C3.44772 12 3 11.5523 3 11C3 10.4477 3.44772 10 4 10Z" fill="white"/>
<path d="M8 12C8.55228 12 9 11.5523 9 11C9 10.4477 8.55228 10 8 10C7.44771 10 7 10.4477 7 11C7 11.5523 7.44771 12 8 12Z" fill="white"/>
<path d="M4 16C4.55229 16 5 15.5523 5 15C5 14.4477 4.55229 14 4 14C3.44772 14 3 14.4477 3 15C3 15.5523 3.44772 16 4 16Z" fill="white"/>
<path d="M8 16C8.55228 16 9 15.5523 9 15C9 14.4477 8.55228 14 8 14C7.44771 14 7 14.4477 7 15C7 15.5523 7.44771 16 8 16Z" fill="white"/>
<path d="M12 16C12.5523 16 13 15.5523 13 15C13 14.4477 12.5523 14 12 14C11.4477 14 11 14.4477 11 15C11 15.5523 11.4477 16 12 16Z" fill="white"/>
<path d="M12.5 24H3.5C3.224 24 3 23.776 3 23.5V18.5C3 18.224 3.224 18 3.5 18H12.5C12.776 18 13 18.224 13 18.5V23.5C13 23.776 12.776 24 12.5 24ZM4 23H12V19H4V23Z" fill="white"/>
<path d="M13.5 19H2.5C2.224 19 2 18.776 2 18.5C2 18.224 2.224 18 2.5 18H13.5C13.776 18 14 18.224 14 18.5C14 18.776 13.776 19 13.5 19Z" fill="white"/>
<path d="M17 14C13.141 14 10 10.859 10 7C10 3.141 13.141 0 17 0C20.859 0 24 3.141 24 7C24 10.859 20.859 14 17 14ZM17 1C13.691 1 11 3.691 11 7C11 10.309 13.691 13 17 13C20.309 13 23 10.309 23 7C23 3.691 20.309 1 17 1Z" fill="white"/>
<path d="M19 4.3C19 4.1344 18.888 4 18.75 4H16.5001H15.2501C15.1121 4 15.0001 4.1344 15.0001 4.3C15.0001 4.4656 15.1121 4.6 15.2501 4.6H16.5001C17.0515 4.6 17.5 5.1382 17.5 5.8H15.2501C15.1121 5.8 15.0001 5.9344 15.0001 6.1C15.0001 6.2656 15.1121 6.4 15.2501 6.4H17.361C17.1875 6.757 16.8686 7 16.5001 7H15.2501C15.1441 7 15.0496 7.0804 15.0141 7.201C14.9791 7.321 15.0106 7.4548 15.0936 7.5346L17.5935 9.9346C17.64 9.9784 17.695 10 17.75 10C17.823 10 17.896 9.9616 17.9455 9.8872C18.0315 9.7576 18.0145 9.5692 17.9065 9.4654L15.9631 7.6H16.5001C17.151 7.6 17.701 7.0966 17.908 6.4H18.75C18.888 6.4 19 6.2656 19 6.1C19 5.9344 18.888 5.8 18.75 5.8H18C18 5.3374 17.8495 4.9192 17.61 4.6H18.75C18.888 4.6 19 4.4656 19 4.3Z" fill="white"/>
</g>
<defs>
<clipPath id="clip0_484_7631">
<rect width="24" height="24" fill="white"/>
</clipPath>
</defs>
</svg>
