<svg width="55" height="55" viewBox="0 0 55 55" fill="none" xmlns="http://www.w3.org/2000/svg">
<path d="M13.8819 41.2127L11.549 38.7109L8.0896 41.7326L18.4466 52.8395L21.9071 49.8179L19.6057 47.3499L13.8819 41.2127Z" fill="#FF808D"/>
<path d="M35.078 37.8868C35.3548 37.8965 35.6308 37.8516 35.8903 37.7547C36.1498 37.6577 36.3876 37.5105 36.5902 37.3216C36.7927 37.1326 36.9561 36.9056 37.0708 36.6535C37.1856 36.4014 37.2496 36.1291 37.2591 35.8523L37.2728 35.4473L28.9629 37.524L35.078 37.8868Z" fill="#FF808D"/>
<path d="M3.04077 2.17969V27.4922H51.9783V2.17969H3.04077ZM49.447 19.8984C48.1044 19.8984 46.8167 20.4318 45.8673 21.3812C44.9179 22.3306 44.3845 23.6183 44.3845 24.9609H10.6345C10.6345 23.6183 10.1012 22.3306 9.15175 21.3812C8.20235 20.4318 6.91468 19.8984 5.57202 19.8984V9.77344C6.91468 9.77344 8.20235 9.24007 9.15175 8.29067C10.1012 7.34126 10.6345 6.0536 10.6345 4.71094H44.3845C44.3845 6.0536 44.9179 7.34126 45.8673 8.29067C46.8167 9.24007 48.1044 9.77344 49.447 9.77344V19.8984Z" fill="#FF808D"/>
<path d="M27.5095 21.5859C31.2374 21.5859 34.2595 18.5639 34.2595 14.8359C34.2595 11.108 31.2374 8.08594 27.5095 8.08594C23.7816 8.08594 20.7595 11.108 20.7595 14.8359C20.7595 18.5639 23.7816 21.5859 27.5095 21.5859Z" fill="#FF808D"/>
<path d="M46.1269 31.2714L45.5511 30.6544C45.0165 30.0824 44.2769 29.7459 43.4945 29.7186C42.7121 29.6913 41.9508 29.9755 41.3777 30.5088L37.8825 33.7678C37.6591 33.2562 37.2958 32.8182 36.8343 32.5041C36.3729 32.1901 35.8321 32.0128 35.2742 31.9928H35.2594L24.7969 31.8198C23.4861 31.794 22.217 32.2815 21.2606 33.1782L13.9147 40.0284L12.1576 38.1448C12.0081 37.9845 11.8022 37.8886 11.5833 37.8774C11.3645 37.8662 11.1498 37.9405 10.9848 38.0846L7.52538 41.1053C7.4401 41.1797 7.37066 41.2706 7.32119 41.3724C7.27173 41.4742 7.24324 41.5849 7.23744 41.698C7.23163 41.8111 7.24862 41.9241 7.2874 42.0305C7.32618 42.1368 7.38595 42.2343 7.46315 42.3171L17.8212 53.424C17.9707 53.5839 18.1764 53.6796 18.395 53.6908C18.6136 53.702 18.828 53.6279 18.993 53.4841L22.4534 50.4625C22.5385 50.388 22.6078 50.2972 22.6571 50.1954C22.7065 50.0936 22.7348 49.983 22.7405 49.87C22.7462 49.7571 22.7292 49.6441 22.6904 49.5379C22.6515 49.4317 22.5918 49.3344 22.5146 49.2517L20.7891 47.4007L23.6494 44.7323L35.0274 44.1259C35.0338 44.1261 35.0401 44.1257 35.0464 44.1248C36.192 44.0364 37.2739 43.5624 38.1155 42.7801L45.9814 35.4448C46.5538 34.9104 46.8907 34.1707 46.918 33.3882C46.9453 32.6056 46.6607 31.8443 46.1269 31.2714V31.2714ZM18.4984 51.6764L9.29198 41.8035L11.4794 39.8924L20.6868 49.7653L18.4984 51.6764ZM44.8297 34.2108L36.9649 41.5451C36.4063 42.0653 35.6882 42.3813 34.9272 42.4416L23.2539 43.0638C23.0561 43.0743 22.8682 43.1543 22.7234 43.2895L19.6374 46.1667L15.0653 41.2635L22.4112 34.4133C23.0488 33.8153 23.8946 33.4899 24.7685 33.5062L35.2225 33.6792C35.5567 33.693 35.8718 33.8384 36.0992 34.0835C36.3266 34.3287 36.4478 34.6539 36.4365 34.9881L36.407 35.8318C36.3949 36.1656 36.2515 36.4811 36.008 36.7097C35.7644 36.9382 35.4404 37.0613 35.1065 37.0521L29.0041 36.6903C28.8925 36.682 28.7805 36.696 28.6744 36.7314C28.5682 36.7668 28.4702 36.823 28.386 36.8966C28.3018 36.9703 28.2331 37.0599 28.1839 37.1603C28.1346 37.2608 28.1059 37.37 28.0992 37.4817C28.0926 37.5933 28.1082 37.7052 28.1452 37.8108C28.1822 37.9163 28.2398 38.0135 28.3147 38.0966C28.3895 38.1797 28.4802 38.2471 28.5814 38.2948C28.6825 38.3426 28.7922 38.3697 28.9039 38.3747L35.019 38.7375C35.0253 38.7375 35.0327 38.7386 35.039 38.7386C35.8215 38.7646 36.5823 38.4793 37.1549 37.9453C37.7274 37.4114 38.0649 36.6722 38.0934 35.8898L38.0945 35.8782L42.5284 31.7428C42.6499 31.6294 42.7925 31.541 42.9482 31.4827C43.1039 31.4244 43.2695 31.3974 43.4356 31.4032C43.6018 31.409 43.7651 31.4474 43.9164 31.5164C44.0676 31.5853 44.2038 31.6834 44.3171 31.805L44.893 32.422C45.1216 32.6677 45.2434 32.9941 45.2315 33.3295C45.2196 33.6649 45.0751 33.9819 44.8297 34.2108V34.2108Z" fill="#404040"/>
<path d="M51.9688 1.34375H3.03125C2.80747 1.34375 2.59286 1.43264 2.43463 1.59088C2.27639 1.74911 2.1875 1.96372 2.1875 2.1875V27.5C2.1875 27.7238 2.27639 27.9384 2.43463 28.0966C2.59286 28.2549 2.80747 28.3438 3.03125 28.3438H51.9688C52.1925 28.3438 52.4071 28.2549 52.5654 28.0966C52.7236 27.9384 52.8125 27.7238 52.8125 27.5V2.1875C52.8125 1.96372 52.7236 1.74911 52.5654 1.59088C52.4071 1.43264 52.1925 1.34375 51.9688 1.34375ZM51.125 26.6562H3.875V3.03125H51.125V26.6562Z" fill="#404040"/>
<path d="M27.5 22.4375C29.0019 22.4375 30.4701 21.9921 31.7189 21.1577C32.9676 20.3233 33.941 19.1373 34.5157 17.7498C35.0905 16.3622 35.2408 14.8353 34.9478 13.3623C34.6548 11.8892 33.9316 10.5362 32.8696 9.47416C31.8076 8.41216 30.4545 7.68892 28.9815 7.39592C27.5084 7.10291 25.9816 7.25329 24.594 7.82804C23.2064 8.4028 22.0204 9.37611 21.186 10.6249C20.3516 11.8737 19.9062 13.3419 19.9062 14.8438C19.9085 16.857 20.7093 18.7872 22.1329 20.2108C23.5565 21.6345 25.4867 22.4352 27.5 22.4375V22.4375ZM27.5 8.9375C28.6681 8.9375 29.8101 9.2839 30.7813 9.93289C31.7526 10.5819 32.5096 11.5043 32.9567 12.5835C33.4037 13.6628 33.5207 14.8503 33.2928 15.996C33.0649 17.1417 32.5024 18.1941 31.6764 19.0201C30.8503 19.8461 29.798 20.4086 28.6523 20.6365C27.5066 20.8644 26.319 20.7474 25.2398 20.3004C24.1606 19.8534 23.2381 19.0964 22.5891 18.1251C21.9401 17.1538 21.5938 16.0119 21.5938 14.8438C21.5955 13.2779 22.2184 11.7766 23.3256 10.6694C24.4329 9.56213 25.9341 8.93929 27.5 8.9375Z" fill="#404040"/>
</svg>
