<svg width="55" height="55" viewBox="0 0 55 55" fill="none" xmlns="http://www.w3.org/2000/svg">
<path d="M42.6875 7.25C41.3448 7.25 40.0572 6.71663 39.1078 5.76723C38.1584 4.81782 37.625 3.53016 37.625 2.1875H17.375C17.375 3.53016 16.8416 4.81782 15.8922 5.76723C14.9428 6.71663 13.6552 7.25 12.3125 7.25V15.35L2.1875 20.75V23.2812L27.5 36.7812L52.8125 23.2812V20.75L42.6875 15.35V7.25ZM12.3125 20.75V15.6875C13.6552 15.6875 14.9428 16.2209 15.8922 17.1703C16.8416 18.1197 17.375 19.4073 17.375 20.75H12.3125ZM42.6875 20.75H37.625C37.625 19.4073 38.1584 18.1197 39.1078 17.1703C40.0572 16.2209 41.3448 15.6875 42.6875 15.6875V20.75ZM27.5 16.5312C26.3092 16.5316 25.1563 16.1122 24.244 15.3469C23.3317 14.5815 22.7183 13.5191 22.5116 12.3464C22.3049 11.1736 22.5181 9.96557 23.1138 8.93443C23.7094 7.90328 24.6494 7.11504 25.7686 6.70821C26.8878 6.30137 28.1145 6.30196 29.2333 6.70988C30.3521 7.1178 31.2913 7.90694 31.8859 8.93866C32.4806 9.97038 32.6926 11.1787 32.4848 12.3512C32.2769 13.5237 31.6625 14.5855 30.7495 15.35C29.8398 16.1151 28.6887 16.5336 27.5 16.5312Z" fill="#FF808D"/>
<path d="M53.2091 20.0054L43.5312 14.8438V2.1875C43.5312 1.96372 43.4424 1.74911 43.2841 1.59088C43.1259 1.43264 42.9113 1.34375 42.6875 1.34375H12.3125C12.0887 1.34375 11.8741 1.43264 11.7159 1.59088C11.5576 1.74911 11.4688 1.96372 11.4688 2.1875V14.8438L1.79094 20.0054C1.65593 20.0773 1.54301 20.1846 1.46425 20.3158C1.38548 20.4469 1.34383 20.597 1.34375 20.75V50.7031C1.34462 51.4861 1.65603 52.2367 2.20966 52.7903C2.76329 53.344 3.51392 53.6554 4.29688 53.6562H50.7031C51.4861 53.6554 52.2367 53.344 52.7903 52.7903C53.344 52.2367 53.6554 51.4861 53.6562 50.7031V20.75C53.6562 20.597 53.6145 20.4469 53.5358 20.3158C53.457 20.1846 53.3441 20.0773 53.2091 20.0054ZM41.8438 3.03125V6.32188C41.0338 6.15483 40.2904 5.75416 39.7056 5.16936C39.1208 4.58455 38.7202 3.84124 38.5531 3.03125H41.8438ZM13.1562 3.03125H16.4469C16.2798 3.84124 15.8792 4.58455 15.2944 5.16936C14.7096 5.75416 13.9662 6.15483 13.1562 6.32188V3.03125ZM13.1562 8.03258C14.4173 7.84857 15.5852 7.26241 16.4863 6.3613C17.3874 5.46018 17.9736 4.29226 18.1576 3.03125H36.8424C37.0264 4.29226 37.6126 5.46018 38.5137 6.3613C39.4148 7.26241 40.5827 7.84857 41.8438 8.03258V14.9049C40.5827 15.0889 39.4148 15.6751 38.5137 16.5762C37.6126 17.4773 37.0264 18.6452 36.8424 19.9062H18.1576C17.9736 18.6452 17.3874 17.4773 16.4863 16.5762C15.5852 15.6751 14.4173 15.0889 13.1562 14.9049V8.03258ZM41.8438 16.6156V19.9062H38.5531C38.7202 19.0963 39.1208 18.3529 39.7056 17.7681C40.2904 17.1833 41.0338 16.7827 41.8438 16.6156ZM13.1562 16.6156C13.9662 16.7827 14.7096 17.1833 15.2944 17.7681C15.8792 18.3529 16.2798 19.0963 16.4469 19.9062H13.1562V16.6156ZM51.9688 50.7031C51.9685 51.0387 51.835 51.3605 51.5977 51.5977C51.3605 51.835 51.0387 51.9685 50.7031 51.9688H4.29688C3.9613 51.9685 3.63954 51.835 3.40225 51.5977C3.16496 51.3605 3.03153 51.0387 3.03125 50.7031V24.6871L27.1034 37.5259C27.2255 37.591 27.3617 37.625 27.5 37.625C27.6383 37.625 27.7745 37.591 27.8966 37.5259L51.9688 24.6871V50.7031ZM51.9688 22.775L27.5 35.8246L3.03125 22.775V21.2563L11.4688 16.7559V20.75C11.4688 20.9738 11.5576 21.1884 11.7159 21.3466C11.8741 21.5049 12.0887 21.5938 12.3125 21.5938H24.125C24.125 21.5938 24.745 21.5938 24.9688 21.5938C25.1925 21.5938 25.8125 21.5938 25.8125 21.5938H26.6562C26.6562 21.5938 27.2762 21.5938 27.5 21.5938C27.7238 21.5938 28.3438 21.5938 28.3438 21.5938H29.1875C29.1875 21.5938 29.8075 21.5938 30.0312 21.5938C30.255 21.5938 30.875 21.5938 30.875 21.5938H42.6875C42.9113 21.5938 43.1259 21.5049 43.2841 21.3466C43.4424 21.1884 43.5312 20.9738 43.5312 20.75V16.7559L51.9688 21.2563V22.775Z" fill="#404040"/>
<path d="M27.5 5.5625C26.3319 5.5625 25.1899 5.9089 24.2187 6.55788C23.2474 7.20687 22.4904 8.1293 22.0433 9.20853C21.5963 10.2878 21.4793 11.4753 21.7072 12.621C21.9351 13.7667 22.4977 14.8191 23.3237 15.6451C24.1497 16.4711 25.2021 17.0336 26.3478 17.2615C27.4935 17.4894 28.681 17.3724 29.7602 16.9254C30.8395 16.4784 31.7619 15.7214 32.4109 14.7501C33.0599 13.7788 33.4063 12.6369 33.4063 11.4688C33.4045 9.90286 32.7817 8.4016 31.6744 7.29434C30.5672 6.18709 29.0659 5.56426 27.5 5.5625V5.5625ZM27.5 15.6875C26.6656 15.6875 25.85 15.4401 25.1562 14.9765C24.4624 14.513 23.9217 13.8541 23.6024 13.0832C23.2831 12.3123 23.1995 11.4641 23.3623 10.6457C23.5251 9.82736 23.9269 9.07565 24.5169 8.48564C25.1069 7.89564 25.8586 7.49384 26.677 7.33106C27.4953 7.16828 28.3436 7.25183 29.1145 7.57113C29.8853 7.89044 30.5442 8.43117 31.0078 9.12494C31.4713 9.81871 31.7188 10.6344 31.7188 11.4688C31.7175 12.5872 31.2726 13.6596 30.4817 14.4505C29.6908 15.2414 28.6185 15.6862 27.5 15.6875V15.6875Z" fill="#404040"/>
</svg>
