<svg width="20" height="20" viewBox="0 0 20 20" fill="none" xmlns="http://www.w3.org/2000/svg">
<path fill-rule="evenodd" clip-rule="evenodd" d="M10 1.04102C5.05585 1.04102 1.04169 5.05518 1.04169 9.99935C1.04169 14.9435 5.05585 18.9577 10 18.9577C14.9442 18.9577 18.9584 14.9435 18.9584 9.99935C18.9584 5.05518 14.9442 1.04102 10 1.04102ZM10 2.29102C14.2542 2.29102 17.7084 5.74518 17.7084 9.99935C17.7084 14.2535 14.2542 17.7077 10 17.7077C5.74585 17.7077 2.29169 14.2535 2.29169 9.99935C2.29169 5.74518 5.74585 2.29102 10 2.29102Z" fill="#80A0FF"/>
<path fill-rule="evenodd" clip-rule="evenodd" d="M5.83337 10.625H14.1667C14.5117 10.625 14.7917 10.345 14.7917 10C14.7917 9.655 14.5117 9.375 14.1667 9.375H5.83337C5.48837 9.375 5.20837 9.655 5.20837 10C5.20837 10.345 5.48837 10.625 5.83337 10.625Z" fill="#80A0FF"/>
<path fill-rule="evenodd" clip-rule="evenodd" d="M10.625 14.1654V5.83203C10.625 5.48703 10.345 5.20703 10 5.20703C9.655 5.20703 9.375 5.48703 9.375 5.83203V14.1654C9.375 14.5104 9.655 14.7904 10 14.7904C10.345 14.7904 10.625 14.5104 10.625 14.1654Z" fill="#80A0FF"/>
</svg>
