<svg width="24" height="24" viewBox="0 0 24 24" fill="none" xmlns="http://www.w3.org/2000/svg">
<g clip-path="url(#clip0_484_7646)">
<path d="M21.5 24H2.5C1.121 24 0 22.878 0 21.5V4.5C0 3.122 1.121 2 2.5 2H21.5C22.879 2 24 3.122 24 4.5V21.5C24 22.878 22.879 24 21.5 24ZM2.5 3C1.673 3 1 3.673 1 4.5V21.5C1 22.327 1.673 23 2.5 23H21.5C22.327 23 23 22.327 23 21.5V4.5C23 3.673 22.327 3 21.5 3H2.5Z" fill="white"/>
<path d="M23.5 9.00001H0.5C0.224 9.00001 0 8.776 0 8.5C0 8.224 0.224 8 0.5 8H23.5C23.776 8 24 8.224 24 8.5C24 8.776 23.776 9.00001 23.5 9.00001Z" fill="white"/>
<path d="M5.5 5C5.224 5 5 4.776 5 4.5V0.5C5 0.224 5.224 0 5.5 0C5.776 0 6 0.224 6 0.5V4.5C6 4.776 5.776 5 5.5 5Z" fill="white"/>
<path d="M18.5 5C18.224 5 18 4.776 18 4.5V0.5C18 0.224 18.224 0 18.5 0C18.776 0 19 0.224 19 0.5V4.5C19 4.776 18.776 5 18.5 5Z" fill="white"/>
<path d="M16.5 21H13.5C13.224 21 13 20.776 13 20.5V11.5C13 11.224 13.224 11 13.5 11H16.5C16.776 11 17 11.224 17 11.5V20.5C17 20.776 16.776 21 16.5 21ZM14 20H16V12H14V20Z" fill="white"/>
<path d="M10.5 21H7.5C7.224 21 7 20.776 7 20.5V15.5C7 15.224 7.224 15 7.5 15H10.5C10.776 15 11 15.224 11 15.5V20.5C11 20.776 10.776 21 10.5 21ZM8 20H10V16H8V20Z" fill="white"/>
<path d="M17.5 21H6.5C6.224 21 6 20.776 6 20.5C6 20.224 6.224 20 6.5 20H17.5C17.776 20 18 20.224 18 20.5C18 20.776 17.776 21 17.5 21Z" fill="white"/>
</g>
<defs>
<clipPath id="clip0_484_7646">
<rect width="24" height="24" fill="white"/>
</clipPath>
</defs>
</svg>
