<svg width="55" height="55" viewBox="0 0 55 55" fill="none" xmlns="http://www.w3.org/2000/svg">
<g clip-path="url(#clip0_2191_4336)">
<path d="M48.8389 4.85547V53.6297H12.2583V51.0168L12.8158 50.1458H41.0002V6.21423L41.8712 4.85547H48.8389Z" fill="#FF808D"/>
<path d="M10.5162 7.46787H4.41943L10.5162 1.37109V7.46787Z" fill="#FF808D"/>
<path d="M31.4194 24.8874C31.4194 29.6977 27.52 33.5971 22.7097 33.5971C17.8994 33.5971 14 29.6977 14 24.8874C14 20.0771 17.8994 16.1777 22.7097 16.1777C27.52 16.1777 31.4194 20.0771 31.4194 24.8874Z" fill="#FF808D"/>
<path d="M26.4619 23H25.2726C25.1689 22.6359 24.9857 22.2955 24.7344 22H26.4619C26.6046 22 26.7415 21.9473 26.8424 21.8536C26.9433 21.7598 27 21.6326 27 21.5C27 21.3674 26.9433 21.2402 26.8424 21.1464C26.7415 21.0527 26.6046 21 26.4619 21H20.5423C20.3996 21 20.2627 21.0527 20.1618 21.1464C20.0609 21.2402 20.0042 21.3674 20.0042 21.5C20.0042 21.6326 20.0609 21.7598 20.1618 21.8536C20.2627 21.9473 20.3996 22 20.5423 22H22.4258C22.7811 22.0012 23.1288 22.0957 23.4288 22.2726C23.7287 22.4496 23.9687 22.7017 24.1209 23H20.5423C20.3996 23 20.2627 23.0527 20.1618 23.1464C20.0609 23.2402 20.0042 23.3674 20.0042 23.5C20.0042 23.6326 20.0609 23.7598 20.1618 23.8535C20.2627 23.9473 20.3996 24 20.5423 24H24.3093C24.2448 24.4153 24.0218 24.7952 23.681 25.0706C23.3402 25.3459 22.9043 25.4983 22.4527 25.5H20.5423C20.5173 25.4976 20.492 25.4976 20.467 25.5C20.4313 25.4948 20.395 25.4948 20.3593 25.5C20.3227 25.5116 20.2882 25.5285 20.2571 25.55L20.1925 25.585C20.163 25.6097 20.1376 25.6384 20.1172 25.67C20.0992 25.6921 20.083 25.7155 20.0687 25.74C20.064 25.7698 20.064 25.8002 20.0687 25.83C20.0304 25.8799 20.008 25.9388 20.0042 26C20.0016 26.0233 20.0016 26.0467 20.0042 26.07C19.9986 26.1031 19.9986 26.1369 20.0042 26.17C20.0167 26.2041 20.0348 26.2361 20.058 26.265C20.058 26.265 20.058 26.305 20.0956 26.325L23.3245 29.825C23.4173 29.9258 23.5493 29.9882 23.6916 29.9985C23.8339 30.0088 23.9748 29.9662 24.0833 29.88C24.1917 29.7938 24.2589 29.6711 24.27 29.5389C24.2811 29.4067 24.2352 29.2758 24.1425 29.175L21.7155 26.5H22.4258C23.1663 26.5028 23.8811 26.2477 24.429 25.7848C24.977 25.322 25.3183 24.6852 25.3856 24H26.4619C26.6046 24 26.7415 23.9473 26.8424 23.8535C26.9433 23.7598 27 23.6326 27 23.5C27 23.3674 26.9433 23.2402 26.8424 23.1464C26.7415 23.0527 26.6046 23 26.4619 23Z" fill="#404040"/>
<path d="M49.7098 3.98387H42.742V1.37097C42.742 0.889979 42.352 0.5 41.871 0.5H11.3872C11.3689 0.5 11.3532 0.509781 11.334 0.510632C11.2558 0.515735 11.1784 0.53147 11.1039 0.557412C11.0746 0.565493 11.0453 0.575274 11.0172 0.587182C10.927 0.627583 10.8445 0.682869 10.7731 0.750914L10.7671 0.756017L4.67035 6.85279V6.85789C4.6023 6.92977 4.54702 7.01227 4.50662 7.102C4.49556 7.1288 4.48578 7.15601 4.4777 7.18366C4.45175 7.25808 4.43602 7.33591 4.43092 7.41458C4.42921 7.43372 4.41943 7.44946 4.41943 7.46774V50.1452C4.41943 50.6262 4.80941 51.0161 5.2904 51.0161H12.2581V53.629C12.2581 54.11 12.6481 54.5 13.1291 54.5H49.7098C50.1907 54.5 50.5807 54.11 50.5807 53.629V4.85484C50.5807 4.37385 50.1907 3.98387 49.7098 3.98387ZM10.5162 3.47354V6.59677H7.39297L10.5162 3.47354ZM6.16137 49.2742V8.33871H11.3872C11.8682 8.33871 12.2581 7.94873 12.2581 7.46774V2.24194H41.0001V49.2742H6.16137ZM48.8388 52.7581H14.0001V51.0161H41.871C42.352 51.0161 42.742 50.6262 42.742 50.1452V5.72581H48.8388V52.7581Z" fill="#404040"/>
<path d="M32.2902 24.8873C32.2902 19.596 28.0008 15.3066 22.7096 15.3066C17.4183 15.3066 13.1289 19.596 13.1289 24.8873C13.1289 30.1786 17.4183 34.4679 22.7096 34.4679C27.9983 34.4616 32.2838 30.176 32.2902 24.8873ZM22.7096 32.726C18.3802 32.726 14.8708 29.2166 14.8708 24.8873C14.8708 20.558 18.3802 17.0486 22.7096 17.0486C27.0389 17.0486 30.5483 20.558 30.5483 24.8873C30.5436 29.2145 27.0367 32.7213 22.7096 32.726Z" fill="#404040"/>
</g>
<defs>
<clipPath id="clip0_2191_4336">
<rect width="54" height="54" fill="white" transform="translate(0.5 0.5)"/>
</clipPath>
</defs>
</svg>
