<svg width="24" height="24" viewBox="0 0 24 24" fill="none" xmlns="http://www.w3.org/2000/svg">
<g clip-path="url(#clip0_2306_433)">
<path d="M12 17C9.243 17 7 14.757 7 12C7 9.243 9.243 7 12 7C14.757 7 17 9.243 17 12C17 14.757 14.757 17 12 17ZM12 8C9.794 8 8 9.794 8 12C8 14.206 9.794 16 12 16C14.206 16 16 14.206 16 12C16 9.794 14.206 8 12 8Z" fill="#555555"/>
<path d="M13.6999 24H10.2999C9.60588 24 8.99288 23.507 8.84188 22.828L8.38088 20.78C7.61288 20.468 6.88288 20.045 6.20588 19.517L4.20988 20.147C3.53088 20.357 2.79288 20.071 2.45388 19.464L0.756879 16.53C0.410879 15.915 0.527879 15.155 1.03688 14.676L2.57888 13.259C2.52688 12.833 2.49988 12.411 2.49988 12C2.49988 11.589 2.52688 11.167 2.57888 10.741L1.04188 9.328C0.527879 8.845 0.411879 8.085 0.753879 7.475L2.45788 4.529C2.79488 3.929 3.53388 3.643 4.20888 3.852L6.20688 4.482C6.88288 3.956 7.61288 3.532 8.38088 3.22L8.84188 1.17C8.99288 0.493 9.60588 0 10.2999 0H13.6999C14.3939 0 15.0069 0.493 15.1579 1.171L15.6189 3.22C16.3869 3.532 17.1169 3.955 17.7939 4.483L19.7899 3.853C20.4689 3.643 21.2059 3.93 21.5459 4.535L23.2429 7.469C23.5879 8.085 23.4719 8.845 22.9629 9.324L21.4209 10.741C21.4729 11.167 21.4999 11.589 21.4999 12C21.4999 12.411 21.4729 12.833 21.4209 13.259L22.9589 14.672C22.9599 14.673 22.9619 14.675 22.9629 14.676C23.4719 15.155 23.5879 15.915 23.2459 16.525L21.5419 19.471C21.2059 20.071 20.4669 20.359 19.7909 20.148L17.7929 19.518C17.1159 20.045 16.3859 20.469 15.6179 20.781L15.1569 22.831C15.0069 23.507 14.3939 24 13.6999 24ZM6.30988 18.46C6.42488 18.46 6.53688 18.5 6.62788 18.574C7.35188 19.171 8.14388 19.631 8.98288 19.941C9.14288 20 9.26088 20.135 9.29788 20.3L9.81788 22.61C9.86788 22.836 10.0709 23 10.2999 23H13.6999C13.9289 23 14.1319 22.836 14.1809 22.611L14.7019 20.3C14.7389 20.135 14.8569 20 15.0159 19.941C15.8549 19.63 16.6479 19.17 17.3709 18.574C17.5009 18.467 17.6789 18.434 17.8389 18.483L20.0889 19.193C20.3179 19.266 20.5609 19.176 20.6719 18.975L22.3759 16.029C22.4889 15.827 22.4499 15.569 22.2779 15.405L20.5499 13.818C20.4279 13.706 20.3689 13.54 20.3939 13.377C20.4649 12.91 20.4999 12.447 20.4999 12C20.4999 11.553 20.4649 11.09 20.3959 10.623C20.3719 10.459 20.4299 10.294 20.5519 10.182L22.2819 8.592C22.4509 8.433 22.4909 8.173 22.3739 7.965L20.6769 5.03C20.5609 4.824 20.3179 4.733 20.0879 4.807L17.8399 5.517C17.6799 5.568 17.5029 5.534 17.3719 5.426C16.6479 4.829 15.8559 4.369 15.0169 4.059C14.8569 4 14.7389 3.865 14.7019 3.7L14.1819 1.39C14.1319 1.164 13.9289 1 13.6999 1H10.2999C10.0709 1 9.86788 1.164 9.81888 1.388L9.29788 3.7C9.26088 3.865 9.14288 4 8.98288 4.059C8.14388 4.369 7.35188 4.829 6.62788 5.426C6.49888 5.534 6.32288 5.568 6.15988 5.517L3.90988 4.807C3.67988 4.735 3.43888 4.825 3.32588 5.024L1.62288 7.97C1.50988 8.173 1.54888 8.432 1.72288 8.595L3.44888 10.181C3.57088 10.293 3.62988 10.459 3.60488 10.622C3.53488 11.09 3.49988 11.553 3.49988 12C3.49988 12.447 3.53488 12.91 3.60388 13.377C3.62788 13.541 3.56988 13.706 3.44788 13.818L1.71788 15.408C1.54888 15.567 1.50888 15.827 1.62588 16.035L3.32288 18.969C3.43888 19.175 3.67888 19.264 3.91188 19.192L6.15988 18.483C6.20888 18.468 6.25988 18.46 6.30988 18.46Z" fill="#555555"/>
</g>
<defs>
<clipPath id="clip0_2306_433">
<rect width="24" height="24" fill="white"/>
</clipPath>
</defs>
</svg>
