<svg width="24" height="24" viewBox="0 0 24 24" fill="none" xmlns="http://www.w3.org/2000/svg">
<g clip-path="url(#clip0_442_10977)">
<path fill-rule="evenodd" clip-rule="evenodd" d="M20.75 8.414C20.75 7.95 20.566 7.505 20.237 7.177C19.219 6.159 15.841 2.781 14.823 1.763C14.495 1.434 14.05 1.25 13.586 1.25C12.316 1.25 8.416 1.25 6 1.25C5.271 1.25 4.571 1.54 4.055 2.055C3.54 2.571 3.25 3.271 3.25 4V20C3.25 20.729 3.54 21.429 4.055 21.945C4.571 22.46 5.271 22.75 6 22.75H18C19.519 22.75 20.75 21.519 20.75 20V8.414ZM19.25 8.414V20C19.25 20.69 18.69 21.25 18 21.25H6C5.668 21.25 5.351 21.118 5.116 20.884C4.882 20.649 4.75 20.332 4.75 20V4C4.75 3.668 4.882 3.351 5.116 3.116C5.351 2.882 5.668 2.75 6 2.75H13.586C13.652 2.75 13.716 2.776 13.763 2.823L19.177 8.237C19.224 8.284 19.25 8.348 19.25 8.414Z" fill="#555555"/>
<path fill-rule="evenodd" clip-rule="evenodd" d="M13.25 2.5V6C13.25 7.519 14.481 8.75 16 8.75H19.5C19.914 8.75 20.25 8.414 20.25 8C20.25 7.586 19.914 7.25 19.5 7.25H16C15.31 7.25 14.75 6.69 14.75 6V2.5C14.75 2.086 14.414 1.75 14 1.75C13.586 1.75 13.25 2.086 13.25 2.5Z" fill="#555555"/>
<path fill-rule="evenodd" clip-rule="evenodd" d="M8 10.75H11C11.414 10.75 11.75 10.414 11.75 10C11.75 9.586 11.414 9.25 11 9.25H8C7.586 9.25 7.25 9.586 7.25 10C7.25 10.414 7.586 10.75 8 10.75Z" fill="#555555"/>
<path fill-rule="evenodd" clip-rule="evenodd" d="M8 14.75H15C15.414 14.75 15.75 14.414 15.75 14C15.75 13.586 15.414 13.25 15 13.25H8C7.586 13.25 7.25 13.586 7.25 14C7.25 14.414 7.586 14.75 8 14.75Z" fill="#555555"/>
<path fill-rule="evenodd" clip-rule="evenodd" d="M8 17.75H15C15.414 17.75 15.75 17.414 15.75 17C15.75 16.586 15.414 16.25 15 16.25H8C7.586 16.25 7.25 16.586 7.25 17C7.25 17.414 7.586 17.75 8 17.75Z" fill="#555555"/>
</g>
<defs>
<clipPath id="clip0_442_10977">
<rect width="24" height="24" fill="white"/>
</clipPath>
</defs>
</svg>
