<svg width="36" height="36" viewBox="0 0 36 36" fill="none" xmlns="http://www.w3.org/2000/svg">
<path d="M9.5625 19.125H7.875V11.25H3.375V19.125H1.6875L5.625 24.1875L9.5625 19.125Z" fill="#FF808D"/>
<path d="M34.3125 14.625H32.625V6.75H28.125V14.625H26.4375L30.375 19.6875L34.3125 14.625Z" fill="#FF808D"/>
<path d="M18 0.5625C16.4425 0.5625 14.9199 1.02436 13.6249 1.88968C12.3299 2.75499 11.3205 3.9849 10.7245 5.42387C10.1284 6.86284 9.97246 8.44624 10.2763 9.97384C10.5802 11.5014 11.3302 12.9046 12.4315 14.006C13.5329 15.1073 14.9361 15.8573 16.4637 16.1612C17.9913 16.465 19.5747 16.3091 21.0136 15.7131C22.4526 15.117 23.6825 14.1077 24.5478 12.8126C25.4131 11.5176 25.875 9.99503 25.875 8.4375C25.8727 6.34962 25.0423 4.34792 23.5659 2.87156C22.0896 1.39521 20.0879 0.564789 18 0.5625ZM18 15.1875C16.665 15.1875 15.3599 14.7916 14.2499 14.0499C13.1399 13.3082 12.2747 12.254 11.7638 11.0206C11.2529 9.78721 11.1193 8.43001 11.3797 7.12064C11.6402 5.81127 12.283 4.60853 13.227 3.66453C14.171 2.72052 15.3738 2.07765 16.6831 1.8172C17.9925 1.55675 19.3497 1.69042 20.5831 2.20131C21.8165 2.7122 22.8707 3.57737 23.6124 4.6874C24.3541 5.79743 24.75 7.10248 24.75 8.4375C24.7479 10.2271 24.036 11.9427 22.7706 13.2081C21.5052 14.4735 19.7896 15.1854 18 15.1875Z" fill="#404040"/>
<path d="M26.9409 23.3733C26.8941 23.2799 26.8222 23.2014 26.7333 23.1465C26.6444 23.0916 26.542 23.0625 26.4375 23.0625H23.625V17.4375C23.625 17.2883 23.5657 17.1452 23.4602 17.0398C23.3548 16.9343 23.2117 16.875 23.0625 16.875H12.9375C12.7883 16.875 12.6452 16.9343 12.5398 17.0398C12.4343 17.1452 12.375 17.2883 12.375 17.4375V23.0625H9.5625C9.45804 23.0625 9.35564 23.0916 9.26678 23.1465C9.17791 23.2014 9.1061 23.28 9.05939 23.3734C9.01267 23.4669 8.99289 23.5715 9.00227 23.6755C9.01165 23.7796 9.04982 23.8789 9.1125 23.9625L17.55 35.2125C17.6024 35.2824 17.6703 35.3391 17.7484 35.3781C17.8265 35.4172 17.9127 35.4375 18 35.4375C18.0873 35.4375 18.1734 35.4172 18.2516 35.3781C18.3297 35.3391 18.3976 35.2824 18.45 35.2125L26.8875 23.9625C26.9502 23.8789 26.9884 23.7795 26.9978 23.6755C27.0072 23.5714 26.9875 23.4668 26.9409 23.3733ZM18 33.9377L10.6875 24.1875H12.9375C13.0867 24.1875 13.2298 24.1282 13.3352 24.0227C13.4407 23.9173 13.5 23.7742 13.5 23.625V18H22.5V23.625C22.5 23.7742 22.5593 23.9173 22.6647 24.0227C22.7702 24.1282 22.9133 24.1875 23.0625 24.1875H25.3125L18 33.9377Z" fill="#404040"/>
<path d="M10.0678 18.8779C10.0215 18.7833 9.94965 18.7035 9.86032 18.6478C9.77098 18.592 9.66779 18.5625 9.56248 18.5625H8.43748V11.25C8.43748 11.1008 8.37822 10.9577 8.27273 10.8523C8.16724 10.7468 8.02417 10.6875 7.87498 10.6875H3.37498C3.2258 10.6875 3.08273 10.7468 2.97724 10.8523C2.87175 10.9577 2.81248 11.1008 2.81248 11.25V18.5625H1.68748C1.58219 18.5625 1.47901 18.5921 1.38968 18.6478C1.30035 18.7036 1.22847 18.7833 1.1822 18.8779C1.13594 18.9724 1.11715 19.0781 1.12798 19.1828C1.13881 19.2876 1.17882 19.3872 1.24346 19.4703L5.18096 24.5328C5.23355 24.6004 5.30089 24.6551 5.37784 24.6928C5.45479 24.7304 5.53932 24.75 5.62498 24.75C5.71064 24.75 5.79518 24.7304 5.87213 24.6928C5.94908 24.6551 6.01642 24.6004 6.06901 24.5328L10.0065 19.4703C10.0712 19.3872 10.1112 19.2876 10.122 19.1829C10.1328 19.0781 10.1141 18.9724 10.0678 18.8779ZM5.62498 23.2713L2.83758 19.6875H3.37498C3.52417 19.6875 3.66724 19.6282 3.77273 19.5227C3.87822 19.4173 3.93748 19.2742 3.93748 19.125V11.8125H7.31248V19.125C7.31248 19.2742 7.37174 19.4173 7.47723 19.5227C7.58272 19.6282 7.7258 19.6875 7.87498 19.6875H8.41238L5.62498 23.2713Z" fill="#404040"/>
<path d="M34.8178 14.3779C34.7716 14.2833 34.6997 14.2035 34.6103 14.1478C34.521 14.092 34.4178 14.0625 34.3125 14.0625H33.1875V6.75C33.1875 6.60082 33.1282 6.45774 33.0227 6.35225C32.9172 6.24676 32.7742 6.1875 32.625 6.1875H28.125C27.9758 6.1875 27.8327 6.24676 27.7272 6.35225C27.6217 6.45774 27.5625 6.60082 27.5625 6.75V14.0625H26.4375C26.3322 14.0625 26.229 14.0921 26.1397 14.1478C26.0504 14.2036 25.9785 14.2833 25.9322 14.3779C25.8859 14.4724 25.8672 14.5781 25.878 14.6829C25.8888 14.7876 25.9288 14.8872 25.9935 14.9703L29.931 20.0328C29.9836 20.1004 30.0509 20.1551 30.1278 20.1928C30.2048 20.2304 30.2893 20.25 30.375 20.25C30.4606 20.25 30.5452 20.2304 30.6221 20.1928C30.6991 20.1551 30.7664 20.1004 30.819 20.0328L34.7565 14.9703C34.8212 14.8872 34.8612 14.7876 34.872 14.6829C34.8829 14.5781 34.8641 14.4724 34.8178 14.3779ZM30.375 18.7713L27.5876 15.1875H28.125C28.2742 15.1875 28.4172 15.1282 28.5227 15.0227C28.6282 14.9173 28.6875 14.7742 28.6875 14.625V7.3125H32.0625V14.625C32.0625 14.7742 32.1217 14.9173 32.2272 15.0227C32.3327 15.1282 32.4758 15.1875 32.625 15.1875H33.1624L30.375 18.7713Z" fill="#404040"/>
<path d="M20.5 6.91667H19.5792C19.499 6.61325 19.3571 6.32959 19.1625 6.08333H20.5C20.6106 6.08333 20.7165 6.03943 20.7947 5.96129C20.8728 5.88315 20.9167 5.77717 20.9167 5.66667C20.9167 5.55616 20.8728 5.45018 20.7947 5.37204C20.7165 5.2939 20.6106 5.25 20.5 5.25H15.9167C15.8062 5.25 15.7002 5.2939 15.6221 5.37204C15.5439 5.45018 15.5001 5.55616 15.5001 5.66667C15.5001 5.77717 15.5439 5.88315 15.6221 5.96129C15.7002 6.03943 15.8062 6.08333 15.9167 6.08333H17.3751C17.6501 6.0843 17.9194 6.16306 18.1516 6.31051C18.3839 6.45797 18.5697 6.66811 18.6875 6.91667H15.9167C15.8062 6.91667 15.7002 6.96057 15.6221 7.03871C15.5439 7.11685 15.5001 7.22283 15.5001 7.33333C15.5001 7.44384 15.5439 7.54982 15.6221 7.62796C15.7002 7.7061 15.8062 7.75 15.9167 7.75H18.8334C18.7834 8.09608 18.6108 8.4127 18.3469 8.64214C18.0831 8.87159 17.7456 8.99859 17.3959 9H15.9167C15.8973 8.99805 15.8778 8.99805 15.8584 9C15.8308 8.9957 15.8027 8.9957 15.7751 9C15.7466 9.00967 15.7199 9.02373 15.6959 9.04167L15.6459 9.07083C15.6231 9.09145 15.6034 9.11531 15.5876 9.14167C15.5736 9.16014 15.5611 9.17964 15.5501 9.2C15.5463 9.22486 15.5463 9.25014 15.5501 9.275C15.5204 9.31656 15.503 9.36567 15.5001 9.41667C15.4981 9.43606 15.4981 9.4556 15.5001 9.475C15.4958 9.50261 15.4958 9.53072 15.5001 9.55833C15.5097 9.58673 15.5238 9.61345 15.5417 9.6375C15.5417 9.6375 15.5417 9.67083 15.5709 9.6875L18.0709 12.6042C18.1427 12.6882 18.245 12.7402 18.3551 12.7488C18.4653 12.7574 18.5744 12.7218 18.6584 12.65C18.7424 12.5782 18.7944 12.4759 18.803 12.3657C18.8116 12.2556 18.776 12.1465 18.7042 12.0625L16.8251 9.83333H17.3751C17.9484 9.83571 18.5018 9.62307 18.9261 9.23738C19.3503 8.8517 19.6146 8.32099 19.6667 7.75H20.5C20.6106 7.75 20.7165 7.7061 20.7947 7.62796C20.8728 7.54982 20.9167 7.44384 20.9167 7.33333C20.9167 7.22283 20.8728 7.11685 20.7947 7.03871C20.7165 6.96057 20.6106 6.91667 20.5 6.91667Z" fill="#404040"/>
</svg>
