<svg width="24" height="24" viewBox="0 0 24 24" fill="none" xmlns="http://www.w3.org/2000/svg">
<path fill-rule="evenodd" clip-rule="evenodd" d="M19.75 5C19.75 4.586 19.414 4.25 19 4.25H5C4.586 4.25 4.25 4.586 4.25 5V20C4.25 21.519 5.481 22.75 7 22.75H17C18.519 22.75 19.75 21.519 19.75 20C19.75 15.506 19.75 5 19.75 5ZM18.25 5.75V20C18.25 20.69 17.69 21.25 17 21.25H7C6.31 21.25 5.75 20.69 5.75 20V5.75H18.25Z" fill="#404040"/>
<path fill-rule="evenodd" clip-rule="evenodd" d="M9 9.75V16.75C9 17.164 9.336 17.5 9.75 17.5C10.164 17.5 10.5 17.164 10.5 16.75V9.75C10.5 9.336 10.164 9 9.75 9C9.336 9 9 9.336 9 9.75Z" fill="#FF808D"/>
<path fill-rule="evenodd" clip-rule="evenodd" d="M14 9.75V16.75C14 17.164 14.336 17.5 14.75 17.5C15.164 17.5 15.5 17.164 15.5 16.75V9.75C15.5 9.336 15.164 9 14.75 9C14.336 9 14 9.336 14 9.75Z" fill="#FF808D"/>
<path fill-rule="evenodd" clip-rule="evenodd" d="M17.75 5V3C17.75 2.033 16.967 1.25 16 1.25H8C7.033 1.25 6.25 2.033 6.25 3V5C6.25 5.414 6.586 5.75 7 5.75H17C17.414 5.75 17.75 5.414 17.75 5ZM16.25 3V4.25H7.75V3C7.75 2.862 7.862 2.75 8 2.75H16C16.138 2.75 16.25 2.862 16.25 3Z" fill="#404040"/>
<path fill-rule="evenodd" clip-rule="evenodd" d="M20.5 4.25H3.5C3.086 4.25 2.75 4.586 2.75 5C2.75 5.414 3.086 5.75 3.5 5.75H20.5C20.914 5.75 21.25 5.414 21.25 5C21.25 4.586 20.914 4.25 20.5 4.25Z" fill="#404040"/>
</svg>
