<svg width="32" height="32" viewBox="0 0 32 32" fill="none" xmlns="http://www.w3.org/2000/svg">
<path d="M16 14L12 19H14.5V21.5V30.5H17.5V21.5V19H20L16 14Z" fill="#FF808D"/>
<path d="M29.7238 10.34C28.6718 9.16021 27.2514 8.37134 25.6938 8.10187C25.1991 6.2072 24.1312 4.51162 22.6361 3.24707C21.1409 1.98252 19.2916 1.21075 17.3411 1.03734C15.3907 0.86393 13.4342 1.29734 11.7395 2.27829C10.0447 3.25924 8.69436 4.73981 7.87318 6.5175C7.74881 6.50583 7.62443 6.5 7.50006 6.5C6.43956 6.50119 5.42283 6.923 4.67295 7.67288C3.92306 8.42277 3.50125 9.4395 3.50006 10.5C3.50006 10.5981 3.50381 10.6975 3.51131 10.7962C2.36505 11.4548 1.46834 12.4735 0.960476 13.694C0.452611 14.9146 0.362014 16.2687 0.702755 17.546C1.0435 18.8233 1.7965 19.9524 2.84482 20.7578C3.89313 21.5632 5.17807 21.9999 6.50006 22H14.0001V30.5C14.0001 30.6326 14.0527 30.7598 14.1465 30.8535C14.2403 30.9473 14.3674 31 14.5001 31H17.5001C17.6327 31 17.7598 30.9473 17.8536 30.8535C17.9474 30.7598 18.0001 30.6326 18.0001 30.5V22H24.5001C25.8506 22.0001 27.1724 21.6094 28.3059 20.8752C29.4394 20.141 30.3364 19.0945 30.8886 17.862C31.4407 16.6294 31.6246 15.2635 31.4179 13.9288C31.2112 12.5942 30.6229 11.3478 29.7238 10.34ZM17.5001 18.5C17.3675 18.5 17.2403 18.5527 17.1465 18.6464C17.0527 18.7402 17.0001 18.8674 17.0001 19V30H15.0001V19C15.0001 18.8674 14.9474 18.7402 14.8536 18.6464C14.7598 18.5527 14.6327 18.5 14.5001 18.5H13.0401L16.0001 14.8006L18.9601 18.5H17.5001ZM24.5001 21H18.0001V19.5H20.0001C20.0943 19.5001 20.1866 19.4735 20.2664 19.4234C20.3462 19.3732 20.4102 19.3016 20.451 19.2166C20.4918 19.1317 20.5078 19.037 20.4972 18.9434C20.4865 18.8498 20.4496 18.7611 20.3907 18.6875L16.3907 13.6875C16.3438 13.629 16.2843 13.5817 16.2167 13.5493C16.1491 13.5168 16.0751 13.5 16.0001 13.5C15.9251 13.5 15.851 13.5168 15.7834 13.5493C15.7158 13.5817 15.6563 13.629 15.6094 13.6875L11.6094 18.6875C11.5505 18.7611 11.5136 18.8498 11.503 18.9434C11.4923 19.037 11.5083 19.1317 11.5491 19.2166C11.5899 19.3016 11.6539 19.3732 11.7337 19.4234C11.8135 19.4735 11.9058 19.5001 12.0001 19.5H14.0001V21H6.50006C5.37296 20.9998 4.27897 20.6189 3.39551 19.919C2.51206 19.2191 1.89095 18.2413 1.63292 17.1441C1.37489 16.047 1.49507 14.8948 1.97398 13.8745C2.45289 12.8542 3.26243 12.0256 4.27131 11.5231C4.36713 11.4753 4.44509 11.398 4.49369 11.3026C4.5423 11.2072 4.55899 11.0987 4.54131 10.9931C4.46926 10.5633 4.4918 10.123 4.60734 9.70281C4.72288 9.28262 4.92864 8.89268 5.2103 8.56015C5.49196 8.22762 5.84274 7.9605 6.2382 7.77741C6.63365 7.59431 7.06427 7.49964 7.50006 7.5C7.6956 7.50022 7.89067 7.51926 8.08256 7.55687C8.19585 7.57907 8.31333 7.56139 8.41507 7.50682C8.5168 7.45225 8.59652 7.36416 8.64068 7.2575C9.33092 5.586 10.5361 4.17811 12.0812 3.23839C13.6263 2.29866 15.4307 1.87604 17.2324 2.03194C19.0341 2.18783 20.7391 2.91412 22.0998 4.10527C23.4605 5.29643 24.4059 6.89041 24.7988 8.65562C24.8212 8.75667 24.8744 8.84828 24.9511 8.91779C25.0278 8.98731 25.1242 9.03132 25.2269 9.04375C26.7447 9.22804 28.1348 9.98478 29.1135 11.1594C30.0921 12.3341 30.5854 13.838 30.4926 15.3641C30.3999 16.8902 29.728 18.3233 28.6143 19.3707C27.5005 20.4182 26.029 21.0009 24.5001 21Z" fill="#404040"/>
</svg>
