<svg width="24" height="24" viewBox="0 0 24 24" fill="none" xmlns="http://www.w3.org/2000/svg">
<g clip-path="url(#clip0_2306_439)">
<path d="M12 0C5.38332 0 0 5.38332 0 12C0 18.6166 5.38332 24 12 24C18.6166 24 24 18.6166 24 12C24 5.38332 18.6167 0 12 0ZM12 22.9565C5.95824 22.9565 1.04346 18.0417 1.04346 12C1.04346 5.95824 5.95824 1.04346 12 1.04346C18.0417 1.04346 22.9565 5.95824 22.9565 12C22.9565 18.0417 18.0417 22.9565 12 22.9565Z" fill="#404040"/>
<path d="M11.9999 11.4785C8.26006 11.4785 5.21729 14.5213 5.21729 18.2611C5.21729 18.5491 5.45104 18.7829 5.73904 18.7829C6.02704 18.7829 6.26079 18.5491 6.26079 18.2611C6.26079 15.0962 8.83504 12.522 11.9999 12.522C15.1648 12.522 17.739 15.0962 17.739 18.2611C17.739 18.5491 17.9728 18.7828 18.2608 18.7828C18.5488 18.7828 18.7825 18.5491 18.7825 18.2611C18.7825 14.5213 15.7397 11.4785 11.9999 11.4785Z" fill="#404040"/>
<path d="M12.0001 3.13086C9.98619 3.13086 8.3479 4.7691 8.3479 6.78305C8.3479 8.79699 9.98614 10.4352 12.0001 10.4352C14.014 10.4352 15.6523 8.79694 15.6523 6.78305C15.6523 4.76915 14.014 3.13086 12.0001 3.13086ZM12.0001 9.39173C10.5622 9.39173 9.39141 8.22094 9.39141 6.78305C9.39141 5.34515 10.5622 4.17437 12.0001 4.17437C13.438 4.17437 14.6088 5.34515 14.6088 6.78305C14.6088 8.22094 13.438 9.39173 12.0001 9.39173Z" fill="#404040"/>
</g>
<defs>
<clipPath id="clip0_2306_439">
<rect width="24" height="24" fill="white"/>
</clipPath>
</defs>
</svg>
