<svg width="55" height="55" viewBox="0 0 55 55" fill="none" xmlns="http://www.w3.org/2000/svg">
<path d="M15.675 48.5938V28.3438H18.2063L12.3 20.75L6.3938 28.3438H8.92505V48.5938H15.675Z" fill="#FF808D"/>
<path d="M39.3 48.5938H46.05V16.5313H48.5813L42.675 8.9375L36.7688 16.5313H39.3V48.5938Z" fill="#FF808D"/>
<path d="M2.1748 48.5938H52.7998V51.9688H2.1748V48.5938Z" fill="#FF808D"/>
<path d="M12.3 18.2187C16.494 18.2187 19.8938 14.8189 19.8938 10.625C19.8938 6.43109 16.494 3.03125 12.3 3.03125C8.10614 3.03125 4.7063 6.43109 4.7063 10.625C4.7063 14.8189 8.10614 18.2187 12.3 18.2187Z" fill="#FF808D"/>
<path d="M14.6156 9.55555H13.7661C13.6921 9.27236 13.5612 9.00761 13.3817 8.77778H14.6156C14.7176 8.77778 14.8153 8.7368 14.8874 8.66387C14.9595 8.59094 15 8.49203 15 8.38889C15 8.28575 14.9595 8.18683 14.8874 8.1139C14.8153 8.04097 14.7176 8 14.6156 8H10.3874C10.2854 8 10.1876 8.04097 10.1156 8.1139C10.0435 8.18683 10.003 8.28575 10.003 8.38889C10.003 8.49203 10.0435 8.59094 10.1156 8.66387C10.1876 8.7368 10.2854 8.77778 10.3874 8.77778H11.7327C11.9865 8.77868 12.2349 8.85218 12.4491 8.98981C12.6634 9.12744 12.8348 9.32357 12.9435 9.55555H10.3874C10.2854 9.55555 10.1876 9.59652 10.1156 9.66945C10.0435 9.74238 10.003 9.8413 10.003 9.94444C10.003 10.0476 10.0435 10.1465 10.1156 10.2194C10.1876 10.2924 10.2854 10.3333 10.3874 10.3333H13.0781C13.032 10.6563 12.8727 10.9518 12.6293 11.166C12.3859 11.3801 12.0745 11.4987 11.7519 11.5H10.3874C10.3695 11.4982 10.3514 11.4982 10.3335 11.5C10.3081 11.496 10.2821 11.496 10.2567 11.5C10.2305 11.509 10.2058 11.5221 10.1836 11.5389L10.1375 11.5661C10.1165 11.5853 10.0983 11.6076 10.0837 11.6322C10.0708 11.6494 10.0593 11.6676 10.0491 11.6867C10.0457 11.7099 10.0457 11.7335 10.0491 11.7567C10.0217 11.7954 10.0057 11.8413 10.003 11.8889C10.0012 11.907 10.0012 11.9252 10.003 11.9433C9.99901 11.9691 9.99901 11.9953 10.003 12.0211C10.0119 12.0476 10.0249 12.0725 10.0414 12.095C10.0414 12.095 10.0414 12.1261 10.0683 12.1417L12.3746 14.8639C12.4409 14.9423 12.5352 14.9908 12.6369 14.9988C12.7385 15.0068 12.8391 14.9737 12.9166 14.9066C12.9941 14.8396 13.0421 14.7442 13.05 14.6413C13.0579 14.5385 13.0252 14.4367 12.9589 14.3583L11.2253 12.2778H11.7327C12.2617 12.28 12.7722 12.0815 13.1636 11.7215C13.555 11.3616 13.7988 10.8662 13.8468 10.3333H14.6156C14.7176 10.3333 14.8153 10.2924 14.8874 10.2194C14.9595 10.1465 15 10.0476 15 9.94444C15 9.8413 14.9595 9.74238 14.8874 9.66945C14.8153 9.59652 14.7176 9.55555 14.6156 9.55555Z" fill="#404040"/>
<path d="M52.8125 47.75H46.9062V17.375H48.5938C48.7517 17.3751 48.9065 17.3308 49.0405 17.2472C49.1746 17.1635 49.2824 17.044 49.3518 16.902C49.4211 16.7601 49.4492 16.6016 49.4329 16.4445C49.4165 16.2873 49.3564 16.138 49.2593 16.0134L43.353 8.41963C43.2743 8.31818 43.1733 8.23607 43.058 8.17959C42.9427 8.12311 42.8159 8.09375 42.6875 8.09375C42.5591 8.09375 42.4323 8.12311 42.317 8.17959C42.2017 8.23607 42.1007 8.31818 42.022 8.41963L36.1157 16.0134C36.0186 16.138 35.9585 16.2873 35.9421 16.4445C35.9258 16.6016 35.9539 16.7601 36.0232 16.902C36.0926 17.044 36.2004 17.1635 36.3345 17.2472C36.4685 17.3308 36.6233 17.3751 36.7812 17.375H38.4688V47.75H31.7188V22.4375H33.4062C33.5642 22.4376 33.719 22.3933 33.853 22.3097C33.9871 22.226 34.0949 22.1065 34.1643 21.9645C34.2336 21.8226 34.2617 21.6641 34.2454 21.507C34.229 21.3498 34.1689 21.2005 34.0718 21.0759L28.1655 13.4821C28.0868 13.3807 27.9858 13.2986 27.8705 13.2421C27.7552 13.1856 27.6284 13.1563 27.5 13.1563C27.3716 13.1563 27.2448 13.1856 27.1295 13.2421C27.0142 13.2986 26.9132 13.3807 26.8345 13.4821L20.9282 21.0759C20.8311 21.2005 20.771 21.3498 20.7546 21.507C20.7383 21.6641 20.7664 21.8226 20.8357 21.9645C20.9051 22.1065 21.0129 22.226 21.147 22.3097C21.281 22.3933 21.4358 22.4376 21.5938 22.4375H23.2812V47.75H16.5312V29.1875H18.2188C18.3767 29.1876 18.5315 29.1433 18.6655 29.0597C18.7996 28.976 18.9074 28.8565 18.9768 28.7145C19.0461 28.5726 19.0742 28.4141 19.0579 28.257C19.0415 28.0998 18.9814 27.9505 18.8843 27.8259L12.978 20.2321C12.8993 20.1307 12.7984 20.0486 12.683 19.9921C12.5677 19.9356 12.4409 19.9063 12.3125 19.9063C12.1841 19.9063 12.0573 19.9356 11.942 19.9921C11.8266 20.0486 11.7257 20.1307 11.647 20.2321L5.74074 27.8259C5.64363 27.9505 5.58347 28.0998 5.56711 28.257C5.55076 28.4141 5.57886 28.5726 5.64823 28.7145C5.7176 28.8565 5.82543 28.976 5.95945 29.0597C6.09347 29.1433 6.24828 29.1876 6.40625 29.1875H8.09375V47.75H2.1875C1.96372 47.75 1.74911 47.8389 1.59088 47.9971C1.43264 48.1554 1.34375 48.37 1.34375 48.5937V51.9687C1.34375 52.1925 1.43264 52.4071 1.59088 52.5654C1.74911 52.7236 1.96372 52.8125 2.1875 52.8125H52.8125C53.0363 52.8125 53.2509 52.7236 53.4091 52.5654C53.5674 52.4071 53.6562 52.1925 53.6562 51.9687V48.5937C53.6562 48.37 53.5674 48.1554 53.4091 47.9971C53.2509 47.8389 53.0363 47.75 52.8125 47.75ZM42.6875 10.3117L46.8683 15.6875H46.0625C45.8387 15.6875 45.6241 15.7764 45.4659 15.9346C45.3076 16.0928 45.2188 16.3075 45.2188 16.5312V47.75H40.1562V16.5312C40.1562 16.3075 40.0674 16.0928 39.9091 15.9346C39.7509 15.7764 39.5363 15.6875 39.3125 15.6875H38.5067L42.6875 10.3117ZM27.5 15.3742L31.6808 20.75H30.875C30.6512 20.75 30.4366 20.8389 30.2784 20.9971C30.1201 21.1553 30.0312 21.37 30.0312 21.5937V47.75H24.9688V21.5937C24.9688 21.37 24.8799 21.1553 24.7216 20.9971C24.5634 20.8389 24.3488 20.75 24.125 20.75H23.3192L27.5 15.3742ZM12.3125 22.1242L16.4933 27.5H15.6875C15.4637 27.5 15.2491 27.5889 15.0909 27.7471C14.9326 27.9054 14.8438 28.12 14.8438 28.3437V47.75H9.78125V28.3437C9.78125 28.12 9.69236 27.9054 9.53412 27.7471C9.37589 27.5889 9.16128 27.5 8.9375 27.5H8.13172L12.3125 22.1242ZM51.9688 51.125H3.03125V49.4375H51.9688V51.125Z" fill="#404040"/>
<path d="M12.3125 19.0625C13.9813 19.0625 15.6126 18.5676 17.0001 17.6405C18.3877 16.7134 19.4691 15.3956 20.1077 13.8539C20.7463 12.3121 20.9134 10.6156 20.5879 8.97893C20.2623 7.34221 19.4587 5.8388 18.2787 4.65879C17.0987 3.47878 15.5953 2.67519 13.9586 2.34963C12.3219 2.02407 10.6254 2.19116 9.08361 2.82977C7.54186 3.46838 6.2241 4.54984 5.29698 5.93738C4.36985 7.32492 3.875 8.95622 3.875 10.625C3.87754 12.862 4.7673 15.0066 6.34909 16.5884C7.93088 18.1702 10.0755 19.06 12.3125 19.0625V19.0625ZM12.3125 3.875C13.6475 3.875 14.9526 4.27088 16.0626 5.01258C17.1726 5.75428 18.0378 6.80849 18.5487 8.04189C19.0596 9.27529 19.1933 10.6325 18.9328 11.9419C18.6724 13.2512 18.0295 14.454 17.0855 15.398C16.1415 16.342 14.9387 16.9849 13.6294 17.2453C12.32 17.5058 10.9628 17.3721 9.72939 16.8612C8.49599 16.3503 7.44178 15.4851 6.70008 14.3751C5.95838 13.2651 5.5625 11.96 5.5625 10.625C5.56451 8.83541 6.27631 7.11969 7.54175 5.85425C8.80718 4.58882 10.5229 3.87701 12.3125 3.875V3.875Z" fill="#404040"/>
</svg>
