<svg width="24" height="24" viewBox="0 0 24 24" fill="none" xmlns="http://www.w3.org/2000/svg">
<path d="M0.75 5.625V18.375C0.75 18.8723 0.947544 19.3492 1.29917 19.7008C1.65081 20.0525 2.12772 20.25 2.625 20.25H21.75V15H20.25V12.75H21.75V7.5H2.625C2.12772 7.5 1.65081 7.30246 1.29917 6.95083C0.947544 6.59919 0.75 6.12228 0.75 5.625Z" fill="#FF808D"/>
<path d="M22.5 12.375H22.125V7.5C22.125 7.40054 22.0855 7.30516 22.0152 7.23483C21.9448 7.16451 21.8495 7.125 21.75 7.125H20.625V3.75C20.625 3.65054 20.5855 3.55516 20.5152 3.48484C20.4448 3.41451 20.3495 3.375 20.25 3.375H2.625C2.02846 3.37563 1.45653 3.61289 1.03471 4.03471C0.612889 4.45653 0.375633 5.02846 0.375 5.625V18.375C0.375633 18.9715 0.612889 19.5435 1.03471 19.9653C1.45653 20.3871 2.02846 20.6244 2.625 20.625H21.75C21.8495 20.625 21.9448 20.5855 22.0152 20.5152C22.0855 20.4448 22.125 20.3495 22.125 20.25V15.375H22.5C22.7982 15.3746 23.0842 15.2559 23.2951 15.0451C23.5059 14.8342 23.6246 14.5482 23.625 14.25V13.5C23.6246 13.2018 23.5059 12.9158 23.2951 12.7049C23.0842 12.4941 22.7982 12.3754 22.5 12.375ZM2.625 4.125H19.875V7.125H2.625C2.22718 7.125 1.84564 6.96696 1.56434 6.68566C1.28304 6.40436 1.125 6.02282 1.125 5.625C1.125 5.22718 1.28304 4.84564 1.56434 4.56434C1.84564 4.28304 2.22718 4.125 2.625 4.125ZM21.375 19.875H2.625C2.22734 19.8745 1.84611 19.7163 1.56492 19.4351C1.28372 19.1539 1.12552 18.7727 1.125 18.375V7.30031C1.53679 7.67068 2.07116 7.87541 2.625 7.875H21.375V12.375H20.25C20.1505 12.375 20.0552 12.4145 19.9848 12.4848C19.9145 12.5552 19.875 12.6505 19.875 12.75V15C19.875 15.0995 19.9145 15.1948 19.9848 15.2652C20.0552 15.3355 20.1505 15.375 20.25 15.375H21.375V19.875ZM22.875 14.25C22.8749 14.3494 22.8353 14.4447 22.765 14.515C22.6947 14.5853 22.5994 14.6249 22.5 14.625H20.625V13.125H22.5C22.5994 13.1251 22.6947 13.1647 22.765 13.235C22.8353 13.3053 22.8749 13.4006 22.875 13.5V14.25Z" fill="#404040"/>
</svg>
